<?xml version="1.0" standalone="no"?><!DOCTYPE svg PUBLIC "-//W3C//DTD SVG 1.1//EN" "http://www.w3.org/Graphics/SVG/1.1/DTD/svg11.dtd" ><svg xmlns="http://www.w3.org/2000/svg"><metadata></metadata><defs><font id="Source Han Sans SC ExtraLight:Version 1.001" horiz-adv-x="1000"><font-face font-family="Source Han Sans SC ExtraLight" font-weight="250" font-stretch="normal" units-per-em="1000" panose-1="2 11 2 0 0 0 0 0 0 0" ascent="880" descent="-120" x-height="0" bbox="-33 -257 973 880" underline-thickness="50" underline-position="-125" unicode-range="U+0021-ff1f" /><missing-glyph horiz-adv-x="1000" d="M100 880 L900 880 L900 -120 L100 -120 L100 880 ZM818 830 L182 830 L500 421 L818 830 ZM850 -29 L850 789 L532 380 L850 -29 ZM818 -70 L500 339 L182 -70 L818 -70 ZM150 -29 L468 380 L150 789 L150 -29 Z" /><glyph glyph-name="" unicode="!" d="M119 737 L156 737 L152 190 L123 190 L119 737 ZM137 -13 Q97 -13 97 30 Q97 75 137 75 Q178 75 178 30 Q178 -13 137 -13 Z" /><glyph glyph-name="" unicode="&quot;" d="M92 696 L92 763 L136 763 L136 696 L130 540 L99 540 L92 696 ZM235 696 L235 763 L280 763 L280 696 L272 540 L243 540 L235 696 Z" /><glyph glyph-name="" unicode="#" d="M132 240 L40 240 L40 272 L136 272 L161 466 L62 466 L62 498 L163 498 L191 715 L223 715 L195 498 L365 498 L394 715 L426 715 L398 498 L488 498 L488 466 L395 466 L371 272 L465 272 L465 240 L366 240 L338 0 L306 0 L334 240 L164 240 L135 0 L103 0 L132 240 ZM339 272 L363 466 L192 466 L168 272 L339 272 Z" /><glyph glyph-name="" unicode="$" d="M412 617 Q347 684 267 684 Q209 684 171 646 Q134 608 134 552 Q134 485 184 442 Q209 420 294 378 Q371 340 404 304 Q454 250 454 164 Q454 88 405 40 Q359 -7 285 -12 L285 -121 L251 -121 L251 -12 Q150 -5 68 73 L89 99 Q172 20 268 20 Q339 20 379 60 Q417 97 417 162 Q417 238 367 287 Q337 317 257 357 Q177 397 147 425 Q97 474 97 549 Q97 617 141 664 Q184 710 251 716 L251 825 L285 825 L285 717 Q367 711 435 640 L412 617 Z" /><glyph glyph-name="" unicode="%" d="M198 284 Q126 284 86 343 Q46 403 46 513 Q46 621 86 680 Q126 739 198 739 Q270 739 311 680 Q351 621 351 513 Q351 403 311 343 Q271 284 198 284 ZM198 313 Q253 313 284 366 Q316 419 316 513 Q316 606 284 658 Q253 710 198 710 Q143 710 112 658 Q80 606 80 513 Q80 420 112 366 Q144 313 198 313 ZM623 739 L659 739 L253 -13 L216 -13 L623 739 ZM682 -13 Q609 -13 570 46 Q529 106 529 216 Q529 324 570 383 Q610 442 682 442 Q753 442 793 383 Q834 324 834 216 Q834 106 793 46 Q753 -13 682 -13 ZM682 16 Q736 16 768 69 Q800 123 800 216 Q800 309 768 361 Q736 413 682 413 Q627 413 595 361 Q563 309 563 216 Q563 123 595 69 Q627 16 682 16 Z" /><glyph glyph-name="" unicode="&amp;" d="M250 20 Q337 20 418 103 Q286 224 206 371 Q79 272 79 185 Q79 112 130 65 Q178 20 250 20 ZM177 583 Q177 510 220 419 Q367 529 367 609 Q367 650 349 676 Q327 707 285 707 Q236 707 206 670 Q177 635 177 583 ZM594 -13 Q520 14 443 81 Q352 -13 247 -13 Q161 -13 103 40 Q42 95 42 183 Q42 284 192 399 Q143 500 143 581 Q143 650 183 695 Q223 739 287 739 Q342 739 373 703 Q402 668 402 612 Q402 550 349 491 Q320 459 233 392 Q307 250 440 129 Q516 224 559 377 L595 377 Q548 215 465 107 Q541 45 607 20 L594 -13 Z" /><glyph glyph-name="" unicode="&#39;" d="M92 696 L92 763 L136 763 L136 696 L130 540 L99 540 L92 696 Z" /><glyph glyph-name="" unicode="(" d="M244 -191 Q99 43 99 306 Q99 569 244 804 L265 790 Q132 580 132 306 Q132 31 265 -178 L244 -191 Z" /><glyph glyph-name="" unicode=")" d="M33 -178 Q167 32 167 306 Q167 578 33 790 L55 804 Q200 569 200 306 Q200 43 55 -191 L33 -178 Z" /><glyph glyph-name="" unicode="*" d="M119 541 L178 637 L80 674 L90 702 L191 673 L198 784 L228 784 L235 675 L336 702 L345 674 L248 637 L308 541 L283 524 L214 614 L143 524 L119 541 Z" /><glyph glyph-name="" unicode="+" d="M242 347 L37 347 L37 379 L242 379 L242 604 L279 604 L279 379 L484 379 L484 347 L279 347 L279 123 L242 123 L242 347 Z" /><glyph glyph-name="" unicode="," d="M53 -139 Q132 -95 133 -6 Q129 -7 120 -7 Q79 -7 79 34 Q79 75 120 75 Q169 75 169 5 Q169 -105 66 -166 L53 -139 Z" /><glyph glyph-name="" unicode="-&#x2011;" d="M44 291 L283 291 L283 256 L44 256 L44 291 Z" /><glyph glyph-name="" unicode="." d="M115 -13 Q75 -13 75 30 Q75 75 115 75 Q156 75 156 30 Q156 -13 115 -13 Z" /><glyph glyph-name="" unicode="/" d="M359 782 L393 782 L44 -176 L9 -176 L359 782 Z" /><glyph glyph-name="" unicode="0" d="M261 -13 Q55 -13 55 365 Q55 739 261 739 Q358 739 411 647 Q466 551 466 365 Q466 177 411 80 Q358 -13 261 -13 ZM261 20 Q339 20 383 109 Q429 200 429 365 Q429 528 383 619 Q339 707 261 707 Q183 707 138 619 Q92 528 92 365 Q92 200 138 109 Q183 20 261 20 Z" /><glyph glyph-name="" unicode="1" d="M95 33 L262 33 L262 658 L135 658 L135 684 Q216 697 266 726 L297 726 L297 33 L453 33 L453 0 L95 0 L95 33 Z" /><glyph glyph-name="" unicode="2" d="M46 23 Q397 324 397 535 Q397 610 359 656 Q317 706 238 706 Q143 706 69 613 L44 636 Q136 739 241 739 Q332 739 384 683 Q435 628 435 535 Q435 332 106 28 Q173 33 225 33 L471 33 L471 0 L46 0 L46 23 Z" /><glyph glyph-name="" unicode="3" d="M253 -13 Q128 -13 33 86 L56 112 Q140 20 255 20 Q330 20 378 66 Q426 113 426 189 Q426 364 174 364 L174 399 Q399 399 399 567 Q399 629 359 668 Q318 707 251 708 Q156 705 87 629 L64 655 Q150 739 251 740 Q332 739 384 695 Q438 648 438 569 Q438 429 301 385 L301 381 Q371 367 416 318 Q464 266 464 191 Q464 99 404 42 Q345 -13 253 -13 Z" /><glyph glyph-name="" unicode="4" d="M343 245 L343 544 Q343 605 348 657 L343 657 Q322 618 286 561 L66 245 L343 245 ZM486 213 L378 213 L378 0 L343 0 L343 213 L18 213 L18 232 L353 726 L378 726 L378 245 L486 245 L486 213 Z" /><glyph glyph-name="" unicode="5" d="M247 -13 Q123 -13 29 81 L52 108 Q134 20 249 20 Q323 20 376 78 Q430 138 430 229 Q430 322 381 376 Q333 430 251 430 Q188 430 118 382 L88 400 L114 726 L431 726 L431 693 L147 693 L123 426 Q184 464 254 464 Q349 464 406 408 Q468 347 468 231 Q468 120 399 51 Q335 -13 247 -13 Z" /><glyph glyph-name="" unicode="6" d="M289 20 Q352 20 395 77 Q437 134 437 216 Q437 413 278 413 Q182 413 100 303 Q106 173 151 100 Q200 20 289 20 ZM436 648 Q390 706 316 706 Q220 706 165 627 Q100 535 99 346 Q179 444 280 444 Q374 444 424 386 Q475 327 475 216 Q475 119 419 52 Q364 -13 287 -13 Q181 -13 122 79 Q62 172 62 339 Q62 548 139 651 Q205 739 317 739 Q401 739 460 673 L436 648 Z" /><glyph glyph-name="" unicode="7" d="M210 0 Q227 414 426 693 L48 693 L48 726 L475 726 L475 705 Q352 541 302 372 Q260 229 251 0 L210 0 Z" /><glyph glyph-name="" unicode="8" d="M265 -13 Q169 -13 106 42 Q44 97 44 180 Q44 314 187 392 L187 396 Q86 461 86 559 Q86 635 138 686 Q189 735 265 735 Q352 735 403 681 Q452 629 452 546 Q452 447 352 362 L352 357 Q475 281 475 169 Q475 92 417 40 Q357 -13 265 -13 ZM318 373 Q416 451 416 546 Q416 612 377 656 Q334 703 265 703 Q203 703 163 662 Q123 621 123 559 Q123 488 185 440 Q224 409 318 373 ZM265 20 Q342 20 390 64 Q437 106 437 169 Q437 249 368 301 Q327 331 214 375 Q81 300 81 180 Q81 113 133 67 Q186 20 265 20 Z" /><glyph glyph-name="" unicode="9" d="M243 313 Q340 313 425 428 Q422 556 376 628 Q326 707 234 707 Q171 707 128 650 Q86 593 86 510 Q86 422 123 370 Q164 313 243 313 ZM87 79 Q139 20 217 20 Q304 20 358 100 Q420 193 425 381 Q338 282 240 282 Q149 282 99 341 Q48 401 48 510 Q48 608 104 674 Q158 739 236 739 Q342 739 402 653 Q462 566 462 409 Q462 189 386 80 Q321 -13 214 -13 Q125 -13 64 53 L87 79 Z" /><glyph glyph-name="" unicode=":" d="M115 415 Q75 415 75 458 Q75 503 115 503 Q156 503 156 458 Q156 415 115 415 ZM115 -13 Q75 -13 75 30 Q75 75 115 75 Q156 75 156 30 Q156 -13 115 -13 Z" /><glyph glyph-name="" unicode=";" d="M115 415 Q75 415 75 458 Q75 503 115 503 Q156 503 156 458 Q156 415 115 415 ZM53 -139 Q132 -95 133 -6 Q129 -7 120 -7 Q79 -7 79 34 Q79 75 120 75 Q169 75 169 5 Q169 -105 66 -166 L53 -139 Z" /><glyph glyph-name="" unicode="&gt;" d="M37 203 L446 363 L446 367 L300 425 L37 527 L37 564 L484 386 L484 345 L37 166 L37 203 Z" /><glyph glyph-name="" unicode="@" d="M421 -157 Q260 -157 160 -57 Q57 47 57 222 Q57 429 187 564 Q312 692 488 692 Q644 692 736 598 Q828 504 828 348 Q828 219 763 137 Q704 64 631 64 Q533 64 527 147 L525 147 Q450 70 390 70 Q337 70 303 107 Q266 147 266 218 Q266 306 319 380 Q379 463 470 463 Q529 463 562 410 L564 410 L573 454 L603 454 L565 251 Q527 96 633 96 Q692 96 740 161 Q793 234 793 345 Q793 490 710 575 Q626 660 485 660 Q327 660 212 541 Q91 415 91 224 Q91 65 182 -30 Q273 -124 423 -124 Q522 -124 610 -70 L627 -98 Q532 -157 421 -157 ZM394 102 Q451 102 518 179 L553 374 Q517 430 467 430 Q395 430 346 361 Q301 299 301 220 Q301 102 394 102 Z" /><glyph glyph-name="" unicode="a" d="M422 290 L372 435 Q322 578 289 688 L285 688 Q258 596 201 435 L150 290 L422 290 ZM433 258 L139 258 L48 0 L11 0 L270 726 L303 726 L563 0 L523 0 L433 258 Z" /><glyph glyph-name="" unicode="b" d="M110 726 L300 726 Q537 726 537 550 Q537 426 422 392 L422 387 Q582 362 582 211 Q582 109 509 54 Q439 0 313 0 L110 0 L110 726 ZM278 404 Q498 404 498 548 Q498 626 444 661 Q393 694 285 694 L147 694 L147 404 L278 404 ZM300 33 Q545 33 545 209 Q545 371 300 371 L147 371 L147 33 L300 33 Z" /><glyph glyph-name="" unicode="c" d="M362 -13 Q227 -13 145 90 Q62 194 62 365 Q62 536 146 638 Q229 739 368 739 Q481 739 553 653 L530 628 Q464 704 368 704 Q244 704 172 613 Q101 522 101 365 Q101 208 172 116 Q243 22 364 22 Q469 22 552 114 L575 90 Q486 -13 362 -13 Z" /><glyph glyph-name="" unicode="d" d="M110 726 L273 726 Q437 726 520 627 Q599 534 599 365 Q599 196 521 102 Q436 0 274 0 L110 0 L110 726 ZM268 33 Q416 33 491 127 Q560 213 560 365 Q560 517 491 601 Q416 693 268 693 L147 693 L147 33 L268 33 Z" /><glyph glyph-name="" unicode="e" d="M110 726 L500 726 L500 693 L147 693 L147 404 L443 404 L443 371 L147 371 L147 33 L511 33 L511 0 L110 0 L110 726 Z" /><glyph glyph-name="" unicode="f" d="M110 726 L498 726 L498 693 L147 693 L147 390 L443 390 L443 358 L147 358 L147 0 L110 0 L110 726 Z" /><glyph glyph-name="" unicode="h" d="M110 726 L147 726 L147 404 L551 404 L551 726 L589 726 L589 0 L551 0 L551 371 L147 371 L147 0 L110 0 L110 726 Z" /><glyph glyph-name="" unicode="i" d="M110 726 L147 726 L147 0 L110 0 L110 726 Z" /><glyph glyph-name="" unicode="k" d="M110 726 L147 726 L147 310 L149 310 L516 726 L563 726 L330 460 L594 0 L550 0 L302 431 L147 256 L147 0 L110 0 L110 726 Z" /><glyph glyph-name="" unicode="l" d="M110 726 L147 726 L147 33 L487 33 L487 0 L110 0 L110 726 Z" /><glyph glyph-name="" unicode="m" d="M110 726 L169 726 L324 288 L384 124 L388 124 L445 288 L601 726 L660 726 L660 0 L623 0 L623 502 Q623 574 627 692 L623 692 L567 532 L404 81 L365 81 L201 532 L144 692 L140 692 Q145 594 145 502 L145 0 L110 0 L110 726 Z" /><glyph glyph-name="" unicode="n" d="M110 726 L149 726 L469 197 L552 54 L557 54 Q551 159 551 259 L551 726 L587 726 L587 0 L547 0 L228 529 L145 672 L141 672 Q145 536 145 473 L145 0 L110 0 L110 726 Z" /><glyph glyph-name="" unicode="o" d="M357 -13 Q227 -13 145 90 Q62 195 62 365 Q62 535 145 638 Q226 739 357 739 Q488 739 569 638 Q652 535 652 365 Q652 195 569 90 Q487 -13 357 -13 ZM357 22 Q472 22 542 116 Q613 210 613 365 Q613 520 542 613 Q472 704 357 704 Q242 704 172 613 Q101 520 101 365 Q101 210 172 116 Q242 22 357 22 Z" /><glyph glyph-name="" unicode="p" d="M110 726 L285 726 Q545 726 545 528 Q545 320 289 320 L147 320 L147 0 L110 0 L110 726 ZM276 353 Q394 353 449 394 Q505 435 505 528 Q505 620 447 658 Q394 693 272 693 L147 693 L147 353 L276 353 Z" /><glyph glyph-name="" unicode="q" d="M101 365 Q101 209 172 115 Q242 20 357 20 Q472 20 542 115 Q613 209 613 365 Q613 520 542 613 Q472 704 357 704 Q242 704 172 613 Q101 520 101 365 ZM651 -156 Q615 -168 566 -168 Q394 -168 334 -12 Q213 -3 138 99 Q62 202 62 365 Q62 535 145 638 Q226 739 357 739 Q488 739 569 638 Q652 535 652 365 Q652 202 575 98 Q499 -4 377 -12 Q427 -131 570 -131 Q611 -131 642 -122 L651 -156 Z" /><glyph glyph-name="" unicode="s" d="M295 -13 Q148 -13 53 97 L78 123 Q164 22 295 22 Q381 22 434 65 Q485 107 485 176 Q485 241 445 280 Q420 305 351 336 L240 386 Q92 452 92 564 Q92 642 151 691 Q209 739 298 739 Q417 739 496 653 L473 628 Q402 704 298 704 Q222 704 176 667 Q130 629 130 568 Q130 478 257 421 L368 371 Q443 337 476 303 Q522 255 522 179 Q522 95 460 41 Q397 -13 295 -13 Z" /><glyph glyph-name="" unicode="t" d="M267 693 L33 693 L33 726 L540 726 L540 693 L306 693 L306 0 L267 0 L267 693 Z" /><glyph glyph-name="" unicode="u" d="M346 -13 Q108 -13 108 272 L108 726 L145 726 L145 280 Q145 22 346 22 Q551 22 551 280 L551 726 L587 726 L587 272 Q587 117 511 45 Q449 -13 346 -13 Z" /><glyph glyph-name="" unicode="v" d="M7 726 L46 726 L186 292 Q239 122 265 47 L269 47 Q283 87 349 292 L488 726 L526 726 L286 0 L248 0 L7 726 Z" /><glyph glyph-name="" unicode="w" d="M33 726 L72 726 L195 169 Q213 83 221 50 L225 50 Q243 130 283 288 L400 726 L442 726 L560 288 L619 50 L624 50 Q641 130 673 288 L770 726 L807 726 L641 0 L602 0 L463 518 Q463 520 423 681 L419 681 Q413 653 398 600 L240 0 L201 0 L33 726 Z" /><glyph glyph-name="" unicode="y" d="M222 298 L4 726 L44 726 L159 493 Q227 356 239 335 L243 335 Q300 440 324 493 L440 726 L477 726 L259 298 L259 0 L222 0 L222 298 Z" /><glyph glyph-name="" unicode="[" d="M110 780 L278 780 L278 754 L138 754 L138 -142 L278 -142 L278 -167 L110 -167 L110 780 Z" /><glyph glyph-name="" unicode="]" d="M21 -142 L161 -142 L161 754 L21 754 L21 780 L189 780 L189 -167 L21 -167 L21 -142 Z" /><glyph glyph-name="" unicode="a" d="M218 -13 Q152 -13 111 21 Q66 59 66 130 Q66 216 149 263 Q229 308 410 329 Q416 507 282 507 Q191 507 110 443 L92 472 Q186 540 284 540 Q446 540 446 341 L446 0 L416 0 L411 70 L408 70 Q306 -13 218 -13 ZM221 20 Q306 20 410 109 L410 298 Q243 280 171 239 Q103 200 103 131 Q103 20 221 20 Z" /><glyph glyph-name="" unicode="b" d="M302 -13 Q224 -13 143 53 L140 53 L135 0 L105 0 L105 794 L141 794 L141 560 L138 454 Q241 540 324 540 Q429 540 484 467 Q536 397 536 271 Q536 141 466 62 Q400 -13 302 -13 ZM305 20 Q389 20 444 90 Q498 161 498 271 Q498 507 321 507 Q243 507 141 416 L141 91 Q223 20 305 20 Z" /><glyph glyph-name="" unicode="c" d="M295 -13 Q192 -13 127 59 Q59 135 59 262 Q59 390 130 467 Q196 540 296 540 Q380 540 450 474 L427 448 Q364 507 296 507 Q212 507 155 439 Q97 369 97 262 Q97 154 152 87 Q206 20 296 20 Q375 20 442 83 L463 57 Q384 -13 295 -13 Z" /><glyph glyph-name="" unicode="d" d="M277 -13 Q176 -13 119 58 Q59 131 59 262 Q59 386 129 465 Q196 540 295 540 Q372 540 457 474 L454 573 L454 794 L490 794 L490 0 L460 0 L455 70 L453 70 Q370 -13 277 -13 ZM280 20 Q363 20 454 111 L454 435 Q374 507 293 507 Q210 507 153 436 Q97 364 97 262 Q97 152 145 87 Q194 20 280 20 Z" /><glyph glyph-name="" unicode="e" d="M300 -13 Q197 -13 130 60 Q59 136 59 262 Q59 386 129 466 Q194 540 286 540 Q379 540 431 477 Q485 413 485 297 Q485 274 483 261 L97 261 Q97 156 153 88 Q210 20 302 20 Q381 20 447 68 L463 37 Q380 -13 300 -13 ZM450 294 Q450 399 405 454 Q362 507 286 507 Q213 507 160 450 Q105 391 97 294 L450 294 Z" /><glyph glyph-name="" unicode="f" d="M295 759 Q263 775 231 775 Q145 775 145 650 L145 527 L270 527 L270 494 L145 494 L145 0 L110 0 L110 494 L37 494 L37 522 L110 527 L110 655 Q110 807 232 807 Q267 807 306 790 L295 759 Z" /><glyph glyph-name="" unicode="g" d="M275 -257 Q175 -257 117 -216 Q59 -177 59 -110 Q59 -37 139 20 L139 24 Q92 52 92 108 Q92 165 150 205 L150 209 Q83 268 83 354 Q83 434 136 487 Q188 540 264 540 Q301 540 333 527 L509 527 L509 494 L383 494 Q445 442 445 354 Q445 275 393 221 Q340 167 264 167 Q213 167 175 191 Q129 155 129 111 Q129 38 232 38 L349 38 Q518 38 518 -80 Q518 -150 452 -202 Q382 -257 275 -257 ZM264 200 Q323 200 365 243 Q408 287 408 354 Q408 423 366 466 Q325 507 264 507 Q204 507 163 466 Q121 423 121 354 Q121 287 164 243 Q205 200 264 200 ZM277 -225 Q367 -225 426 -180 Q481 -139 481 -84 Q481 2 354 2 L234 2 Q207 2 170 11 Q97 -38 97 -107 Q97 -160 144 -192 Q192 -225 277 -225 Z" /><glyph glyph-name="" unicode="h" d="M105 794 L141 794 L141 441 Q238 540 325 540 Q484 540 484 339 L484 0 L448 0 L448 334 Q448 507 321 507 Q242 507 141 403 L141 0 L105 0 L105 794 Z" /><glyph glyph-name="" unicode="i" d="M105 527 L141 527 L141 0 L105 0 L105 527 ZM124 660 Q86 660 86 698 Q86 737 124 737 Q163 737 163 698 Q163 660 124 660 Z" /><glyph glyph-name="" unicode="j" d="M31 -256 Q-5 -256 -33 -243 L-24 -214 Q12 -225 33 -225 Q75 -225 92 -191 Q105 -164 105 -106 L105 527 L141 527 L141 -110 Q141 -256 31 -256 ZM124 660 Q86 660 86 698 Q86 737 124 737 Q163 737 163 698 Q163 660 124 660 Z" /><glyph glyph-name="" unicode="k" d="M105 794 L141 794 L141 194 L143 194 L414 527 L456 527 L286 319 L486 0 L447 0 L265 292 L141 145 L141 0 L105 0 L105 794 Z" /><glyph glyph-name="" unicode="l" d="M159 -13 Q105 -13 105 59 L105 794 L141 794 L141 53 Q141 20 163 20 Q171 20 182 22 L189 -9 Q171 -13 159 -13 Z" /><glyph glyph-name="" unicode="m" d="M105 527 L135 527 L141 443 L143 443 Q228 540 310 540 Q427 540 455 430 Q555 540 636 540 Q792 540 792 339 L792 0 L757 0 L757 334 Q757 507 632 507 Q559 507 466 403 L466 0 L431 0 L431 334 Q431 507 307 507 Q231 507 141 403 L141 0 L105 0 L105 527 Z" /><glyph glyph-name="" unicode="n" d="M105 527 L135 527 L141 443 L143 443 Q238 540 325 540 Q484 540 484 339 L484 0 L448 0 L448 334 Q448 507 321 507 Q242 507 141 403 L141 0 L105 0 L105 527 Z" /><glyph glyph-name="" unicode="o" d="M293 -13 Q194 -13 129 59 Q59 136 59 262 Q59 390 129 467 Q194 540 293 540 Q392 540 457 467 Q527 390 527 262 Q527 136 457 59 Q392 -13 293 -13 ZM293 20 Q378 20 434 87 Q490 155 490 262 Q490 370 434 439 Q378 507 293 507 Q208 507 153 439 Q97 370 97 262 Q97 155 153 87 Q208 20 293 20 Z" /><glyph glyph-name="" unicode="p" d="M141 91 Q226 20 305 20 Q389 20 444 90 Q498 161 498 271 Q498 507 321 507 Q246 507 141 416 L141 91 ZM105 527 L135 527 L141 459 L143 459 Q246 540 324 540 Q429 540 484 467 Q536 397 536 271 Q536 141 466 62 Q400 -13 302 -13 Q229 -13 141 53 L141 -243 L105 -243 L105 527 Z" /><glyph glyph-name="" unicode="q" d="M454 -35 L457 73 Q367 -13 277 -13 Q176 -13 119 58 Q59 131 59 262 Q59 386 129 465 Q196 540 295 540 Q371 540 453 478 L455 478 L460 527 L490 527 L490 -243 L454 -243 L454 -35 ZM280 20 Q363 20 454 111 L454 435 Q374 507 293 507 Q210 507 153 436 Q97 364 97 262 Q97 152 145 87 Q194 20 280 20 Z" /><glyph glyph-name="" unicode="r" d="M105 527 L135 527 L141 428 L143 428 Q204 540 292 540 Q321 540 343 529 L334 496 Q312 505 287 505 Q197 505 141 364 L141 0 L105 0 L105 527 Z" /><glyph glyph-name="" unicode="s" d="M229 -13 Q124 -13 37 59 L60 88 Q139 20 231 20 Q294 20 331 53 Q364 83 364 131 Q364 206 232 253 Q148 284 117 305 Q62 343 62 403 Q62 461 104 499 Q150 540 228 540 Q310 540 374 486 L353 459 Q288 507 225 507 Q164 507 129 476 Q99 448 99 405 Q99 363 139 335 Q162 318 226 294 Q318 259 345 240 Q401 201 401 133 Q401 72 357 31 Q309 -13 229 -13 Z" /><glyph glyph-name="" unicode="t" d="M241 -13 Q172 -13 142 29 Q117 65 117 140 L117 494 L33 494 L33 522 L117 527 L121 681 L152 681 L152 527 L308 527 L308 494 L152 494 L152 135 Q152 78 169 52 Q190 20 244 20 Q275 20 311 37 L323 7 Q267 -13 241 -13 Z" /><glyph glyph-name="" unicode="u" d="M255 -13 Q96 -13 96 188 L96 527 L132 527 L132 192 Q132 20 258 20 Q343 20 437 133 L437 527 L473 527 L473 0 L442 0 L438 90 L436 90 Q347 -13 255 -13 Z" /><glyph glyph-name="" unicode="v" d="M13 527 L53 527 L177 187 Q211 91 232 37 L236 37 Q270 123 291 187 L416 527 L453 527 L256 0 L213 0 L13 527 Z" /><glyph glyph-name="" unicode="w" d="M26 527 L66 527 L167 174 L203 35 L208 35 L348 527 L396 527 L497 174 Q513 115 537 35 L541 35 L678 527 L716 527 L562 0 L513 0 L415 341 Q406 369 394 416 L373 491 L368 491 Q343 393 325 339 L229 0 L185 0 L26 527 Z" /><glyph glyph-name="" unicode="x" d="M196 275 L31 527 L71 527 L160 387 L218 300 L222 300 Q267 371 278 387 L365 527 L403 527 L238 273 L419 0 L378 0 L280 151 Q255 195 217 248 L212 248 Q200 231 149 151 L54 0 L15 0 L196 275 Z" /><glyph glyph-name="" unicode="y" d="M74 -244 Q43 -244 23 -233 L32 -200 Q52 -209 76 -209 Q165 -209 216 -61 L231 -12 L13 527 L53 527 L186 183 Q217 100 245 35 L250 35 Q259 59 300 183 L418 527 L455 527 L245 -74 Q189 -244 74 -244 Z" /><glyph glyph-name="" unicode="z" d="M29 19 L351 494 L64 494 L64 527 L398 527 L398 507 L76 33 L409 33 L409 0 L29 0 L29 19 Z" /><glyph glyph-name="" unicode="{" d="M244 -167 Q181 -167 155 -139 Q125 -108 125 -29 Q125 13 130 88 Q134 164 134 202 Q134 293 40 293 L40 320 Q134 320 134 408 Q134 447 130 523 Q125 599 125 640 Q125 719 155 751 Q182 780 244 780 L278 780 L278 754 L243 754 Q193 754 174 725 Q156 698 156 636 Q156 601 160 532 Q163 463 163 421 Q163 324 109 308 L109 304 Q163 286 163 191 Q163 149 160 80 Q156 11 156 -24 Q156 -86 174 -112 Q193 -142 243 -142 L278 -142 L278 -167 L244 -167 Z" /><glyph glyph-name="" unicode="}" d="M21 -142 L55 -142 Q105 -142 125 -112 Q143 -86 143 -24 Q143 11 140 80 Q136 149 136 191 Q136 286 189 304 L189 308 Q136 324 136 421 Q136 463 140 532 Q143 601 143 636 Q143 698 125 725 Q105 754 55 754 L21 754 L21 780 L54 780 Q117 780 144 751 Q174 719 174 640 Q174 599 170 523 Q165 447 165 408 Q165 320 259 320 L259 293 Q165 293 165 202 Q165 164 170 88 Q174 13 174 -29 Q174 -108 144 -139 Q117 -167 54 -167 L21 -167 L21 -142 Z" /><glyph glyph-name="" unicode="~" d="M360 297 Q316 297 252 347 Q189 397 159 397 Q107 397 71 327 L46 341 Q89 430 162 430 Q206 430 269 380 Q332 329 362 329 Q414 329 450 399 L475 383 Q430 297 360 297 Z" /><glyph glyph-name="" unicode="°" d="M168 498 Q119 498 84 532 Q46 568 46 625 Q46 683 84 719 Q119 753 168 753 Q217 753 252 719 Q290 683 290 625 Q290 568 252 532 Q217 498 168 498 ZM168 528 Q207 528 233 556 Q258 583 258 625 Q258 668 233 696 Q208 724 168 724 Q128 724 103 696 Q78 668 78 625 Q78 583 103 556 Q129 528 168 528 Z" /><glyph glyph-name="" unicode="&#x3001;" d="M291 -43 Q185 88 64 182 L89 206 Q198 119 320 -19 L291 -43 Z" /><glyph glyph-name="" unicode="&#x3002;" d="M195 240 Q254 240 296 198 Q338 156 338 97 Q338 38 296 -4 Q254 -46 195 -46 Q136 -46 94 -4 Q52 38 52 97 Q52 156 94 198 Q136 240 195 240 ZM195 -16 Q242 -16 275 17 Q308 50 308 97 Q308 144 275 177 Q242 210 195 210 Q149 210 115 177 Q82 144 82 97 Q82 50 115 17 Q148 -16 195 -16 Z" /><glyph glyph-name="" unicode="&#x300a;" d="M812 -70 L787 -80 L541 380 L787 840 L812 830 L571 380 L812 -70 ZM955 -70 L930 -80 L684 380 L930 840 L955 830 L714 380 L955 -70 Z" /><glyph glyph-name="" unicode="&#x300b;" d="M188 -70 L429 380 L188 830 L213 840 L459 380 L213 -80 L188 -70 ZM45 -70 L286 380 L45 830 L70 840 L316 380 L70 -80 L45 -70 Z" /><glyph glyph-name="" unicode="&#x2f00;&#x4e00;" d="M955 407 L955 374 L50 374 L50 407 L955 407 Z" /><glyph glyph-name="" unicode="&#x4e09;" d="M877 732 L877 703 L127 703 L127 732 L877 732 ZM800 400 L800 371 L186 371 L186 400 L800 400 ZM933 44 L933 15 L68 15 L68 44 L933 44 Z" /><glyph glyph-name="" unicode="&#x4e0a;" d="M942 5 L942 -24 L59 -24 L59 5 L451 5 L451 813 L480 813 L480 483 L875 483 L875 454 L480 454 L480 5 L942 5 Z" /><glyph glyph-name="" unicode="&#x4e0b;" d="M496 726 L496 526 L503 534 Q717 432 876 319 L859 293 Q708 403 496 509 L496 -70 L467 -70 L467 726 L59 726 L59 756 L942 756 L942 726 L496 726 Z" /><glyph glyph-name="" unicode="&#x4e0d;&#xf967;" d="M597 727 Q565 669 513 599 L513 -70 L484 -70 L484 561 Q309 348 75 222 L56 245 Q392 423 563 727 L74 727 L74 756 L926 756 L926 727 L597 727 ZM590 527 Q818 395 945 268 L926 246 Q789 379 571 508 L590 527 Z" /><glyph glyph-name="" unicode="&#x4e0e;" d="M689 185 L66 185 L66 214 L689 214 L689 185 ZM868 421 Q867 407 866 402 Q824 17 762 -39 Q739 -59 692 -60 Q616 -60 521 -52 Q519 -34 511 -24 Q600 -32 688 -32 Q726 -32 738 -21 Q794 27 836 392 L173 392 Q219 546 273 802 L301 798 L275 675 L864 675 L864 646 L268 646 Q234 502 212 421 L868 421 Z" /><glyph glyph-name="" unicode="&#x4e13;" d="M364 487 Q328 389 311 346 L789 346 L794 349 L816 334 L526 52 Q646 -1 710 -43 L689 -67 Q529 37 269 124 L289 145 Q403 107 496 66 Q629 187 757 317 L267 317 Q283 353 335 487 L63 487 L63 516 L345 516 Q378 602 400 669 L141 669 L141 698 L411 698 L454 827 L485 827 L440 698 L843 698 L843 669 L430 669 L375 516 L915 516 L915 487 L364 487 Z" /><glyph glyph-name="" unicode="&#x4e14;" d="M253 4 L752 4 L752 228 L253 228 L253 4 ZM253 738 L253 516 L752 516 L752 738 L253 738 ZM752 487 L253 487 L253 257 L752 257 L752 487 ZM942 4 L942 -25 L59 -25 L59 4 L224 4 L224 767 L781 767 L781 4 L942 4 Z" /><glyph glyph-name="" unicode="&#x4e16;" d="M504 541 L504 235 L749 235 L749 541 L504 541 ZM475 206 L475 541 L246 541 L246 35 L913 35 L913 6 L214 6 L214 541 L58 541 L58 570 L214 570 L214 805 L246 805 L246 570 L475 570 L475 829 L504 829 L504 570 L749 570 L749 816 L778 816 L778 570 L945 570 L945 541 L778 541 L778 206 L475 206 Z" /><glyph glyph-name="" unicode="&#x4e1a;" d="M902 565 Q806 367 717 236 L693 250 Q797 406 874 578 L902 565 ZM253 246 Q207 387 101 573 L129 581 Q225 416 284 259 L253 246 ZM934 15 L934 -14 L69 -14 L69 15 L370 15 L370 819 L399 819 L399 15 L604 15 L604 816 L633 816 L633 15 L934 15 Z" /><glyph glyph-name="" unicode="&#x4e1c;" d="M311 254 Q234 95 111 -18 Q96 -3 86 2 Q211 109 283 262 L311 254 ZM556 360 L556 -9 Q556 -45 527 -55 Q504 -61 390 -61 Q385 -44 376 -29 Q482 -31 508 -29 Q527 -28 527 -9 L527 360 L289 360 Q208 360 190 347 Q184 370 178 380 Q196 384 246 462 Q304 556 359 663 L85 663 L85 692 L374 692 Q405 756 436 832 L461 812 Q445 772 407 692 L901 692 L901 663 L393 663 Q314 502 233 389 L527 389 L527 555 L556 555 L556 389 L863 389 L863 360 L556 360 ZM691 264 Q841 128 920 8 L895 -10 Q821 108 669 249 L691 264 Z" /><glyph glyph-name="" unicode="&#x4e24;" d="M611 549 Q612 572 612 612 L612 726 L379 726 L379 612 Q379 572 378 549 L611 549 ZM641 612 Q641 572 640 549 L892 549 L892 -14 Q892 -57 857 -65 Q830 -71 679 -71 Q675 -58 666 -38 Q779 -42 838 -39 Q863 -38 863 -14 L863 520 L638 520 Q635 464 625 411 Q749 265 814 139 L792 118 Q737 227 619 378 Q581 211 467 93 Q461 104 445 114 Q594 261 610 520 L376 520 Q373 462 363 411 Q444 305 480 229 L459 205 Q426 278 357 376 Q316 207 206 93 Q197 105 183 114 Q332 261 348 520 L141 520 L141 -72 L112 -72 L112 549 L349 549 Q350 572 350 612 L350 726 L63 726 L63 755 L937 755 L937 726 L641 726 L641 612 Z" /><glyph glyph-name="" unicode="&#x4e2a;" d="M485 564 L514 564 L514 -71 L485 -71 L485 564 ZM538 819 Q531 806 515 782 Q653 568 955 406 Q943 400 933 384 Q641 547 500 759 Q327 516 69 386 Q56 401 47 406 Q348 556 513 831 L538 819 Z" /><glyph glyph-name="" unicode="&#x4e2d;" d="M861 300 L861 617 L512 617 L512 300 L861 300 ZM483 300 L483 617 L134 617 L134 300 L483 300 ZM890 646 L890 207 L861 207 L861 271 L512 271 L512 -69 L483 -69 L483 271 L134 271 L134 202 L105 202 L105 646 L483 646 L483 830 L512 830 L512 646 L890 646 Z" /><glyph glyph-name="" unicode="&#x4e38;" d="M881 -25 Q904 -25 911 9 Q918 41 920 157 Q934 147 949 143 Q946 22 935 -13 Q922 -54 881 -54 L770 -54 Q731 -54 718 -41 Q704 -28 704 12 L704 581 L421 581 Q411 423 379 313 Q504 228 574 158 L551 136 Q480 208 369 284 Q289 35 68 -74 Q62 -66 43 -52 Q265 52 344 303 Q239 374 143 422 L165 442 Q250 397 353 331 Q382 435 392 581 L90 581 L90 610 L394 610 Q398 684 398 827 L427 827 Q427 703 422 610 L733 610 L733 11 Q733 -11 740 -18 Q747 -25 770 -25 L881 -25 Z" /><glyph glyph-name="" unicode="&#x4e3a;" d="M305 637 Q264 708 188 786 L212 800 Q292 718 329 654 L305 637 ZM887 562 Q865 18 815 -36 Q793 -60 749 -61 Q677 -61 590 -54 Q588 -37 580 -25 Q653 -32 744 -32 Q776 -33 788 -19 Q834 26 857 554 L458 554 Q419 164 82 -61 Q74 -50 60 -41 Q388 181 429 554 L90 554 L90 583 L432 583 Q437 647 437 727 L437 829 L466 829 L466 727 Q466 647 461 583 L887 583 L887 562 ZM672 182 Q622 274 514 387 L538 401 Q643 295 697 200 L672 182 Z" /><glyph glyph-name="" unicode="&#x4e3b;" d="M579 634 Q517 716 403 806 L425 821 Q538 735 602 650 L579 634 ZM944 -5 L944 -34 L62 -34 L62 -5 L485 -5 L485 294 L151 294 L151 323 L485 323 L485 590 L112 590 L112 619 L892 619 L892 590 L514 590 L514 323 L857 323 L857 294 L514 294 L514 -5 L944 -5 Z" /><glyph glyph-name="" unicode="&#x4e4b;" d="M541 649 Q508 725 437 817 L462 828 Q535 733 567 663 L541 649 ZM833 607 Q622 291 266 88 L323 46 Q396 -1 579 -1 Q758 -1 952 13 Q944 -3 942 -22 Q788 -32 579 -32 Q388 -32 308 20 Q224 79 219 79 Q177 79 82 -40 L57 -15 Q166 108 219 108 Q229 108 237 104 Q570 286 783 590 L109 590 L109 619 L805 619 L812 622 L833 607 Z" /><glyph glyph-name="" unicode="&#x4e54;" d="M322 384 L351 384 L351 259 Q351 151 315 85 Q265 -7 131 -67 Q124 -55 110 -45 Q240 11 288 99 Q322 160 322 259 L322 384 ZM639 382 L668 382 L668 -68 L639 -68 L639 382 ZM609 539 Q727 357 962 286 Q951 278 941 262 Q696 344 576 539 L408 539 Q292 355 63 254 Q51 272 44 279 Q261 367 374 539 L60 539 L60 568 L392 568 Q436 644 464 734 Q274 720 130 715 Q130 727 122 741 Q618 762 809 808 L835 783 Q717 757 496 737 Q467 641 425 568 L942 568 L942 539 L609 539 Z" /><glyph glyph-name="" unicode="&#x4e58;" d="M63 262 Q138 274 314 311 L314 432 L92 432 L92 461 L314 461 L314 547 L343 547 L343 225 L314 225 L314 284 L76 233 L63 262 ZM513 343 Q578 229 700 130 Q824 30 954 -12 Q942 -24 934 -37 Q672 55 513 298 L513 -70 L484 -70 L484 293 Q328 56 66 -31 Q55 -14 45 -6 Q176 33 298 130 Q417 224 484 338 L484 582 L67 582 L67 611 L484 611 L484 742 Q309 728 143 722 Q142 732 135 748 Q620 769 814 819 L830 792 Q718 765 513 745 L513 611 L932 611 L932 582 L513 582 L513 343 ZM683 547 L683 422 Q806 470 861 500 L884 476 Q805 434 683 393 L683 269 Q683 255 691 250 Q698 246 725 246 L861 246 Q882 246 888 261 Q895 277 896 336 Q907 327 925 323 Q922 258 911 238 Q899 217 864 217 L726 217 Q682 217 669 227 Q654 237 654 270 L654 547 L683 547 Z" /><glyph glyph-name="" unicode="&#x4e5f;" d="M789 -21 Q860 -21 884 19 Q905 55 914 176 Q929 167 944 162 Q934 34 908 -4 Q876 -50 782 -50 L393 -50 Q300 -50 268 -26 Q233 -1 233 73 L233 435 L47 379 L38 404 L233 463 L233 763 L262 763 L262 472 L523 551 L523 829 L552 829 L552 560 L831 645 L843 655 L864 645 L861 637 Q856 343 825 263 Q802 203 747 201 Q669 201 636 203 Q634 217 626 232 Q668 229 741 229 Q783 229 801 279 Q828 351 831 616 L552 532 L552 132 L523 132 L523 523 L262 445 L262 70 Q262 17 287 -1 Q313 -21 387 -21 L789 -21 Z" /><glyph glyph-name="" unicode="&#x4e60;" d="M730 281 Q531 213 129 80 L117 110 L725 310 L730 281 ZM264 599 Q434 492 547 388 L526 363 Q427 460 243 580 L264 599 ZM870 720 Q860 13 820 -37 Q800 -65 758 -66 Q706 -68 618 -61 Q616 -41 609 -32 Q673 -37 755 -37 Q780 -38 793 -22 Q831 24 842 715 L131 715 L131 743 L870 743 L870 720 Z" /><glyph glyph-name="" unicode="&#x4e86;" d="M873 730 Q737 581 516 470 L516 -14 Q516 -56 478 -64 Q450 -70 281 -70 Q279 -63 268 -40 Q410 -44 460 -40 Q487 -39 487 -15 L487 485 Q679 575 816 714 L100 714 L100 743 L843 743 L850 745 L873 730 Z" /><glyph glyph-name="" unicode="&#x4e8e;" d="M941 390 L522 390 L522 -6 Q522 -51 482 -60 Q453 -67 292 -65 Q289 -57 278 -35 Q405 -38 464 -35 Q493 -34 493 -7 L493 390 L59 390 L59 419 L493 419 L493 722 L129 722 L129 751 L871 751 L871 722 L522 722 L522 419 L941 419 L941 390 Z" /><glyph glyph-name="" unicode="&#x4e92;" d="M687 229 Q713 452 718 504 L307 504 Q273 314 255 229 L687 229 ZM942 5 L942 -24 L59 -24 L59 5 L656 5 Q666 68 683 200 L217 200 Q266 402 313 726 L95 726 L95 755 L911 755 L911 726 L345 726 L312 533 L723 533 L729 536 L749 532 Q717 221 687 5 L942 5 Z" /><glyph glyph-name="" unicode="&#x4ea4;" d="M509 701 Q488 756 435 827 L461 837 Q512 773 537 713 L509 701 ZM922 651 L74 651 L74 680 L922 680 L922 651 ZM662 593 Q832 479 923 372 L899 352 Q810 463 640 577 L662 593 ZM367 586 Q270 463 111 354 Q96 373 88 379 Q242 475 340 597 L367 586 ZM700 422 Q643 263 527 152 Q695 10 955 -34 Q943 -46 934 -62 Q672 -12 504 132 Q349 -3 69 -75 Q65 -64 49 -46 Q324 15 482 151 Q366 261 305 415 L332 426 Q391 276 504 172 Q613 274 670 431 L700 422 Z" /><glyph glyph-name="" unicode="&#x4ea7;" d="M890 663 L118 663 L118 692 L528 692 Q501 754 448 816 L473 828 Q527 766 556 704 L533 692 L890 692 L890 663 ZM372 479 Q339 553 281 629 L305 637 Q370 553 397 490 L372 479 ZM921 425 L168 425 L168 319 Q168 67 70 -74 Q58 -60 47 -55 Q139 78 139 320 L139 454 L615 454 Q669 540 706 636 L734 624 Q687 521 644 454 L921 454 L921 425 Z" /><glyph glyph-name="" unicode="&#x4eac;" d="M289 193 Q209 63 86 -31 Q73 -18 64 -14 Q195 88 259 202 L289 193 ZM233 309 L779 309 L779 522 L233 522 L233 309 ZM516 280 L516 -22 Q516 -58 484 -66 Q457 -73 309 -71 Q305 -60 296 -44 Q412 -47 463 -44 Q487 -43 487 -23 L487 280 L204 280 L204 551 L808 551 L808 280 L516 280 ZM728 201 Q848 86 928 -18 L903 -37 Q827 71 704 187 L728 201 ZM932 694 L932 665 L72 665 L72 694 L506 694 Q473 765 426 826 L453 835 Q509 762 540 694 L932 694 Z" /><glyph glyph-name="" unicode="&#x2f08;&#x4eba;" d="M523 825 Q520 732 517 690 Q603 116 953 -40 Q940 -48 932 -63 Q600 89 505 594 Q432 106 78 -65 Q72 -55 57 -44 Q483 158 493 825 L523 825 Z" /><glyph glyph-name="" unicode="&#x4ecb;" d="M299 453 L328 453 L328 309 Q328 185 291 108 Q240 -1 101 -73 Q94 -61 80 -51 Q214 17 264 121 Q299 193 299 309 L299 453 ZM673 454 L702 454 L702 -75 L673 -75 L673 454 ZM527 816 Q530 822 514 794 Q586 686 714 587 Q842 486 967 442 Q956 433 945 416 Q672 522 499 771 Q335 516 61 406 Q52 424 43 433 Q181 484 309 595 Q436 705 503 831 L527 816 Z" /><glyph glyph-name="" unicode="&#x4ece;" d="M472 161 Q416 281 287 458 Q238 106 84 -73 Q74 -63 58 -53 Q175 74 229 301 Q271 478 289 799 L319 797 Q307 616 293 498 Q437 309 495 181 L472 161 ZM699 799 Q681 585 659 467 Q733 100 942 -41 Q930 -51 922 -64 Q727 78 647 404 Q578 90 395 -67 Q383 -55 369 -48 Q519 74 588 295 Q645 474 669 801 L699 799 Z" /><glyph glyph-name="" unicode="&#x4ed3;" d="M719 -10 Q777 -10 794 22 Q811 51 817 158 Q832 148 847 145 Q839 31 818 -2 Q793 -39 716 -39 L387 -39 Q305 -39 278 -23 Q249 -6 249 47 L249 472 L753 472 L752 454 Q740 220 716 193 Q700 177 664 176 Q614 174 532 180 Q530 195 524 209 Q583 203 657 203 Q685 203 693 211 Q712 233 723 443 L278 443 L278 46 Q278 13 298 2 Q318 -10 382 -10 L719 -10 ZM542 816 L519 782 Q669 586 960 435 Q949 428 938 413 Q663 560 503 761 Q324 526 65 400 Q47 418 42 421 Q346 566 517 829 L542 816 Z" /><glyph glyph-name="" unicode="&#x4ed6;" d="M319 818 Q269 695 209 598 L209 -69 L180 -69 L180 552 Q117 455 45 381 Q36 395 23 404 Q194 569 291 826 L319 818 ZM838 -31 Q885 -31 901 0 Q915 27 921 122 Q938 111 951 108 Q944 7 925 -23 Q903 -59 834 -59 L531 -59 Q457 -59 431 -40 Q404 -19 404 42 L404 418 L284 371 L273 399 L404 450 L404 742 L433 742 L433 461 L632 538 L632 830 L661 830 L661 549 L872 630 L883 642 L904 631 L902 624 Q902 283 886 224 Q872 173 823 171 Q777 169 732 171 Q729 185 721 200 Q738 199 813 199 Q847 199 857 236 Q873 287 873 599 L661 517 L661 138 L632 138 L632 506 L433 429 L433 41 Q433 -1 451 -16 Q470 -31 526 -31 L838 -31 Z" /><glyph glyph-name="" unicode="&#x4ed8;" d="M351 815 Q300 686 234 581 L234 -69 L205 -69 L205 535 Q139 437 72 369 Q60 384 49 393 Q222 557 322 822 L351 815 ZM940 572 L798 572 L798 -11 Q798 -59 756 -68 Q724 -75 560 -73 Q556 -61 546 -42 Q669 -46 739 -43 Q769 -40 769 -12 L769 572 L339 572 L339 601 L769 601 L769 818 L798 818 L798 601 L940 601 L940 572 ZM582 160 Q521 274 420 420 L444 433 Q550 282 608 178 L582 160 Z" /><glyph glyph-name="" unicode="&#x4ee3;" d="M900 616 Q829 694 713 779 L732 795 Q846 715 921 634 L900 616 ZM369 809 Q317 691 247 590 L247 -70 L218 -70 L218 549 Q145 449 53 368 Q43 383 32 391 Q231 556 341 817 L369 809 ZM624 490 Q693 -28 880 -40 Q927 -41 947 148 Q959 140 973 136 Q949 -75 880 -72 Q666 -61 597 486 L312 453 L308 480 L593 514 Q578 655 569 817 L598 817 Q605 663 621 518 L939 555 L944 527 L624 490 Z" /><glyph glyph-name="" unicode="&#x4ee4;" d="M826 351 Q678 199 533 57 Q612 -10 651 -52 L628 -74 Q515 50 330 173 L353 191 Q413 152 509 75 Q676 237 768 334 L177 334 L177 363 L798 363 L804 366 L826 351 ZM574 422 Q521 500 410 584 L433 599 Q540 519 598 439 L574 422 ZM540 816 Q524 794 516 784 Q694 571 960 458 Q949 449 938 433 Q675 553 499 762 Q322 549 69 433 Q55 447 47 453 Q342 585 514 828 L540 816 Z" /><glyph glyph-name="" unicode="&#x4ee5;" d="M548 493 Q496 607 390 734 L415 746 Q526 612 574 507 L548 493 ZM480 230 L489 204 Q172 67 149 46 Q142 60 130 74 Q177 99 177 142 L177 743 L206 743 L206 111 L480 230 ZM812 793 Q786 399 698 221 Q864 78 952 -52 L926 -70 Q844 54 685 196 Q587 17 360 -79 Q350 -62 339 -54 Q582 40 678 245 Q758 417 781 795 L812 793 Z" /><glyph glyph-name="" unicode="&#x4eea;" d="M675 575 Q630 677 547 789 L573 802 Q659 687 701 592 L675 575 ZM320 819 Q273 702 209 597 L209 -69 L180 -69 L180 550 Q115 452 45 381 Q34 398 23 404 Q194 568 291 827 L320 819 ZM893 769 Q819 367 643 167 Q765 20 954 -47 Q939 -58 931 -73 Q747 -4 623 144 Q490 7 284 -73 Q281 -67 266 -49 Q473 28 604 167 Q445 369 375 753 L404 758 Q469 392 625 190 Q793 385 863 776 L893 769 Z" /><glyph glyph-name="" unicode="&#x4eec;" d="M277 814 Q244 705 200 600 L200 -71 L171 -71 L171 536 Q129 449 71 368 Q57 384 48 391 Q172 549 248 821 L277 814 ZM361 647 L390 647 L390 -72 L361 -72 L361 647 ZM427 827 Q504 721 544 633 L517 620 Q479 709 402 817 L427 827 ZM909 -12 Q909 -54 876 -63 Q853 -69 725 -69 Q722 -56 712 -36 Q808 -39 856 -36 Q879 -35 879 -12 L879 760 L578 760 L578 789 L909 789 L909 -12 Z" /><glyph glyph-name="" unicode="&#x4ef6;" d="M322 819 Q281 704 220 598 L220 -69 L191 -69 L191 548 Q136 457 68 381 Q62 391 46 404 Q202 568 294 827 L322 819 ZM939 287 L650 287 L650 -72 L621 -72 L621 287 L317 287 L317 316 L621 316 L621 585 L426 585 Q389 478 344 410 Q330 421 319 428 Q407 550 446 785 L475 780 Q457 686 435 614 L621 614 L621 819 L650 819 L650 614 L899 614 L899 585 L650 585 L650 316 L939 316 L939 287 Z" /><glyph glyph-name="" unicode="&#x4efb;" d="M350 825 Q296 700 235 606 L235 -71 L205 -71 L205 561 Q131 454 51 379 Q43 391 29 403 Q217 572 322 833 L350 825 ZM640 363 L640 2 L935 2 L935 -27 L325 -27 L325 2 L611 2 L611 363 L289 363 L289 392 L611 392 L611 701 Q488 678 336 659 Q334 668 326 683 Q720 738 875 795 L899 770 Q795 735 640 707 L640 392 L956 392 L956 363 L640 363 Z" /><glyph glyph-name="" unicode="&#x4f01;" d="M525 -10 L935 -10 L935 -39 L84 -39 L84 -10 L229 -10 L229 384 L258 384 L258 -10 L496 -10 L496 572 L525 572 L525 318 L838 318 L838 289 L525 289 L525 -10 ZM539 828 Q532 816 516 792 Q665 597 960 446 Q945 437 939 424 Q656 573 501 771 Q333 543 70 426 Q60 439 49 448 Q355 581 513 839 L539 828 Z" /><glyph glyph-name="" unicode="&#x4f0f;" d="M865 595 Q815 680 733 774 L755 787 Q839 696 889 613 L865 595 ZM331 819 Q290 714 226 606 L226 -69 L197 -69 L197 559 Q129 456 56 381 Q45 397 34 405 Q203 566 303 827 L331 819 ZM639 489 Q715 71 954 -46 Q940 -58 932 -71 Q701 54 620 439 Q577 116 314 -69 Q305 -58 290 -48 Q563 141 596 489 L308 489 L308 518 L598 518 Q601 569 601 617 L601 829 L630 829 L630 617 Q630 569 627 518 L945 518 L945 489 L639 489 Z" /><glyph glyph-name="" unicode="&#x4f18;" d="M844 632 Q788 709 700 785 L721 799 Q811 721 866 650 L844 632 ZM328 821 Q283 700 217 584 L217 -71 L188 -71 L188 535 Q129 443 73 383 Q64 397 52 407 Q207 570 299 829 L328 821 ZM862 -11 Q888 -11 896 17 Q904 44 906 143 Q917 135 934 129 Q931 25 919 -6 Q905 -40 863 -40 L724 -40 Q680 -40 665 -28 Q650 -16 650 22 L650 459 L679 459 L679 22 Q679 2 687 -4 Q696 -11 723 -11 L862 -11 ZM944 585 L944 556 L565 556 Q535 97 315 -61 Q311 -57 292 -46 Q506 106 536 556 L287 556 L287 585 L538 585 Q544 681 544 820 L573 820 Q573 681 567 585 L944 585 Z" /><glyph glyph-name="" unicode="&#x4f19;" d="M943 627 Q866 446 811 355 L787 368 Q860 492 913 641 L943 627 ZM439 627 Q416 438 354 334 L328 347 Q388 443 413 632 L439 627 ZM323 819 Q277 697 217 590 L217 -71 L188 -71 L188 540 Q132 450 73 385 Q65 397 51 409 Q206 570 294 827 L323 819 ZM640 827 Q640 544 629 429 Q657 232 730 120 Q810 -2 959 -45 Q946 -56 940 -69 Q684 14 618 340 Q593 186 525 92 Q450 -12 307 -68 Q305 -65 288 -48 Q511 38 573 263 Q611 402 611 827 L640 827 Z" /><glyph glyph-name="" unicode="&#x4f1a;" d="M90 320 L916 320 L916 291 L457 291 Q323 104 210 -1 L768 50 Q697 136 623 202 L647 216 Q806 73 880 -52 L854 -69 Q831 -30 790 22 Q185 -34 155 -45 Q150 -24 144 -11 Q163 -8 216 45 Q316 141 416 291 L90 291 L90 320 ZM746 511 L746 482 L260 482 L260 511 L746 511 ZM546 814 L522 779 Q685 576 950 477 Q936 463 928 450 Q672 553 504 754 Q355 567 81 438 Q72 451 57 460 Q386 612 512 825 L546 814 Z" /><glyph glyph-name="" unicode="&#x4f1f;" d="M332 819 Q287 698 221 582 L221 -72 L192 -72 L192 533 Q136 444 77 381 Q68 395 56 405 Q210 565 303 827 L332 819 ZM926 329 Q926 316 925 310 Q909 65 882 38 Q866 22 837 22 Q812 21 754 24 Q752 40 745 53 Q784 49 832 49 Q852 49 859 57 Q882 83 896 300 L622 300 L622 -70 L593 -70 L593 300 L297 300 L297 329 L593 329 L593 482 L352 482 L352 511 L593 511 L593 659 L328 659 L328 688 L593 688 L593 829 L622 829 L622 688 L901 688 L901 659 L622 659 L622 511 L876 511 L876 482 L622 482 L622 329 L926 329 Z" /><glyph glyph-name="" unicode="&#x4f30;" d="M320 818 Q275 706 209 596 L209 -68 L180 -68 L180 549 Q114 451 45 381 Q34 398 23 404 Q193 568 291 826 L320 818 ZM855 302 L418 302 L418 3 L855 3 L855 302 ZM647 566 L647 331 L884 331 L884 -66 L855 -66 L855 -26 L418 -26 L418 -70 L389 -70 L389 331 L618 331 L618 566 L320 566 L320 595 L618 595 L618 829 L647 829 L647 595 L951 595 L951 566 L647 566 Z" /><glyph glyph-name="" unicode="&#x4f34;" d="M832 755 Q765 615 704 524 Q694 532 677 542 Q743 629 803 764 L832 755 ZM481 524 Q441 612 352 747 L379 757 Q473 619 508 538 L481 524 ZM285 815 Q254 715 209 610 L209 -72 L180 -72 L180 548 Q132 451 70 368 Q61 382 49 392 Q179 556 256 822 L285 815 ZM939 237 L610 237 L610 -69 L581 -69 L581 237 L268 237 L268 266 L581 266 L581 454 L310 454 L310 483 L581 483 L581 831 L610 831 L610 483 L897 483 L897 454 L610 454 L610 266 L939 266 L939 237 Z" /><glyph glyph-name="" unicode="&#x4f38;" d="M338 818 Q297 712 227 596 L227 -68 L198 -68 L198 549 Q132 451 63 381 Q52 397 41 405 Q210 566 310 826 L338 818 ZM878 247 L878 443 L647 443 L647 247 L878 247 ZM618 247 L618 443 L394 443 L394 247 L618 247 ZM394 664 L394 472 L618 472 L618 664 L394 664 ZM647 664 L647 472 L878 472 L878 664 L647 664 ZM907 693 L907 164 L878 164 L878 218 L647 218 L647 -70 L618 -70 L618 218 L394 218 L394 159 L365 159 L365 693 L618 693 L618 828 L647 828 L647 693 L907 693 Z" /><glyph glyph-name="" unicode="&#x4f46;" d="M833 722 L426 722 L426 475 L833 475 L833 722 ZM833 446 L426 446 L426 195 L833 195 L833 446 ZM862 166 L397 166 L397 751 L862 751 L862 166 ZM333 819 Q292 711 222 597 L222 -69 L193 -69 L193 549 Q127 451 58 381 Q47 397 36 405 Q205 566 305 826 L333 819 ZM960 5 L960 -24 L298 -24 L298 5 L960 5 Z" /><glyph glyph-name="" unicode="&#x4f4d;" d="M636 660 Q624 727 587 821 L614 830 Q654 723 665 671 L636 660 ZM905 606 L375 606 L375 635 L905 635 L905 606 ZM526 67 Q506 277 448 510 L476 516 Q534 276 556 76 L526 67 ZM342 819 Q299 709 231 597 L231 -68 L202 -68 L202 550 Q140 457 67 381 Q56 397 45 405 Q215 569 314 827 L342 819 ZM953 2 L953 -27 L325 -27 L325 2 L680 2 Q742 212 791 529 L824 521 Q763 188 711 2 L953 2 Z" /><glyph glyph-name="" unicode="&#x4f4e;" d="M320 819 Q277 709 209 597 L209 -69 L180 -69 L180 550 Q115 452 45 381 Q34 397 23 405 Q192 566 292 827 L320 819 ZM615 130 Q681 33 708 -42 L682 -52 Q658 23 589 122 L615 130 ZM677 433 Q663 566 655 743 Q522 714 414 699 L414 433 L677 433 ZM708 404 Q762 -22 878 -28 Q912 -29 928 139 Q940 130 953 127 Q934 -62 879 -61 Q733 -56 680 404 L414 404 L414 -21 L592 28 Q592 15 594 3 Q376 -62 359 -74 Q353 -57 343 -44 Q385 -29 385 12 L385 720 Q710 771 847 824 L878 801 Q798 774 683 749 Q689 582 706 433 L945 433 L945 404 L708 404 Z" /><glyph glyph-name="" unicode="&#x4f53;" d="M308 820 Q268 701 209 590 L209 -69 L180 -69 L180 538 Q131 454 70 381 Q61 394 48 404 Q194 565 280 826 L308 820 ZM660 575 Q767 261 958 131 L934 107 Q743 247 630 575 L624 575 L624 162 L812 162 L812 133 L624 133 L624 -67 L595 -67 L595 133 L397 133 L397 162 L595 162 L595 575 L591 575 Q478 259 281 104 Q274 117 259 126 Q448 262 562 575 L284 575 L284 604 L595 604 L595 828 L624 828 L624 604 L946 604 L946 575 L660 575 Z" /><glyph glyph-name="" unicode="&#x4f55;" d="M314 820 Q276 708 217 600 L217 -71 L188 -71 L188 547 Q132 454 72 385 Q60 403 51 408 Q198 567 286 827 L314 820 ZM404 489 L404 220 L639 220 L639 489 L404 489 ZM404 191 L404 116 L375 116 L375 518 L668 518 L668 191 L404 191 ZM954 693 L868 693 L868 -6 Q868 -53 826 -62 Q796 -68 628 -68 Q626 -60 615 -35 Q756 -40 811 -35 Q839 -34 839 -7 L839 693 L328 693 L328 722 L954 722 L954 693 Z" /><glyph glyph-name="" unicode="&#x4f59;" d="M328 198 Q237 71 95 -27 Q84 -16 70 -8 Q210 82 300 208 L328 198 ZM687 213 Q835 99 913 -1 L890 -22 Q813 80 665 196 L687 213 ZM522 327 L920 327 L920 298 L522 298 L522 -20 Q522 -57 491 -65 Q467 -72 338 -70 Q335 -56 325 -42 Q427 -45 471 -42 Q493 -41 493 -21 L493 298 L86 298 L86 327 L493 327 L493 491 L240 491 L240 520 L765 520 L765 491 L522 491 L522 327 ZM534 826 L517 804 Q656 621 965 489 Q952 478 944 465 Q642 602 501 785 Q319 574 59 450 Q47 464 37 471 Q334 607 509 838 L534 826 Z" /><glyph glyph-name="" unicode="&#x4f5c;" d="M347 819 Q301 703 237 598 L237 -69 L207 -69 L207 549 Q144 455 72 381 Q63 395 50 404 Q221 568 318 827 L347 819 ZM615 629 L615 444 L931 444 L931 415 L615 415 L615 224 L944 224 L944 195 L615 195 L615 -70 L586 -70 L586 629 L485 629 Q417 497 332 403 Q319 414 307 422 Q449 570 536 815 L564 808 Q538 733 500 658 L950 658 L950 629 L615 629 Z" /><glyph glyph-name="" unicode="&#x4f60;" d="M320 819 Q273 702 209 597 L209 -69 L180 -69 L180 550 Q115 452 45 381 Q34 397 23 405 Q194 570 291 827 L320 819 ZM320 85 Q419 206 473 421 L504 415 Q448 198 347 67 L320 85 ZM664 595 L664 -23 Q664 -57 638 -66 Q618 -72 520 -72 Q513 -51 508 -41 Q582 -44 618 -41 Q635 -41 635 -24 L635 595 L443 595 Q403 485 345 402 Q333 412 320 419 Q424 561 480 825 L510 819 Q488 721 454 624 L922 624 L929 626 L947 618 Q918 481 902 425 L877 431 L912 595 L664 595 ZM800 426 Q909 237 941 80 L913 71 Q876 236 774 417 L800 426 Z" /><glyph glyph-name="" unicode="&#x4f73;" d="M929 438 L325 438 L325 467 L611 467 L611 650 L376 650 L376 679 L611 679 L611 831 L640 831 L640 679 L883 679 L883 650 L640 650 L640 467 L929 467 L929 438 ZM322 820 Q282 704 220 588 L220 -71 L191 -71 L191 537 Q144 457 80 381 Q72 393 58 405 Q207 564 293 827 L322 820 ZM951 2 L951 -27 L289 -27 L289 2 L611 2 L611 218 L355 218 L355 247 L611 247 L611 389 L640 389 L640 247 L898 247 L898 218 L640 218 L640 2 L951 2 Z" /><glyph glyph-name="" unicode="&#x4f7f;" d="M328 824 Q284 712 217 604 L217 -77 L188 -77 L188 558 Q121 460 51 390 Q39 405 28 414 Q201 576 300 831 L328 824 ZM611 321 Q613 347 613 400 L613 522 L376 522 L376 321 L611 321 ZM642 522 L642 400 Q642 347 640 321 L886 321 L886 522 L642 522 ZM638 292 Q626 164 562 81 Q721 -15 958 -47 Q946 -59 939 -75 Q706 -41 543 60 Q460 -28 295 -77 L279 -53 Q436 -9 519 75 Q407 151 351 250 L377 262 Q431 167 537 97 Q599 174 609 292 L347 292 L347 551 L613 551 L613 677 L310 677 L310 706 L613 706 L613 829 L642 829 L642 706 L954 706 L954 677 L642 677 L642 551 L915 551 L915 292 L638 292 Z" /><glyph glyph-name="" unicode="&#x4f9b;" d="M324 818 Q279 706 213 596 L213 -69 L184 -69 L184 549 Q118 451 49 381 Q40 395 27 404 Q197 568 295 826 L324 818 ZM521 164 Q448 31 338 -70 Q323 -57 311 -50 Q423 44 492 172 L521 164 ZM749 168 Q877 45 936 -56 L910 -73 Q848 35 727 153 L749 168 ZM506 274 L752 274 L752 568 L506 568 L506 274 ZM952 274 L952 245 L303 245 L303 274 L477 274 L477 568 L329 568 L329 597 L477 597 L477 816 L506 816 L506 597 L752 597 L752 816 L781 816 L781 597 L938 597 L938 568 L781 568 L781 274 L952 274 Z" /><glyph glyph-name="" unicode="&#x4f9d;" d="M634 647 Q613 713 554 811 L580 820 Q635 735 662 659 L634 647 ZM320 823 Q273 697 209 586 L209 -72 L180 -72 L180 537 Q124 448 65 385 Q56 399 44 409 Q202 575 291 831 L320 823 ZM943 463 Q834 360 702 276 Q809 59 961 -17 Q949 -27 938 -42 Q687 97 579 547 Q525 463 451 388 L451 -13 L651 67 Q654 55 659 40 Q425 -54 401 -72 L401 -73 Q397 -62 384 -45 Q422 -23 422 18 L422 359 Q349 289 265 233 Q252 248 240 256 Q456 387 578 599 L289 599 L289 628 L933 628 L933 599 L612 599 L599 576 Q636 415 692 297 Q819 383 920 482 L943 463 Z" /><glyph glyph-name="" unicode="&#x4fa7;" d="M340 164 L311 164 L311 762 L622 762 L622 164 L593 164 L593 733 L340 733 L340 164 ZM275 822 Q242 717 192 605 L192 -68 L163 -68 L163 546 Q112 447 56 375 Q48 387 35 398 Q167 560 246 829 L275 822 ZM452 647 L481 647 L481 338 Q481 55 296 -69 Q290 -59 275 -49 Q452 71 452 338 L452 647 ZM510 128 Q590 46 643 -36 L621 -55 Q575 23 490 113 L510 128 ZM760 150 L731 150 L731 733 L760 733 L760 150 ZM911 826 L911 -17 Q911 -53 882 -61 Q863 -67 758 -67 Q757 -62 746 -38 Q774 -39 861 -39 Q882 -38 882 -18 L882 826 L911 826 Z" /><glyph glyph-name="" unicode="&#x4fbf;&#xf965;" d="M308 820 Q267 698 209 590 L209 -69 L180 -69 L180 538 Q131 454 70 381 Q59 397 48 404 Q194 565 280 827 L308 820 ZM618 300 Q620 324 620 370 L620 436 L388 436 L388 300 L618 300 ZM388 465 L620 465 L620 599 L388 599 L388 465 ZM649 599 L649 465 L866 465 L866 599 L649 599 ZM866 436 L649 436 L649 371 Q649 324 647 300 L866 300 L866 436 ZM645 271 Q629 140 552 62 Q710 -19 954 -39 Q942 -51 936 -66 Q686 -40 532 43 Q441 -33 281 -76 Q272 -58 264 -50 Q419 -11 505 57 Q392 123 338 223 L364 234 Q415 140 526 77 Q602 149 616 271 L359 271 L359 628 L620 628 L620 737 L319 737 L319 766 L941 766 L941 737 L649 737 L649 628 L895 628 L895 271 L645 271 Z" /><glyph glyph-name="" unicode="&#x4fdd;" d="M328 819 Q282 706 217 601 L217 -68 L188 -68 L188 555 Q122 457 50 385 Q34 404 27 409 Q201 571 299 827 L328 819 ZM404 517 L855 517 L855 751 L404 751 L404 517 ZM674 300 Q787 96 970 1 Q965 -3 949 -22 Q759 86 643 300 L643 -71 L613 -71 L613 300 L612 300 Q494 84 293 -21 Q280 -5 271 2 Q459 90 583 300 L293 300 L293 329 L613 329 L613 488 L375 488 L375 780 L884 780 L884 488 L643 488 L643 329 L946 329 L946 300 L674 300 Z" /><glyph glyph-name="" unicode="&#x4fde;" d="M444 157 L444 270 L191 270 L191 157 L444 157 ZM191 403 L191 299 L444 299 L444 403 L191 403 ZM473 -24 Q473 -54 453 -62 Q437 -68 363 -68 Q360 -54 351 -37 Q410 -40 432 -38 Q444 -37 444 -25 L444 128 L191 128 L191 -69 L162 -69 L162 432 L473 432 L473 -24 ZM712 543 L278 543 L278 572 L712 572 L712 543 ZM621 406 L650 406 L650 88 L621 88 L621 406 ZM804 448 L833 448 L833 -23 Q833 -56 808 -64 Q789 -70 692 -70 Q690 -61 679 -39 Q753 -42 788 -39 Q804 -39 804 -23 L804 448 ZM542 827 Q535 817 519 797 Q667 641 956 520 Q944 511 935 497 Q658 618 503 778 Q333 585 61 482 Q48 500 40 506 Q356 619 516 840 L542 827 Z" /><glyph glyph-name="" unicode="&#x4fe1;" d="M614 686 Q595 739 543 816 L571 827 Q619 763 645 700 L614 686 ZM305 820 Q268 709 209 599 L209 -74 L180 -74 L180 546 Q123 450 63 381 Q55 393 41 405 Q189 563 277 827 L305 820 ZM399 209 L399 4 L828 4 L828 209 L399 209 ZM370 238 L857 238 L857 -70 L828 -70 L828 -25 L399 -25 L399 -73 L370 -73 L370 238 ZM382 381 L849 381 L849 352 L382 352 L382 381 ZM849 489 L382 489 L382 518 L849 518 L849 489 ZM933 655 L933 626 L307 626 L307 655 L933 655 Z" /><glyph glyph-name="" unicode="&#x500d;" d="M926 687 L348 687 L348 716 L628 716 Q616 773 595 832 L622 836 Q647 774 658 716 L926 716 L926 687 ZM501 454 Q485 543 427 651 L451 661 Q507 563 527 464 L501 454 ZM317 822 Q272 701 209 590 L209 -72 L180 -72 L180 541 Q122 448 62 384 Q53 398 41 408 Q198 571 288 830 L317 822 ZM429 256 L429 11 L829 11 L829 256 L429 256 ZM400 285 L858 285 L858 -68 L829 -68 L829 -18 L429 -18 L429 -71 L400 -71 L400 285 ZM951 426 L951 397 L307 397 L307 426 L699 426 Q755 531 801 666 L830 655 Q775 513 728 426 L951 426 Z" /><glyph glyph-name="" unicode="&#x5019;" d="M943 556 L382 556 L382 585 L776 585 Q786 634 803 747 L448 747 L448 776 L810 776 L816 779 L836 775 Q816 636 807 585 L943 585 L943 556 ZM281 815 Q246 697 191 578 L191 -73 L162 -73 L162 520 Q124 444 67 369 Q56 382 45 392 Q175 554 253 822 L281 815 ZM301 598 L329 598 L329 122 L301 122 L301 598 ZM682 203 Q740 15 949 -39 Q935 -51 927 -65 Q731 -9 662 174 Q623 14 387 -73 Q378 -58 368 -49 Q610 34 639 203 L384 203 L384 232 L643 232 Q644 246 644 272 L644 399 L499 399 Q459 321 415 271 Q401 282 390 289 Q479 384 523 540 L553 534 Q536 479 513 428 L902 428 L902 399 L673 399 L673 272 Q673 246 672 232 L941 232 L941 203 L682 203 Z" /><glyph glyph-name="" unicode="&#x503c;" d="M320 823 Q277 704 209 586 L209 -71 L180 -71 L180 537 Q124 448 65 385 Q56 399 44 409 Q200 571 292 831 L320 823 ZM417 -2 L817 -2 L817 107 L417 107 L417 -2 ZM417 539 L417 425 L817 425 L817 539 L417 539 ZM817 396 L417 396 L417 281 L817 281 L817 396 ZM417 136 L817 136 L817 252 L417 252 L417 136 ZM949 -2 L949 -31 L283 -31 L283 -2 L388 -2 L388 568 L558 568 Q571 611 587 687 L324 687 L324 716 L592 716 Q604 777 612 832 L645 826 Q633 759 623 716 L911 716 L911 687 L617 687 Q600 611 588 568 L846 568 L846 -2 L949 -2 Z" /><glyph glyph-name="" unicode="&#x505a;" d="M284 815 Q252 718 203 618 L203 -72 L174 -72 L174 562 Q116 455 47 372 Q35 387 24 396 Q170 559 256 822 L284 815 ZM332 347 L332 69 L553 69 L553 347 L332 347 ZM332 40 L332 -21 L303 -21 L303 376 L428 376 L428 593 L265 593 L265 622 L428 622 L428 820 L457 820 L457 622 L613 622 L613 593 L457 593 L457 376 L582 376 L582 40 L332 40 ZM678 590 Q703 345 768 196 Q841 340 875 598 L681 598 L678 590 ZM905 598 Q871 320 784 163 Q852 24 968 -50 Q951 -64 946 -75 Q835 0 766 133 Q685 4 553 -77 Q543 -65 529 -53 Q673 28 752 164 Q684 311 658 529 Q634 455 597 391 Q583 400 568 404 Q658 550 703 831 L732 826 Q713 714 689 627 L950 627 L950 598 L905 598 Z" /><glyph glyph-name="" unicode="&#x505c;" d="M320 822 Q275 701 209 585 L209 -71 L180 -71 L180 536 Q124 447 65 384 Q56 398 44 408 Q202 574 291 830 L320 822 ZM387 243 L860 243 L860 214 L637 214 L637 -23 Q637 -55 610 -63 Q587 -68 460 -68 Q458 -57 447 -41 Q563 -43 588 -41 Q608 -40 608 -23 L608 214 L387 214 L387 243 ZM313 370 L936 370 L936 227 L907 227 L907 341 L342 341 L342 227 L313 227 L313 370 ZM817 598 L436 598 L436 485 L817 485 L817 598 ZM846 627 L846 456 L407 456 L407 627 L846 627 ZM945 727 L945 698 L323 698 L323 727 L625 727 Q608 769 571 823 L597 833 Q635 783 658 727 L945 727 Z" /><glyph glyph-name="" unicode="&#x5065;" d="M708 600 L840 600 L840 709 L708 709 L708 600 ZM840 571 L708 571 L708 462 L840 462 L840 571 ZM679 571 L475 571 L475 600 L679 600 L679 709 L524 709 L524 738 L679 738 L679 830 L708 830 L708 738 L869 738 L869 600 L952 600 L952 571 L869 571 L869 433 L708 433 L708 330 L897 330 L897 301 L708 301 L708 190 L937 190 L937 161 L708 161 L708 10 L679 10 L679 161 L468 161 L468 190 L679 190 L679 301 L500 301 L500 330 L679 330 L679 433 L524 433 L524 462 L679 462 L679 571 ZM273 822 Q244 721 200 620 L200 -68 L171 -68 L171 558 Q127 471 69 397 Q65 403 48 420 Q173 569 245 829 L273 822 ZM953 -33 Q942 -48 940 -62 L816 -62 Q513 -62 381 89 Q330 -15 251 -72 Q242 -58 228 -48 Q308 8 360 115 Q303 191 268 305 L293 318 Q324 213 373 145 Q419 251 439 425 L283 425 Q342 535 419 719 L285 719 L285 748 L463 748 Q388 575 328 454 L454 454 L472 448 Q451 247 395 118 Q522 -33 817 -33 L953 -33 Z" /><glyph glyph-name="" unicode="&#x5145;" d="M538 674 Q504 743 448 817 L471 830 Q534 747 564 689 L538 674 ZM855 -12 Q889 -12 899 17 Q909 45 912 149 Q922 140 940 134 Q936 25 922 -6 Q906 -41 856 -41 L679 -41 Q627 -41 610 -29 Q592 -16 592 22 L592 356 L402 345 Q387 165 326 77 Q256 -25 89 -71 Q82 -58 71 -48 Q233 -5 300 92 Q357 174 372 343 Q172 330 150 321 Q145 341 139 356 Q161 359 208 407 Q292 482 396 631 L72 631 L72 660 L932 660 L932 631 L435 631 Q323 474 203 362 L785 395 Q698 477 605 545 L626 560 Q800 437 898 320 L876 302 Q842 340 813 369 L621 358 L621 22 Q621 1 632 -5 Q643 -12 678 -12 L855 -12 Z" /><glyph glyph-name="" unicode="&#x5148;" d="M868 -25 Q901 -25 911 4 Q920 33 923 140 Q933 131 951 125 Q948 14 934 -18 Q919 -54 869 -54 L702 -54 Q652 -54 635 -42 Q618 -29 618 9 L618 354 L383 354 Q366 178 307 85 Q236 -27 76 -77 Q68 -64 57 -54 Q212 -8 281 99 Q337 187 353 354 L69 354 L69 383 L485 383 L485 624 L244 624 Q198 522 145 455 Q132 465 121 472 Q224 596 273 797 L304 790 Q285 723 257 653 L485 653 L485 829 L514 829 L514 653 L869 653 L869 624 L514 624 L514 383 L934 383 L934 354 L647 354 L647 8 Q647 -12 657 -19 Q667 -25 701 -25 L868 -25 Z" /><glyph glyph-name="" unicode="&#x5149;" d="M845 741 Q768 613 694 528 L671 540 Q757 640 817 755 L845 741 ZM305 528 Q256 621 159 743 L183 754 Q283 632 331 543 L305 528 ZM857 -22 Q881 -22 888 -8 Q896 6 898 55 Q910 48 926 44 Q923 -14 911 -32 Q898 -51 858 -51 L673 -51 Q621 -51 605 -40 Q587 -28 587 10 L587 422 L409 422 Q395 212 338 109 Q268 -18 94 -74 Q86 -60 73 -49 Q243 2 312 124 Q366 221 379 422 L75 422 L75 451 L484 451 L484 830 L513 830 L513 451 L917 451 L917 422 L616 422 L616 10 Q616 -10 626 -16 Q636 -22 671 -22 L857 -22 Z" /><glyph glyph-name="" unicode="&#x514d;" d="M521 547 Q511 410 492 325 L838 325 L838 547 L521 547 ZM462 325 Q483 413 491 547 L199 547 L199 325 L462 325 ZM319 714 Q256 633 192 576 L516 576 Q572 631 620 714 L319 714 ZM853 -20 Q890 -20 901 7 Q912 33 915 132 Q929 122 944 118 Q939 13 924 -16 Q907 -49 853 -49 L654 -49 Q597 -49 579 -37 Q559 -25 559 13 L559 296 L484 296 Q407 24 84 -59 Q78 -43 66 -33 Q379 44 453 296 L170 296 L170 556 Q134 524 84 489 Q77 499 61 509 Q254 636 360 830 L394 824 Q352 759 341 743 L638 743 L644 745 L663 732 Q617 649 549 576 L867 576 L867 296 L588 296 L588 13 Q588 -7 600 -14 Q612 -20 652 -20 L853 -20 Z" /><glyph glyph-name="" unicode="&#x2f0a;&#x5165;" d="M337 793 Q490 686 635 371 Q772 72 950 -29 Q937 -44 934 -59 Q776 29 672 223 Q646 270 590 391 Q540 500 506 558 Q396 114 77 -69 Q66 -55 50 -45 Q378 130 482 595 Q412 703 319 769 L337 793 Z" /><glyph glyph-name="" unicode="&#x5168;" d="M514 -10 L927 -10 L927 -39 L75 -39 L75 -10 L485 -10 L485 199 L198 199 L198 228 L485 228 L485 425 L199 425 L199 454 L808 454 L808 425 L514 425 L514 228 L816 228 L816 199 L514 199 L514 -10 ZM532 830 L516 806 Q679 602 967 425 Q952 416 943 401 Q670 578 500 783 Q327 540 59 404 Q50 416 36 427 Q340 575 506 842 L532 830 Z" /><glyph glyph-name="" unicode="&#x516c;" d="M380 786 Q274 535 90 377 Q76 391 64 397 Q249 546 351 794 L380 786 ZM653 291 Q829 95 906 -40 L880 -56 Q847 -2 807 53 Q199 20 172 11 Q166 32 160 43 Q186 48 246 131 Q363 267 493 518 L522 504 Q347 192 224 52 L787 81 Q699 199 628 278 L653 291 ZM639 802 Q765 542 956 400 Q942 389 931 375 Q740 530 611 790 L639 802 Z" /><glyph glyph-name="" unicode="&#x516d;" d="M936 551 L936 522 L67 522 L67 551 L936 551 ZM357 367 Q236 110 81 -67 Q75 -60 54 -44 Q210 121 327 377 L357 367 ZM662 386 Q832 158 949 -43 L922 -59 Q813 137 636 374 L662 386 ZM456 822 Q514 707 552 611 L524 598 Q482 708 428 814 L456 822 Z" /><glyph glyph-name="" unicode="&#x5173;" d="M346 630 Q316 710 246 801 L269 814 Q342 726 372 644 L346 630 ZM531 326 Q648 45 942 -38 Q932 -45 922 -63 Q618 34 503 324 Q451 74 87 -70 Q79 -56 68 -45 Q423 89 473 326 L77 326 L77 355 L479 355 Q485 398 485 459 L485 577 L131 577 L131 606 L610 606 Q679 704 733 824 L762 811 Q694 680 641 606 L873 606 L873 577 L514 577 L514 459 Q514 398 508 355 L929 355 L929 326 L531 326 Z" /><glyph glyph-name="" unicode="&#x5176;" d="M407 90 Q280 4 73 -68 Q65 -54 52 -43 Q265 24 373 106 L407 90 ZM613 104 Q804 36 942 -42 L921 -66 Q800 6 596 83 L613 104 ZM286 171 L716 171 L716 319 L286 319 L286 171 ZM286 666 L286 528 L716 528 L716 666 L286 666 ZM286 348 L716 348 L716 499 L286 499 L286 348 ZM942 171 L942 142 L59 142 L59 171 L257 171 L257 666 L85 666 L85 695 L257 695 L257 829 L286 829 L286 695 L716 695 L716 829 L745 829 L745 695 L919 695 L919 666 L745 666 L745 171 L942 171 Z" /><glyph glyph-name="" unicode="&#x5177;" d="M250 185 L760 185 L760 309 L250 309 L250 185 ZM250 751 L250 633 L760 633 L760 751 L250 751 ZM250 458 L250 338 L760 338 L760 458 L250 458 ZM760 604 L250 604 L250 487 L760 487 L760 604 ZM943 156 L60 156 L60 185 L221 185 L221 780 L789 780 L789 185 L943 185 L943 156 ZM376 111 Q262 9 73 -71 Q70 -66 52 -48 Q249 32 342 126 L376 111 ZM649 127 Q820 47 944 -38 L922 -63 Q813 15 631 105 L649 127 Z" /><glyph glyph-name="" unicode="&#x517b;" d="M348 711 Q327 761 275 822 L300 834 Q351 778 375 726 L348 711 ZM328 302 L357 302 L357 244 Q357 144 324 79 Q276 -15 148 -77 Q138 -63 126 -56 Q251 3 297 93 Q328 152 328 244 L328 302 ZM641 304 L670 304 L670 -71 L641 -71 L641 304 ZM637 409 Q748 274 948 217 Q937 209 927 191 Q712 262 602 409 L412 409 Q299 245 60 187 Q54 199 41 212 Q263 260 376 409 L59 409 L59 438 L396 438 Q427 482 453 548 L153 548 L153 577 L464 577 Q478 619 492 680 L108 680 L108 709 L616 709 Q671 773 705 836 L733 822 Q691 756 651 709 L901 709 L901 680 L521 680 Q511 630 493 577 L853 577 L853 548 L483 548 Q462 489 430 438 L933 438 L933 409 L637 409 Z" /><glyph glyph-name="" unicode="&#x517c;" d="M341 693 Q305 750 229 819 L253 832 Q328 766 365 709 L341 693 ZM591 231 L591 363 L404 363 L404 231 L591 231 ZM404 392 L591 392 L591 509 L404 509 L404 392 ZM404 538 L591 538 L591 659 L404 659 L404 538 ZM620 509 L620 392 L803 392 L803 509 L620 509 ZM803 363 L620 363 L620 231 L803 231 L803 363 ZM641 202 Q770 57 959 -21 Q947 -31 939 -44 Q752 42 620 185 L620 -71 L591 -71 L591 202 L404 202 L404 -71 L375 -71 L375 181 Q256 32 66 -51 Q56 -35 45 -27 Q237 49 355 202 L134 202 L134 231 L375 231 L375 363 L66 363 L66 392 L375 392 L375 509 L141 509 L141 538 L375 538 L375 659 L81 659 L81 688 L642 688 Q699 753 746 832 L775 819 Q729 747 678 688 L919 688 L919 659 L620 659 L620 538 L832 538 L832 392 L935 392 L935 363 L832 363 L832 202 L641 202 Z" /><glyph glyph-name="" unicode="&#x5185;" d="M892 -10 Q892 -55 856 -63 Q829 -69 677 -69 Q675 -59 664 -35 Q775 -39 838 -36 Q863 -35 863 -10 L863 625 L514 625 Q510 539 493 475 Q688 308 811 165 L787 145 Q679 278 484 447 Q422 262 213 142 Q202 156 192 163 Q474 321 485 625 L138 625 L138 -73 L109 -73 L109 654 L486 654 L486 830 L515 830 L515 654 L892 654 L892 -10 Z" /><glyph glyph-name="" unicode="&#x5188;" d="M720 96 Q649 196 524 326 Q397 166 245 52 Q223 70 218 73 Q376 184 504 347 Q379 475 247 585 L270 603 Q398 497 523 370 Q627 510 701 666 L730 656 Q651 494 542 351 Q669 221 743 118 L720 96 ZM891 -11 Q891 -50 859 -59 Q834 -65 703 -64 Q700 -55 690 -36 Q792 -39 837 -36 Q862 -35 862 -12 L862 744 L141 744 L141 -71 L112 -71 L112 773 L891 773 L891 -11 Z" /><glyph glyph-name="" unicode="&#x5197;" d="M122 530 L93 530 L93 757 L914 757 L914 530 L885 530 L885 728 L122 728 L122 530 ZM878 -31 Q906 -31 914 2 Q923 35 925 149 Q938 139 954 134 Q951 15 938 -20 Q924 -60 878 -60 L745 -60 Q702 -60 687 -47 Q672 -34 672 6 L672 505 L324 505 L324 323 Q324 49 67 -75 Q61 -58 49 -50 Q295 67 295 324 L295 534 L701 534 L701 6 Q701 -17 710 -24 Q718 -31 745 -31 L878 -31 Z" /><glyph glyph-name="" unicode="&#x519b;" d="M116 594 L87 594 L87 783 L915 783 L915 594 L886 594 L886 754 L116 754 L116 594 ZM934 117 L546 117 L546 -70 L517 -70 L517 117 L78 117 L78 146 L517 146 L517 301 L300 301 Q221 301 203 288 Q201 305 193 319 Q210 321 247 387 Q278 437 326 536 L181 536 L181 565 L340 565 Q375 642 392 696 L423 687 Q382 588 371 565 L816 565 L816 536 L357 536 Q305 421 243 330 L517 330 L517 476 L546 476 L546 330 L846 330 L846 301 L546 301 L546 146 L934 146 L934 117 Z" /><glyph glyph-name="" unicode="&#x51a0;" d="M823 93 Q823 60 797 52 Q771 46 674 47 Q670 62 663 75 Q755 73 776 75 Q794 76 794 93 L794 464 L511 464 L511 493 L794 493 L794 647 L823 647 L823 493 L943 493 L943 464 L823 464 L823 93 ZM587 383 Q658 293 687 198 L659 185 Q632 278 562 373 L587 383 ZM118 628 L89 628 L89 776 L914 776 L914 628 L885 628 L885 747 L118 747 L118 628 ZM129 559 L129 588 L473 588 L473 559 L129 559 ZM831 -31 Q884 -31 900 -4 Q916 21 921 112 Q934 103 951 100 Q945 1 924 -28 Q901 -60 829 -60 L503 -60 Q422 -60 396 -45 Q367 -29 367 20 L367 363 L224 363 L224 268 Q224 46 69 -74 Q60 -58 50 -51 Q195 62 195 268 L195 363 L62 363 L62 392 L512 392 L512 363 L396 363 L396 19 Q396 -10 415 -20 Q435 -31 497 -31 L831 -31 Z" /><glyph glyph-name="" unicode="&#x51ac;" d="M268 115 Q541 33 722 -49 L704 -77 Q521 8 250 91 L268 115 ZM385 287 Q571 224 685 170 L668 143 Q564 194 368 266 L385 287 ZM350 692 L335 674 Q325 662 320 655 Q384 558 497 476 Q648 577 726 692 L350 692 ZM774 709 Q689 572 523 459 Q704 336 950 287 Q937 274 931 261 Q686 313 497 442 Q298 313 69 254 Q65 271 53 281 Q275 335 473 460 Q365 540 301 633 Q222 545 118 472 Q109 485 95 492 Q301 627 404 831 L437 825 Q413 781 372 721 L749 721 L755 723 L774 709 Z" /><glyph glyph-name="" unicode="&#x51b5;" d="M218 589 Q168 678 65 775 L87 790 Q193 691 243 608 L218 589 ZM52 -6 Q137 130 227 324 L249 306 Q164 119 77 -25 L52 -6 ZM413 423 L864 423 L864 754 L413 754 L413 423 ZM884 -33 Q909 -33 916 -4 Q924 25 926 128 Q939 118 953 115 Q950 7 938 -24 Q926 -59 886 -59 L767 -59 Q726 -59 712 -47 Q698 -35 698 1 L698 394 L541 394 Q529 200 481 104 Q422 -13 279 -68 Q273 -57 258 -45 Q398 6 454 118 Q500 209 511 394 L384 394 L384 783 L893 783 L893 394 L727 394 L727 0 Q727 -20 735 -27 Q742 -33 767 -33 L884 -33 Z" /><glyph glyph-name="" unicode="&#x51c6;" d="M685 670 Q663 733 614 809 L638 818 Q690 746 712 681 L685 670 ZM211 562 Q160 657 63 768 L86 782 Q184 673 236 579 L211 562 ZM63 -3 Q141 131 220 326 L244 307 Q159 107 89 -22 L63 -3 ZM411 36 L654 36 L654 213 L411 213 L411 36 ZM654 616 L411 616 L411 444 L654 444 L654 616 ZM654 415 L411 415 L411 242 L654 242 L654 415 ZM938 7 L411 7 L411 -69 L382 -69 L382 585 Q325 485 256 411 Q243 424 229 430 Q373 576 458 819 L487 813 Q459 730 415 645 L913 645 L913 616 L683 616 L683 444 L892 444 L892 415 L683 415 L683 242 L892 242 L892 213 L683 213 L683 36 L938 36 L938 7 Z" /><glyph glyph-name="" unicode="&#x51cf;" d="M905 682 Q855 746 764 806 L785 825 Q881 760 925 704 L905 682 ZM211 591 Q163 677 63 777 L87 791 Q184 695 235 608 L211 591 ZM242 306 Q163 122 77 -25 L51 -6 Q135 131 219 325 L242 306 ZM447 365 L447 165 L618 165 L618 365 L447 365 ZM447 136 L447 67 L418 67 L418 394 L647 394 L647 136 L447 136 ZM665 496 L400 496 L400 525 L665 525 L665 496 ZM910 509 Q863 306 775 168 Q820 -36 890 -40 Q922 -42 938 128 Q947 119 963 115 Q943 -76 891 -74 Q804 -71 752 135 Q668 16 540 -63 Q545 -69 517 -41 Q653 37 744 173 Q710 326 691 628 L349 628 L349 400 Q349 83 229 -77 Q221 -67 205 -58 Q320 94 320 400 L320 657 L689 657 Q686 713 682 822 L711 822 L717 657 L939 657 L939 628 L719 628 Q735 371 766 210 Q840 336 880 515 L910 509 Z" /><glyph glyph-name="" unicode="&#x51e1;" d="M369 526 Q500 409 595 302 L571 282 Q479 391 347 511 L369 526 ZM881 -17 Q907 -17 916 21 Q923 55 926 175 Q938 164 955 159 Q952 35 940 -2 Q926 -46 881 -46 L754 -46 Q712 -46 698 -31 Q683 -17 683 28 L683 729 L284 729 L284 498 Q284 114 70 -71 Q61 -56 49 -47 Q255 128 255 498 L255 758 L712 758 L712 27 Q712 0 720 -8 Q728 -17 754 -17 L881 -17 Z" /><glyph glyph-name="" unicode="&#x51fa;" d="M881 334 L881 -68 L852 -68 L852 -8 L124 -8 L124 335 L154 335 L154 21 L485 21 L485 409 L162 409 L162 734 L191 734 L191 438 L485 438 L485 830 L514 830 L514 438 L812 438 L812 734 L841 734 L841 409 L514 409 L514 21 L852 21 L852 334 L881 334 Z" /><glyph glyph-name="" unicode="&#x51fb;" d="M514 26 L806 26 L806 304 L834 304 L834 -72 L806 -72 L806 -3 L163 -3 L163 306 L193 306 L193 26 L485 26 L485 401 L81 401 L81 430 L485 430 L485 629 L157 629 L157 658 L485 658 L485 830 L514 830 L514 658 L850 658 L850 629 L514 629 L514 430 L923 430 L923 401 L514 401 L514 26 Z" /><glyph glyph-name="" unicode="&#x5206;" d="M371 795 Q273 550 82 402 Q75 410 57 422 Q246 560 342 803 L371 795 ZM802 441 Q802 427 801 421 Q779 6 733 -41 Q711 -62 668 -62 Q609 -64 503 -56 Q503 -40 494 -27 Q579 -35 662 -35 Q696 -35 707 -24 Q750 17 772 412 L436 412 Q410 230 347 124 Q263 -14 91 -74 Q85 -65 72 -52 Q240 4 321 138 Q383 240 405 412 L180 412 L180 441 L802 441 ZM658 805 Q768 558 949 435 Q935 425 925 411 Q747 545 633 794 L658 805 Z" /><glyph glyph-name="" unicode="&#x520a;" d="M320 427 L562 427 L562 398 L320 398 L320 -68 L291 -68 L291 398 L49 398 L49 427 L291 427 L291 733 L79 733 L79 762 L530 762 L530 733 L320 733 L320 427 ZM643 711 L672 711 L672 168 L643 168 L643 711 ZM898 812 L898 -17 Q898 -57 863 -67 Q837 -73 701 -72 Q693 -52 687 -44 Q795 -47 842 -44 Q869 -43 869 -18 L869 812 L898 812 Z" /><glyph glyph-name="" unicode="&#x5217;" d="M74 768 L569 768 L569 739 L296 739 Q273 641 238 544 L505 544 L511 546 L529 539 Q457 74 117 -74 Q109 -59 99 -50 Q268 19 374 185 Q298 258 190 320 L206 340 Q316 278 390 211 Q465 337 496 515 L226 515 Q172 376 103 288 Q95 295 76 304 Q200 455 265 739 L74 739 L74 768 ZM667 704 L696 704 L696 160 L667 160 L667 704 ZM903 831 L903 -15 Q903 -53 872 -62 Q851 -68 740 -68 Q732 -48 727 -38 Q828 -40 852 -38 Q873 -37 873 -16 L873 831 L903 831 Z" /><glyph glyph-name="" unicode="&#x5219;" d="M359 143 Q479 46 532 -17 L512 -42 Q438 44 338 123 L359 143 ZM528 770 L528 172 L499 172 L499 741 L162 741 L162 172 L133 172 L133 770 L528 770 ZM890 828 L890 -10 Q890 -50 855 -60 Q824 -66 693 -65 Q690 -51 680 -37 Q785 -40 835 -37 Q861 -36 861 -11 L861 828 L890 828 ZM705 742 L705 159 L676 159 L676 742 L705 742 ZM343 661 L343 382 Q343 239 299 141 Q238 8 87 -73 Q80 -60 65 -51 Q214 28 272 154 Q314 245 314 383 L314 661 L343 661 Z" /><glyph glyph-name="" unicode="&#x521b;" d="M462 -29 Q500 -29 511 0 Q522 27 525 127 Q539 116 555 113 Q550 7 535 -23 Q517 -58 462 -58 L250 -58 Q191 -58 172 -45 Q151 -30 151 13 L151 461 L487 461 Q487 448 486 443 Q470 207 442 177 Q426 162 395 161 Q340 161 304 164 Q302 180 295 193 Q348 188 390 188 Q411 188 419 197 Q442 222 457 432 L180 432 L180 13 Q180 -13 193 -21 Q205 -29 247 -29 L462 -29 ZM359 818 Q345 788 337 774 Q499 615 587 492 L565 475 Q464 611 324 750 Q227 569 62 437 Q57 441 38 452 Q239 607 329 825 L359 818 ZM698 169 L669 169 L669 711 L698 711 L698 169 ZM898 818 L898 -11 Q898 -51 863 -61 Q838 -67 701 -66 Q693 -46 687 -38 Q795 -41 842 -38 Q869 -37 869 -12 L869 818 L898 818 Z" /><glyph glyph-name="" unicode="&#x5220;" d="M575 433 L575 769 L441 769 L441 433 L575 433 ZM287 433 L287 770 L153 770 L153 433 L287 433 ZM604 433 L667 433 L667 404 L604 404 L604 -15 Q604 -47 581 -54 Q564 -60 480 -60 Q476 -43 469 -32 L559 -32 Q575 -31 575 -15 L575 404 L441 404 L441 325 Q441 52 368 -66 Q361 -58 344 -48 Q412 61 412 325 L412 404 L316 404 L316 -14 Q316 -46 293 -53 Q276 -59 192 -59 Q188 -42 181 -31 L271 -31 Q287 -30 287 -14 L287 404 L153 404 L153 351 Q153 63 73 -65 Q66 -57 49 -47 Q124 73 124 351 L124 404 L51 404 L51 433 L124 433 L124 799 L316 799 L316 433 L412 433 L412 798 L604 798 L604 433 ZM727 711 L756 711 L756 168 L727 168 L727 711 ZM903 812 L903 -26 Q903 -58 878 -66 Q860 -72 772 -72 Q769 -60 759 -44 L856 -44 Q874 -43 874 -26 L874 812 L903 812 Z" /><glyph glyph-name="" unicode="&#x522b;" d="M457 756 L135 756 L135 507 L457 507 L457 756 ZM486 478 L106 478 L106 785 L486 785 L486 478 ZM496 337 L495 317 Q478 -9 446 -45 Q430 -64 394 -64 Q354 -66 284 -61 Q282 -44 275 -31 Q324 -36 387 -36 Q412 -36 421 -26 Q448 4 464 308 L282 308 Q246 23 69 -74 Q59 -60 45 -53 Q217 37 253 308 L59 308 L59 337 L257 337 Q261 376 265 448 L295 448 Q292 390 286 337 L496 337 ZM653 712 L682 712 L682 168 L653 168 L653 712 ZM898 812 L898 -17 Q898 -57 863 -67 Q837 -73 701 -72 Q693 -52 687 -44 Q795 -47 842 -44 Q869 -43 869 -18 L869 812 L898 812 Z" /><glyph glyph-name="" unicode="&#x5230;" d="M578 122 L580 94 Q489 76 310 39 Q144 5 81 -7 L73 24 L319 71 L319 274 L109 274 L109 303 L319 303 L319 430 L348 430 L348 303 L569 303 L569 274 L348 274 L348 77 L578 122 ZM427 660 Q531 542 589 445 L566 429 Q540 469 515 504 Q144 464 120 454 Q114 480 109 487 Q128 490 158 533 Q224 618 275 728 L80 728 L80 757 L587 757 L587 728 L309 728 Q237 585 164 494 L497 529 Q462 578 404 648 L427 660 ZM660 750 L689 750 L689 146 L660 146 L660 750 ZM893 808 L893 14 Q893 -28 861 -37 Q837 -43 719 -43 Q717 -29 706 -8 Q808 -11 844 -9 Q864 -8 864 13 L864 808 L893 808 Z" /><glyph glyph-name="" unicode="&#x5236;" d="M343 510 L610 510 L610 481 L343 481 L343 349 L563 349 L563 57 Q563 27 539 19 Q520 13 420 13 Q417 25 407 42 Q496 39 518 42 Q534 42 534 57 L534 320 L343 320 L343 -71 L314 -71 L314 320 L135 320 L135 14 L106 14 L106 349 L314 349 L314 481 L53 481 L53 510 L314 510 L314 646 L153 646 Q122 569 90 522 Q76 529 61 534 Q131 631 170 801 L201 796 Q187 741 164 675 L314 675 L314 829 L343 829 L343 675 L570 675 L570 646 L343 646 L343 510 ZM739 187 L710 187 L710 730 L739 730 L739 187 ZM916 827 L916 -4 Q916 -48 881 -58 Q858 -64 734 -64 Q726 -40 721 -28 Q826 -31 865 -29 Q886 -28 886 -6 L886 827 L916 827 Z" /><glyph glyph-name="" unicode="&#x5239;" d="M508 495 Q445 546 334 611 Q223 524 81 459 Q73 473 61 483 Q199 542 310 625 Q190 693 99 733 L118 753 Q227 703 332 644 Q425 718 482 803 L509 792 Q450 707 357 629 Q466 566 526 517 L508 495 ZM229 258 Q174 132 79 28 Q72 40 56 52 Q151 140 206 272 L229 258 ZM423 273 Q514 161 558 65 L531 51 Q488 152 398 262 L423 273 ZM329 388 L561 388 L561 359 L329 359 L329 -24 Q329 -54 306 -61 Q284 -67 202 -66 Q198 -53 190 -40 L284 -40 Q300 -39 300 -25 L300 359 L71 359 L71 388 L300 388 L300 519 L329 519 L329 388 ZM660 713 L689 713 L689 170 L660 170 L660 713 ZM898 812 L898 -21 Q898 -58 867 -67 Q840 -73 731 -72 Q726 -58 718 -44 Q823 -46 846 -44 Q869 -43 869 -22 L869 812 L898 812 Z" /><glyph glyph-name="" unicode="&#x524d;" d="M338 668 Q304 742 233 821 L258 832 Q328 752 365 681 L338 668 ZM437 193 L437 330 L161 330 L161 193 L437 193 ZM161 494 L161 359 L437 359 L437 494 L161 494 ZM466 -16 Q466 -51 438 -59 Q416 -65 301 -65 Q295 -49 288 -35 Q387 -38 417 -36 Q437 -35 437 -16 L437 164 L161 164 L161 -67 L132 -67 L132 523 L466 523 L466 -16 ZM626 514 L655 514 L655 104 L626 104 L626 514 ZM830 548 L859 548 L859 -15 Q859 -53 828 -61 Q805 -67 677 -67 Q676 -56 665 -37 Q782 -39 808 -37 Q830 -36 830 -16 L830 548 ZM938 662 L938 633 L61 633 L61 662 L641 662 Q703 746 749 836 L778 824 Q722 727 676 662 L938 662 Z" /><glyph glyph-name="" unicode="&#x2f12;&#x529b;&#xf98a;" d="M897 601 L896 580 Q863 20 805 -41 Q783 -67 736 -68 Q684 -70 576 -61 Q571 -38 566 -31 Q651 -39 732 -39 Q765 -39 779 -25 Q834 29 866 572 L464 572 Q436 153 85 -74 Q77 -63 64 -52 Q409 169 435 572 L90 572 L90 601 L435 601 Q437 630 437 687 L437 828 L466 828 L466 687 Q466 630 464 601 L897 601 Z" /><glyph glyph-name="" unicode="&#x529e;" d="M734 611 Q712 28 661 -28 Q639 -54 594 -55 Q548 -56 435 -49 Q433 -30 425 -18 Q498 -25 590 -25 Q622 -26 634 -11 Q681 36 704 604 L454 604 Q446 405 379 262 Q288 66 74 -72 Q64 -58 53 -50 Q407 177 425 604 L94 604 L94 633 L426 633 Q427 653 427 690 L427 831 L456 831 L456 690 Q456 653 455 633 L734 633 L734 611 ZM234 479 Q175 286 96 194 L71 211 Q157 305 208 488 L234 479 ZM825 493 Q917 321 941 184 L910 176 Q889 313 797 486 L825 493 Z" /><glyph glyph-name="" unicode="&#x529f;" d="M443 237 Q157 156 58 129 L50 158 L228 206 L228 672 L62 672 L62 701 L420 701 L420 672 L257 672 L257 214 L440 265 L443 237 ZM938 565 Q912 17 860 -39 Q838 -64 794 -65 Q736 -67 643 -59 Q638 -35 633 -29 Q715 -36 789 -36 Q821 -36 833 -22 Q883 28 908 557 L643 557 Q630 331 570 192 Q495 16 331 -71 Q325 -63 307 -50 Q467 32 542 203 Q600 337 614 557 L420 557 L420 586 L615 586 Q620 680 620 813 L649 813 Q649 679 644 586 L938 586 L938 565 Z" /><glyph glyph-name="" unicode="&#x52a0;" d="M478 618 Q451 43 400 -18 Q379 -43 342 -43 Q301 -45 237 -40 Q235 -21 228 -10 Q289 -15 338 -15 Q364 -15 374 0 Q422 52 448 611 L263 611 Q241 119 83 -62 Q71 -54 57 -48 Q212 125 234 611 L74 611 L74 640 L236 640 Q239 739 239 827 L268 827 Q268 728 264 640 L478 640 L478 618 ZM868 46 L868 666 L612 666 L612 46 L868 46 ZM897 695 L897 -53 L868 -53 L868 17 L612 17 L612 -60 L583 -60 L583 695 L897 695 Z" /><glyph glyph-name="" unicode="&#x52a1;" d="M851 270 Q850 257 849 252 Q819 -3 775 -43 Q757 -59 720 -60 Q655 -60 587 -55 Q585 -43 578 -26 Q647 -33 714 -33 Q743 -33 753 -24 Q791 10 818 241 L476 241 Q433 110 334 36 Q241 -33 75 -69 Q71 -52 62 -40 Q220 -12 310 52 Q404 119 444 241 L136 241 L136 270 L453 270 Q466 320 474 385 L505 382 Q498 324 485 270 L851 270 ZM334 691 L312 669 Q378 571 514 507 Q693 584 775 691 L334 691 ZM823 707 Q739 579 548 493 Q716 425 950 408 Q939 397 932 380 Q676 405 514 478 Q323 398 62 366 Q58 382 50 395 Q289 419 481 494 Q355 557 292 649 Q218 579 131 527 Q119 541 107 547 Q305 661 404 832 L439 826 Q402 769 360 720 L799 720 L806 722 L823 707 Z" /><glyph glyph-name="" unicode="&#x52a3;" d="M501 504 L472 504 L472 830 L501 830 L501 504 ZM322 760 Q242 613 106 510 Q93 523 81 529 Q218 628 293 768 L322 760 ZM758 626 Q610 436 77 365 Q73 374 58 394 Q578 445 729 639 L758 626 ZM854 292 L852 273 Q824 -6 782 -46 Q763 -63 722 -64 Q645 -64 569 -58 Q564 -38 558 -29 Q637 -37 716 -37 Q749 -37 759 -27 Q798 6 821 263 L473 263 Q437 129 350 53 Q253 -32 66 -70 Q60 -56 52 -46 Q231 -11 325 68 Q408 139 443 263 L125 263 L125 292 L449 292 Q462 346 468 415 L499 415 Q491 344 480 292 L854 292 ZM703 772 Q855 663 934 568 L911 548 Q829 649 680 756 L703 772 Z" /><glyph glyph-name="" unicode="&#x52a8;" d="M478 714 L98 714 L98 743 L478 743 L478 714 ZM468 57 Q463 77 441 141 Q111 79 88 66 L88 67 Q82 90 77 99 Q91 102 120 172 Q180 316 214 470 L60 470 L60 499 L497 499 L497 470 L244 470 Q197 269 125 110 L432 168 Q408 236 361 354 L387 361 Q456 201 497 69 L468 57 ZM938 564 Q919 20 873 -33 Q851 -57 809 -58 Q733 -58 666 -52 Q664 -35 657 -23 Q722 -29 805 -29 Q834 -31 846 -16 Q888 29 908 557 L710 557 Q683 96 501 -70 Q490 -58 473 -53 Q655 105 682 557 L511 557 L511 586 L683 586 Q688 684 688 813 L717 813 Q715 661 712 586 L938 586 L938 564 Z" /><glyph glyph-name="" unicode="&#x52a9;" d="M147 79 L392 133 L392 304 L147 304 L147 79 ZM147 746 L147 552 L392 552 L392 746 L147 746 ZM392 523 L147 523 L147 333 L392 333 L392 523 ZM490 126 Q406 108 254 73 L51 27 L44 57 L118 73 L118 775 L421 775 L421 140 L488 155 L490 126 ZM921 570 Q905 6 865 -41 Q847 -65 805 -66 Q754 -68 665 -61 Q661 -40 655 -32 Q719 -37 800 -37 Q828 -38 839 -24 Q878 19 891 563 L685 563 Q673 339 618 197 Q549 18 401 -74 Q392 -63 374 -53 Q628 96 656 563 L461 563 L461 592 L658 592 Q662 672 662 831 L691 831 Q691 672 687 592 L921 592 L921 570 Z" /><glyph glyph-name="" unicode="&#x52c7;" d="M809 577 L508 577 L508 482 L809 482 L809 577 ZM809 356 L809 453 L508 453 L508 356 L809 356 ZM479 356 L479 453 L177 453 L177 356 L479 356 ZM177 577 L177 482 L479 482 L479 577 L177 577 ZM307 708 Q412 696 527 669 Q658 705 748 753 L122 753 L122 782 L794 782 L802 784 L825 767 Q739 707 577 657 Q649 638 687 623 L676 606 L838 606 L838 255 L809 255 L809 327 L508 327 L508 264 L479 264 L479 327 L177 327 L177 255 L148 255 L148 606 L639 606 Q491 659 288 683 L307 708 ZM862 185 Q861 172 860 167 Q836 -21 801 -53 Q782 -67 746 -68 Q677 -68 607 -62 Q605 -49 597 -34 Q671 -41 739 -41 Q770 -41 779 -33 Q808 -9 828 156 L476 156 Q395 -27 69 -74 Q66 -64 54 -47 Q362 -5 443 156 L111 156 L111 185 L455 185 Q468 222 475 255 L506 255 Q499 219 488 185 L862 185 Z" /><glyph glyph-name="" unicode="&#x5305;" d="M253 661 Q170 540 72 460 Q62 469 45 479 Q222 613 316 835 L345 827 Q312 751 272 690 L857 690 L857 669 Q840 210 805 169 Q788 148 750 147 Q704 145 633 151 Q631 169 624 180 Q678 175 744 175 Q770 175 780 187 Q811 225 827 661 L253 661 ZM231 497 L231 283 L566 283 L566 497 L231 497 ZM809 -19 Q874 -19 895 9 Q914 35 921 123 Q934 113 951 109 Q942 13 918 -15 Q890 -48 804 -48 L371 -48 Q272 -48 238 -29 Q202 -8 202 54 L202 526 L595 526 L595 254 L231 254 L231 53 Q231 11 256 -3 Q283 -19 363 -19 L809 -19 Z" /><glyph glyph-name="" unicode="&#x5316;" d="M369 819 Q328 718 264 616 L264 -72 L235 -72 L235 571 Q167 467 79 381 Q66 396 57 404 Q238 571 342 827 L369 819 ZM846 -22 Q890 -22 904 23 Q917 62 923 201 Q940 190 952 186 Q946 41 929 0 Q908 -51 843 -51 L635 -51 Q575 -51 554 -33 Q533 -13 533 45 L533 290 Q463 241 368 189 Q357 202 346 210 Q449 265 533 324 L533 809 L562 809 L562 345 Q777 502 889 670 L919 653 Q795 474 562 310 L562 43 Q562 4 576 -9 Q590 -22 632 -22 L846 -22 Z" /><glyph glyph-name="" unicode="&#x5317;&#xf963;" d="M350 810 L379 810 L379 -64 L350 -64 L350 182 L63 60 L47 86 Q120 114 350 210 L350 530 L73 530 L73 560 L350 560 L350 810 ZM869 -15 Q909 -15 922 29 Q932 67 938 201 Q952 188 967 185 Q962 47 946 6 Q927 -44 867 -44 L680 -44 Q625 -44 606 -26 Q586 -7 586 47 L586 810 L616 810 L616 444 Q827 572 907 652 L932 629 Q835 543 616 414 L616 46 Q616 9 628 -3 Q640 -15 678 -15 L869 -15 Z" /><glyph glyph-name="" unicode="&#x533a;" d="M946 -10 L946 -39 L112 -39 L112 765 L922 765 L922 736 L142 736 L142 -10 L946 -10 ZM774 85 Q695 191 545 344 Q411 194 258 86 Q242 102 231 108 Q387 210 524 364 Q382 508 255 613 L278 630 Q403 525 544 386 Q666 528 744 671 L772 661 Q682 504 564 366 Q723 205 801 105 L774 85 Z" /><glyph glyph-name="" unicode="&#x2f17;&#x5341;" d="M944 414 L515 414 L515 -70 L486 -70 L486 414 L62 414 L62 443 L486 443 L486 829 L515 829 L515 443 L944 443 L944 414 Z" /><glyph glyph-name="" unicode="&#x5347;" d="M941 390 L712 390 L712 -72 L683 -72 L683 390 L325 390 Q321 238 276 140 Q217 12 70 -74 Q63 -62 49 -52 Q191 31 249 153 Q292 246 296 390 L59 390 L59 419 L296 419 L296 688 Q190 655 82 632 Q78 645 71 655 Q394 730 513 804 L542 783 Q468 741 325 696 L325 419 L683 419 L683 806 L712 806 L712 419 L941 419 L941 390 Z" /><glyph glyph-name="" unicode="&#x534e;" d="M539 577 Q465 555 376 532 Q373 544 364 556 Q477 586 539 605 L539 818 L568 818 L568 614 Q778 682 866 744 L894 723 Q782 652 568 586 L568 436 Q568 414 580 408 Q592 400 632 400 L842 400 Q874 400 884 422 Q893 443 896 521 Q906 513 925 507 Q921 424 907 399 Q891 371 842 371 L635 371 Q578 371 559 383 Q539 396 539 437 L539 577 ZM243 650 Q170 573 89 515 Q82 523 64 535 Q240 651 347 830 L375 821 Q335 753 272 682 L272 339 L243 339 L243 650 ZM940 187 L514 187 L514 -71 L485 -71 L485 187 L57 187 L57 216 L485 216 L485 340 L514 340 L514 216 L940 216 L940 187 Z" /><glyph glyph-name="" unicode="&#x534f;" d="M215 568 L215 -69 L186 -69 L186 568 L57 568 L57 597 L186 597 L186 831 L215 831 L215 597 L335 597 L335 568 L215 568 ZM442 465 Q401 286 334 179 Q320 193 309 200 Q378 304 411 471 L442 465 ZM817 614 Q800 13 759 -36 Q739 -62 696 -63 Q647 -65 556 -58 Q551 -35 547 -28 Q624 -34 692 -34 Q720 -34 732 -20 Q772 23 787 607 L603 607 Q593 166 306 -73 Q299 -63 283 -53 Q564 179 574 607 L369 607 L369 636 L575 636 L575 816 L604 816 L604 636 L817 636 L817 614 ZM888 466 Q939 322 956 196 L923 188 Q909 306 858 461 L888 466 Z" /><glyph glyph-name="" unicode="&#x5355;" d="M366 658 Q324 737 255 812 L278 826 Q357 740 391 675 L366 658 ZM483 304 L483 452 L189 452 L189 304 L483 304 ZM189 481 L483 481 L483 626 L189 626 L189 481 ZM820 626 L513 626 L513 481 L820 481 L820 626 ZM820 452 L513 452 L513 304 L820 304 L820 452 ZM943 122 L513 122 L513 -72 L483 -72 L483 122 L60 122 L60 151 L483 151 L483 275 L160 275 L160 655 L623 655 Q685 734 737 828 L765 814 Q714 729 655 655 L849 655 L849 275 L513 275 L513 151 L943 151 L943 122 Z" /><glyph glyph-name="" unicode="&#x5357;" d="M512 144 L512 -61 L483 -61 L483 144 L236 144 L236 173 L483 173 L483 311 L257 311 L257 340 L572 340 Q619 419 649 493 L676 482 Q636 397 601 340 L756 340 L756 311 L512 311 L512 173 L770 173 L770 144 L512 144 ZM344 488 Q398 418 414 360 L389 349 Q369 414 320 478 L344 488 ZM508 683 Q498 585 493 546 L869 546 L869 -18 Q869 -60 837 -68 Q812 -74 674 -74 Q668 -54 661 -41 Q763 -45 817 -42 Q840 -41 840 -19 L840 517 L165 517 L165 -71 L136 -71 L136 546 L466 546 Q474 605 480 683 L64 683 L64 712 L483 712 Q486 744 491 832 L521 827 Q514 737 511 712 L938 712 L938 683 L508 683 Z" /><glyph glyph-name="" unicode="&#x5361;" d="M562 281 Q757 206 889 139 L874 112 Q724 190 546 259 L562 281 ZM942 446 L942 417 L498 417 L498 -72 L469 -72 L469 417 L59 417 L59 446 L469 446 L469 831 L498 831 L498 664 L834 664 L834 635 L498 635 L498 446 L942 446 Z" /><glyph glyph-name="" unicode="&#x5373;" d="M153 747 L153 571 L441 571 L441 747 L153 747 ZM441 355 L441 542 L153 542 L153 355 L441 355 ZM353 250 Q443 114 496 -2 L471 -17 Q445 41 413 98 Q120 -16 102 -31 Q94 -13 86 -2 Q124 16 124 57 L124 775 L470 775 L470 327 L153 327 L153 30 L401 119 Q364 186 329 239 L353 250 ZM898 194 Q898 157 869 149 Q844 142 720 144 Q716 159 708 173 Q815 170 847 172 Q869 173 869 193 L869 740 L625 740 L625 -72 L596 -72 L596 769 L898 769 L898 194 Z" /><glyph glyph-name="" unicode="&#x5377;" d="M318 654 Q285 719 225 785 L249 798 Q315 727 342 669 L318 654 ZM714 -29 Q762 -29 777 -5 Q790 18 795 104 Q805 96 824 90 Q819 -2 800 -29 Q779 -58 713 -58 L407 -58 Q331 -58 306 -45 Q279 -31 279 13 L279 309 L698 309 Q698 297 697 291 Q686 138 664 116 Q647 102 614 102 Q563 100 478 106 Q476 122 468 134 Q528 128 605 128 Q633 128 641 135 Q658 152 667 280 L308 280 L308 13 Q308 -12 325 -20 Q344 -29 402 -29 L714 -29 ZM655 437 Q764 280 963 219 Q951 210 942 194 Q728 269 621 437 L358 437 Q241 285 63 200 Q57 209 43 221 Q209 300 321 437 L70 437 L70 466 L344 466 Q391 525 431 608 L133 608 L133 637 L445 637 Q488 735 502 831 L532 827 Q516 732 477 637 L633 637 Q694 705 748 798 L775 786 Q717 697 664 637 L860 637 L860 608 L464 608 Q426 529 381 466 L935 466 L935 437 L655 437 Z" /><glyph glyph-name="" unicode="&#x5378;" d="M543 117 L545 88 Q173 14 42 -13 L34 19 L131 37 L131 382 L160 382 L160 42 L293 68 L293 481 L54 481 L54 511 L293 511 L293 696 L183 696 Q144 612 91 551 Q81 561 65 569 Q158 667 204 836 L233 830 Q217 773 196 725 L524 725 L524 696 L323 696 L323 511 L535 511 L535 481 L323 481 L323 324 L513 324 L513 294 L323 294 L323 74 L543 117 ZM918 149 Q918 109 888 101 Q865 94 743 94 Q739 113 730 128 Q823 125 869 128 Q889 129 889 148 L889 741 L606 741 L606 -70 L576 -70 L576 770 L918 770 L918 149 Z" /><glyph glyph-name="" unicode="&#x2f1a;&#x5382;" d="M927 717 L183 717 L183 456 Q183 109 75 -65 Q65 -52 50 -47 Q154 119 154 456 L154 746 L927 746 L927 717 Z" /><glyph glyph-name="" unicode="&#x5386;" d="M873 473 Q848 13 799 -37 Q779 -60 736 -61 Q680 -63 582 -55 Q580 -37 572 -25 Q643 -32 730 -32 Q762 -33 773 -20 Q818 21 843 464 L523 464 Q508 261 451 145 Q382 4 230 -67 Q223 -57 208 -46 Q357 20 425 157 Q480 268 495 464 L251 464 L251 493 L497 493 Q502 583 503 682 L532 682 Q530 573 525 493 L873 493 L873 473 ZM942 742 L163 742 L163 488 Q163 124 72 -65 Q62 -53 48 -47 Q134 132 134 488 L134 771 L942 771 L942 742 Z" /><glyph glyph-name="" unicode="&#x538b;" d="M156 751 L156 459 Q156 107 69 -69 Q55 -55 44 -51 Q127 114 127 459 L127 780 L946 780 L946 751 L156 751 ZM951 7 L951 -22 L187 -22 L187 7 L550 7 L550 400 L256 400 L256 429 L550 429 L550 676 L579 676 L579 429 L892 429 L892 400 L579 400 L579 7 L951 7 ZM715 291 Q812 205 855 135 L829 118 Q779 198 692 275 L715 291 Z" /><glyph glyph-name="" unicode="&#x539f;" d="M412 185 Q318 62 228 -22 L202 -4 Q302 82 384 195 L412 185 ZM324 294 L816 294 L816 417 L324 417 L324 294 ZM324 446 L816 446 L816 568 L324 568 L324 446 ZM582 265 L582 -23 Q582 -56 554 -64 Q535 -69 401 -69 Q399 -62 388 -42 Q500 -45 532 -43 Q553 -42 553 -24 L553 265 L295 265 L295 597 L510 597 Q539 660 555 712 L585 703 L539 597 L845 597 L845 265 L582 265 ZM728 190 Q848 76 920 -10 L896 -28 Q823 62 704 176 L728 190 ZM935 734 L180 734 L180 487 Q180 130 72 -53 Q62 -41 48 -35 Q151 138 151 487 L151 763 L935 763 L935 734 Z" /><glyph glyph-name="" unicode="&#x53c2;" d="M856 575 Q820 615 781 645 Q215 617 187 607 Q185 622 178 641 Q202 642 244 670 Q345 727 447 828 L476 811 Q356 705 256 648 L750 672 Q672 732 599 776 L621 794 Q791 696 879 596 L856 575 ZM817 158 Q651 -13 212 -74 Q202 -54 196 -47 Q629 8 791 173 L817 158 ZM684 274 Q542 157 271 92 Q260 107 251 115 Q525 180 658 288 L684 274 ZM589 395 Q479 300 285 237 Q270 255 263 259 Q459 321 563 407 L589 395 ZM645 475 Q765 326 955 255 Q942 246 933 231 Q726 317 609 475 L396 475 Q280 316 79 219 Q67 234 55 243 Q244 325 360 475 L59 475 L59 504 L381 504 Q420 559 448 627 L478 619 Q452 559 417 504 L942 504 L942 475 L645 475 Z" /><glyph glyph-name="" unicode="&#x53ca;" d="M318 693 Q409 313 626 127 Q803 271 866 496 L590 496 Q618 577 659 744 L318 744 L318 693 ZM901 518 Q837 264 648 108 Q776 6 951 -38 Q939 -50 931 -64 Q755 -16 625 89 Q487 -15 289 -67 Q283 -51 272 -40 Q461 2 602 109 Q411 276 318 596 Q310 193 69 -49 Q63 -38 47 -27 Q200 125 254 321 Q289 446 289 643 L289 744 L96 744 L96 773 L695 773 Q663 643 628 525 L878 525 L883 527 L901 518 Z" /><glyph glyph-name="" unicode="&#x53cc;" d="M426 55 Q388 138 314 258 Q219 45 72 -70 Q61 -54 49 -47 Q197 62 296 288 Q192 453 97 572 L121 586 Q220 458 310 320 Q381 499 408 720 L73 720 L73 749 L415 749 L421 751 L440 745 Q409 485 328 291 Q410 161 453 71 L426 55 ZM570 720 Q612 428 700 241 Q825 440 871 720 L570 720 ZM904 744 Q859 435 716 209 Q809 32 959 -49 Q943 -63 935 -75 Q790 11 697 182 Q584 19 427 -71 Q420 -59 406 -47 Q565 40 682 212 Q587 402 540 720 L496 720 L496 749 L879 749 L885 751 L904 744 Z" /><glyph glyph-name="" unicode="&#x53cd;" d="M341 480 Q411 274 553 147 Q712 285 776 480 L341 480 ZM815 501 Q749 279 576 127 Q718 11 920 -35 Q907 -46 900 -62 Q692 -10 553 108 Q407 -12 218 -67 Q213 -56 201 -39 Q388 12 530 127 Q381 264 309 480 L221 480 L221 479 Q221 110 96 -76 Q89 -66 71 -57 Q192 121 192 479 L192 740 Q631 771 801 816 L827 792 Q622 741 221 716 L221 509 L788 509 L795 511 L815 501 Z" /><glyph glyph-name="" unicode="&#x53d1;" d="M817 637 Q763 705 678 790 L701 805 Q784 723 839 656 L817 637 ZM391 397 Q458 238 583 129 Q709 239 767 397 L391 397 ZM805 418 Q747 237 604 112 Q748 -5 950 -50 Q940 -59 931 -74 Q729 -26 583 93 Q447 -19 260 -73 Q255 -63 244 -50 Q429 2 562 112 Q441 218 373 370 Q264 145 65 11 Q57 21 42 30 Q308 209 411 557 L263 557 Q172 557 155 546 Q147 575 145 579 Q156 581 175 616 Q221 703 239 795 L273 786 Q241 674 197 587 L419 587 Q447 685 466 831 L499 826 Q479 685 451 587 L915 587 L915 557 L443 557 Q422 483 398 426 L780 426 L786 428 L805 418 Z" /><glyph glyph-name="" unicode="&#x53d6;" d="M159 130 Q358 165 385 169 L385 331 L159 331 L159 130 ZM159 747 L159 570 L385 570 L385 747 L159 747 ZM159 360 L385 360 L385 541 L159 541 L159 360 ZM414 147 L414 -70 L385 -70 L385 141 Q184 103 54 80 L44 111 L130 125 L130 747 L51 747 L51 776 L501 776 L501 747 L414 747 L414 175 L506 192 L508 164 L414 147 ZM595 680 Q638 395 723 223 Q838 421 880 680 L595 680 ZM913 705 Q867 403 738 192 Q824 35 955 -38 Q941 -48 931 -62 Q806 14 721 163 Q627 17 504 -70 Q499 -62 483 -46 Q607 37 705 194 Q611 375 566 680 L501 680 L501 709 L888 709 L894 711 L913 705 Z" /><glyph glyph-name="" unicode="&#x53d8;" d="M375 694 L75 694 L75 723 L515 723 Q488 778 451 828 L477 837 Q522 779 547 723 L926 723 L926 694 L624 694 L624 365 L595 365 L595 694 L405 694 L405 363 L375 363 L375 694 ZM731 623 Q847 509 904 410 L877 398 Q821 495 706 614 L731 623 ZM286 627 Q234 496 141 402 Q128 413 115 419 Q205 505 257 634 L286 627 ZM258 301 Q343 174 498 90 Q665 176 747 301 L258 301 ZM795 317 Q710 172 528 74 Q708 -15 946 -46 Q936 -57 929 -72 Q684 -38 500 59 Q331 -27 83 -73 Q76 -59 65 -46 Q301 -6 470 76 Q311 166 226 301 L143 301 L143 330 L769 330 L777 332 L795 317 Z" /><glyph glyph-name="" unicode="&#x53e0;" d="M876 246 L876 339 L126 339 L126 246 L97 246 L97 368 L905 368 L905 246 L876 246 ZM491 585 L867 585 L874 587 L893 574 Q848 516 749 472 Q839 446 902 420 L885 395 Q816 424 708 455 Q616 420 502 400 Q497 414 485 426 Q577 439 665 467 Q630 477 513 504 L528 527 Q622 507 710 483 Q788 514 838 556 L491 556 L491 585 ZM821 617 Q697 653 535 678 Q392 639 177 618 Q172 632 160 646 Q341 661 468 690 Q351 706 232 716 L243 740 Q408 727 537 706 Q641 735 702 772 L192 772 L192 801 L743 801 L750 803 L770 787 Q708 735 593 697 Q734 673 836 643 L821 617 ZM412 400 Q361 429 285 458 Q193 419 76 397 Q68 412 57 422 Q158 438 248 472 Q182 494 118 510 L133 532 Q207 515 286 487 Q366 523 404 561 L89 561 L89 590 L431 590 L438 592 L459 579 Q415 522 321 474 Q398 443 430 423 L412 400 ZM258 -20 L734 -20 L734 53 L258 53 L258 -20 ZM258 246 L258 180 L734 180 L734 246 L258 246 ZM734 151 L258 151 L258 82 L734 82 L734 151 ZM941 -20 L941 -49 L59 -49 L59 -20 L229 -20 L229 275 L763 275 L763 -20 L941 -20 Z" /><glyph glyph-name="" unicode="&#x2f1d;&#x53e3;" d="M828 78 L828 690 L177 690 L177 78 L828 78 ZM857 719 L857 -33 L828 -33 L828 49 L177 49 L177 -41 L148 -41 L148 719 L857 719 Z" /><glyph glyph-name="" unicode="&#x53e6;" d="M799 750 L201 750 L201 516 L799 516 L799 750 ZM828 487 L172 487 L172 779 L828 779 L828 487 ZM867 317 Q866 303 865 298 Q844 -5 805 -44 Q786 -63 745 -64 Q691 -66 590 -58 Q588 -41 580 -29 Q650 -36 738 -36 Q770 -36 780 -26 Q815 5 835 288 L475 288 Q438 151 354 68 Q255 -28 75 -73 Q69 -59 57 -47 Q371 26 445 288 L111 288 L111 317 L451 317 Q463 363 472 442 L503 442 Q496 379 483 317 L867 317 Z" /><glyph glyph-name="" unicode="&#x53ea;" d="M634 213 Q824 77 936 -53 L911 -74 Q809 51 611 197 L634 213 ZM376 201 Q270 45 71 -75 Q65 -66 51 -52 Q249 61 347 211 L376 201 ZM198 356 L802 356 L802 725 L198 725 L198 356 ZM831 754 L831 327 L169 327 L169 754 L831 754 Z" /><glyph glyph-name="" unicode="&#x53ef;" d="M205 514 L205 215 L539 215 L539 514 L205 514 ZM205 186 L205 103 L176 103 L176 543 L568 543 L568 186 L205 186 ZM940 726 L810 726 L810 -7 Q810 -56 771 -64 Q746 -69 579 -69 Q575 -57 565 -35 Q684 -39 754 -36 Q781 -33 781 -7 L781 726 L63 726 L63 755 L940 755 L940 726 Z" /><glyph glyph-name="" unicode="&#x53f0;" d="M226 302 L226 17 L774 17 L774 302 L226 302 ZM197 331 L803 331 L803 -67 L774 -67 L774 -12 L226 -12 L226 -71 L197 -71 L197 331 ZM883 387 Q857 429 812 484 Q150 443 123 433 Q121 448 113 464 Q135 468 193 526 Q324 646 444 821 L473 807 Q303 586 173 472 L791 508 Q709 602 616 680 L640 696 Q824 546 910 405 L883 387 Z" /><glyph glyph-name="" unicode="&#x53f3;" d="M309 342 L309 15 L827 15 L827 342 L309 342 ZM402 599 Q354 474 289 371 L856 371 L856 -68 L827 -68 L827 -14 L309 -14 L309 -73 L280 -73 L280 358 Q187 220 62 133 Q55 146 42 155 Q254 302 371 599 L73 599 L73 628 L382 628 Q417 726 440 831 L471 824 Q446 721 413 628 L933 628 L933 599 L402 599 Z" /><glyph glyph-name="" unicode="&#x53f7;" d="M773 754 L227 754 L227 576 L773 576 L773 754 ZM802 547 L198 547 L198 783 L802 783 L802 547 ZM329 400 Q298 304 276 251 L799 251 Q798 238 797 233 Q758 -11 705 -54 Q686 -70 641 -71 Q557 -71 474 -64 Q472 -45 465 -35 Q548 -44 636 -44 Q673 -44 684 -35 Q731 3 765 222 L249 222 L249 223 L231 223 Q254 271 298 400 L73 400 L73 429 L925 429 L925 400 L329 400 Z" /><glyph glyph-name="" unicode="&#x53f8;" d="M206 392 L206 150 L599 150 L599 392 L206 392 ZM628 121 L206 121 L206 46 L177 46 L177 421 L628 421 L628 121 ZM714 563 L102 563 L102 592 L714 592 L714 563 ZM871 1 Q871 -46 835 -54 Q812 -59 656 -59 Q653 -44 643 -26 Q759 -29 818 -26 Q843 -25 843 0 L843 732 L98 732 L98 761 L871 761 L871 1 Z" /><glyph glyph-name="" unicode="&#x5404;" d="M237 241 L237 7 L751 7 L751 241 L237 241 ZM208 270 L780 270 L780 -75 L751 -75 L751 -22 L237 -22 L237 -78 L208 -78 L208 270 ZM292 668 Q374 564 503 478 Q658 580 735 687 L309 687 L292 668 ZM783 704 Q702 577 528 461 Q728 332 954 280 Q947 272 935 255 Q702 314 504 446 Q293 313 49 253 Q46 266 34 280 Q265 332 478 462 Q352 550 272 649 Q192 567 93 504 L68 524 Q276 649 385 836 L414 826 Q374 763 334 716 L759 716 L765 718 L783 704 Z" /><glyph glyph-name="" unicode="&#x5408;" d="M236 287 L236 29 L772 29 L772 287 L236 287 ZM207 316 L801 316 L801 -65 L772 -65 L772 0 L236 0 L236 -69 L207 -69 L207 316 ZM754 499 L754 470 L246 470 L246 499 L754 499 ZM550 818 L535 796 Q526 782 520 774 Q661 602 958 462 Q944 452 935 437 Q652 576 503 753 Q333 540 72 434 Q58 450 51 455 Q365 578 525 830 L550 818 Z" /><glyph glyph-name="" unicode="&#x540c;" d="M330 414 L330 172 L670 172 L670 414 L330 414 ZM330 143 L330 63 L301 63 L301 443 L699 443 L699 143 L330 143 ZM763 577 L246 577 L246 606 L763 606 L763 577 ZM902 -18 Q902 -58 869 -67 Q839 -73 712 -72 Q706 -56 698 -44 Q802 -47 847 -44 Q873 -43 873 -19 L873 745 L129 745 L129 -74 L100 -74 L100 774 L902 774 L902 -18 Z" /><glyph glyph-name="" unicode="&#x540e;" d="M336 317 L336 14 L831 14 L831 317 L336 317 ZM307 346 L860 346 L860 -73 L831 -73 L831 -15 L336 -15 L336 -73 L307 -73 L307 346 ZM940 550 L940 521 L192 521 L192 492 Q192 120 68 -73 Q57 -57 44 -51 Q163 129 163 492 L163 734 Q631 768 835 816 L863 793 Q628 740 192 710 L192 550 L940 550 Z" /><glyph glyph-name="" unicode="&#x5411;" d="M334 425 L334 166 L667 166 L667 425 L334 425 ZM334 136 L334 62 L305 62 L305 455 L696 455 L696 136 L334 136 ZM896 -10 Q896 -57 859 -65 Q830 -70 676 -70 Q667 -44 663 -36 Q776 -40 841 -37 Q867 -36 867 -11 L867 623 L140 623 L140 -71 L111 -71 L111 653 L384 653 Q426 734 461 835 L493 826 Q442 704 416 653 L896 653 L896 -10 Z" /><glyph glyph-name="" unicode="&#x541b;" d="M432 575 Q410 499 375 428 L799 428 L799 575 L432 575 ZM476 749 Q463 677 441 604 L799 604 L799 749 L476 749 ZM299 241 L299 14 L828 14 L828 241 L299 241 ZM361 399 Q319 320 280 270 L857 270 L857 -74 L828 -74 L828 -15 L299 -15 L299 -74 L270 -74 L270 258 Q184 154 66 87 L47 110 Q225 210 327 399 L157 399 L157 428 L343 428 Q376 496 401 575 L59 575 L59 604 L410 604 Q429 669 444 749 L163 749 L163 778 L828 778 L828 604 L942 604 L942 575 L828 575 L828 399 L361 399 Z" /><glyph glyph-name="" unicode="&#x542f;" d="M526 691 Q506 744 455 820 L479 831 Q527 767 553 704 L526 691 ZM191 652 L191 468 L820 468 L820 652 L191 652 ZM191 439 Q189 104 67 -71 Q58 -59 43 -51 Q162 120 162 455 L162 681 L849 681 L849 439 L191 439 ZM831 39 L831 269 L292 269 L292 39 L831 39 ZM860 298 L860 -66 L831 -66 L831 10 L292 10 L292 -69 L263 -69 L263 298 L860 298 Z" /><glyph glyph-name="" unicode="&#x5468;" d="M485 458 L485 592 L276 592 L276 621 L485 621 L485 728 L514 728 L514 621 L735 621 L735 592 L514 592 L514 458 L764 458 L764 429 L248 429 L248 458 L485 458 ZM339 288 L339 95 L671 95 L671 288 L339 288 ZM339 66 L339 9 L310 9 L310 317 L700 317 L700 66 L339 66 ZM857 -13 Q857 -55 822 -64 Q798 -70 655 -70 Q652 -58 642 -40 Q751 -43 802 -40 Q828 -39 828 -14 L828 753 L198 753 L198 482 Q198 108 66 -78 Q54 -64 44 -57 Q169 120 169 482 L169 782 L857 782 L857 -13 Z" /><glyph glyph-name="" unicode="&#x547d;" d="M173 396 L173 130 L392 130 L392 396 L173 396 ZM421 101 L173 101 L173 11 L144 11 L144 425 L421 425 L421 101 ZM681 533 L310 533 L310 562 L681 562 L681 533 ZM860 136 Q860 100 833 91 Q813 85 678 85 Q676 92 665 115 Q767 112 810 115 Q831 116 831 136 L831 398 L585 398 L585 -71 L556 -71 L556 427 L860 427 L860 136 ZM528 821 L514 799 Q676 591 953 506 Q938 495 929 476 Q663 569 498 778 Q334 563 67 470 Q61 485 49 501 Q182 541 309 636 Q434 729 503 837 L528 821 Z" /><glyph glyph-name="" unicode="&#x548c;" d="M299 537 L503 537 L503 508 L299 508 L299 474 Q399 368 482 257 L459 233 Q389 332 299 435 L299 -68 L270 -68 L270 450 Q174 224 51 99 Q45 111 30 124 Q177 270 263 508 L57 508 L57 537 L270 537 L270 741 Q188 725 82 713 Q80 723 72 738 Q358 776 462 819 L485 796 Q423 770 299 746 L299 537 ZM860 85 L860 708 L574 708 L574 85 L860 85 ZM889 737 L889 -23 L860 -23 L860 56 L574 56 L574 -30 L545 -30 L545 737 L889 737 Z" /><glyph glyph-name="" unicode="&#x54c1;" d="M728 756 L279 756 L279 510 L728 510 L728 756 ZM757 481 L250 481 L250 785 L757 785 L757 481 ZM125 322 L125 17 L396 17 L396 322 L125 322 ZM96 351 L425 351 L425 -59 L396 -59 L396 -12 L125 -12 L125 -71 L96 -71 L96 351 ZM886 17 L886 322 L589 322 L589 17 L886 17 ZM915 351 L915 -63 L886 -63 L886 -12 L589 -12 L589 -71 L560 -71 L560 351 L915 351 Z" /><glyph glyph-name="" unicode="&#x54ea;" d="M112 698 L112 228 L242 228 L242 698 L112 698 ZM271 199 L112 199 L112 96 L83 96 L83 727 L271 727 L271 199 ZM577 295 L578 509 L462 509 Q462 392 448 295 L577 295 ZM462 538 L578 538 L579 748 L462 748 L462 538 ZM608 753 Q607 -1 583 -42 Q567 -68 530 -70 Q481 -72 434 -68 Q432 -47 425 -38 Q470 -41 527 -41 Q547 -41 555 -24 Q572 4 576 266 L445 266 Q408 57 298 -73 Q289 -57 275 -52 Q382 72 415 266 L317 266 L317 295 L419 295 Q433 383 433 509 L318 509 L318 538 L433 538 L433 748 L320 748 L320 777 L608 777 L608 753 ZM937 766 Q877 596 822 464 Q930 342 932 206 Q932 116 898 90 Q881 77 851 74 Q819 71 785 74 Q783 90 773 103 Q808 99 842 101 Q864 102 879 113 Q903 131 903 206 Q903 333 790 460 Q851 607 899 748 L723 748 L723 -71 L694 -71 L694 777 L913 777 L918 779 L937 766 Z" /><glyph glyph-name="" unicode="&#x552e;" d="M218 184 L218 13 L797 13 L797 184 L218 184 ZM189 213 L826 213 L826 -72 L797 -72 L797 -16 L218 -16 L218 -72 L189 -72 L189 213 ZM216 335 L520 335 L520 436 L216 436 L216 335 ZM520 681 L216 681 L216 589 L520 589 L520 681 ZM520 560 L216 560 L216 465 L520 465 L520 560 ZM885 335 L885 306 L216 306 L216 259 L187 259 L187 653 Q133 577 69 519 Q56 532 44 538 Q180 653 255 830 L285 822 Q264 775 226 710 L539 710 Q517 759 476 822 L502 830 Q545 769 571 710 L864 710 L864 681 L549 681 L549 589 L819 589 L819 560 L549 560 L549 465 L824 465 L824 436 L549 436 L549 335 L885 335 Z" /><glyph glyph-name="" unicode="&#x5546;" d="M423 438 Q343 338 246 266 Q237 277 221 287 Q326 360 394 449 L423 438 ZM355 245 L355 92 L642 92 L642 245 L355 245 ZM355 63 L355 10 L326 10 L326 274 L671 274 L671 63 L355 63 ZM781 273 Q682 359 578 429 L597 451 Q736 355 799 299 L781 273 ZM869 -15 Q869 -51 839 -59 Q815 -64 678 -64 Q675 -52 665 -37 Q771 -40 816 -37 Q840 -36 840 -15 L840 484 L164 484 L164 -70 L135 -70 L135 513 L593 513 Q646 580 689 661 L720 651 Q674 574 625 513 L869 513 L869 -15 ZM310 665 Q358 598 381 551 L358 536 Q325 597 287 654 L310 665 ZM933 710 L933 681 L68 681 L68 710 L504 710 Q484 767 457 824 L481 832 Q518 755 533 710 L933 710 Z" /><glyph glyph-name="" unicode="&#x559c;" d="M483 718 L83 718 L83 748 L483 748 L483 831 L514 831 L514 748 L922 748 L922 718 L514 718 L514 622 L847 622 L847 593 L158 593 L158 622 L483 622 L483 718 ZM222 134 L222 -5 L779 -5 L779 134 L222 134 ZM192 164 L809 164 L809 -69 L779 -69 L779 -34 L222 -34 L222 -71 L192 -71 L192 164 ZM759 387 L759 497 L237 497 L237 387 L759 387 ZM944 269 L944 239 L57 239 L57 269 L331 269 Q317 312 290 348 L316 358 Q348 317 364 269 L626 269 Q654 312 674 358 L208 358 L208 526 L788 526 L788 358 L692 358 L705 351 Q680 303 658 269 L944 269 Z" /><glyph glyph-name="" unicode="&#x5609;" d="M476 151 L474 133 Q458 -28 433 -50 Q416 -64 386 -64 Q324 -64 281 -60 Q279 -45 272 -32 Q319 -37 380 -37 Q405 -37 411 -30 Q431 -10 444 122 L265 122 Q221 -19 69 -71 Q60 -57 49 -50 Q193 -2 234 122 L82 122 L82 151 L242 151 Q250 184 255 229 L285 229 Q280 184 272 151 L476 151 ZM584 152 L584 0 L855 0 L855 152 L584 152 ZM555 181 L884 181 L884 -65 L855 -65 L855 -29 L584 -29 L584 -70 L555 -70 L555 181 ZM214 401 L797 401 L797 509 L214 509 L214 401 ZM690 359 Q663 312 635 275 L924 275 L924 246 L73 246 L73 275 L604 275 Q634 316 663 372 L333 372 Q375 332 390 293 L363 278 Q344 326 305 363 L322 372 L185 372 L185 538 L826 538 L826 372 L666 372 L690 359 ZM932 750 L932 721 L513 721 L513 638 L867 638 L867 609 L135 609 L135 638 L484 638 L484 721 L72 721 L72 750 L484 750 L484 830 L513 830 L513 750 L932 750 Z" /><glyph glyph-name="" unicode="&#x5668;" d="M832 753 L590 753 L590 560 L832 560 L832 753 ZM861 531 L561 531 L561 782 L861 782 L861 531 ZM767 410 Q719 450 621 486 L639 507 Q729 477 785 435 L767 410 ZM399 753 L166 753 L166 560 L399 560 L399 753 ZM428 531 L137 531 L137 782 L428 782 L428 531 ZM824 -7 L824 202 L585 202 L585 -7 L824 -7 ZM409 202 L182 202 L182 -7 L409 -7 L409 202 ZM629 379 Q754 260 957 212 Q947 204 936 187 Q886 202 853 216 L853 -64 L824 -64 L824 -36 L585 -36 L585 -70 L556 -70 L556 231 L815 231 Q672 294 593 379 L389 379 Q311 296 197 231 L438 231 L438 -64 L409 -64 L409 -36 L182 -36 L182 -70 L153 -70 L153 209 Q105 184 61 169 Q57 177 41 190 Q226 257 350 379 L59 379 L59 408 L378 408 Q431 466 462 532 L495 527 Q462 460 416 408 L942 408 L942 379 L629 379 Z" /><glyph glyph-name="" unicode="&#x566a;" d="M778 756 L497 756 L497 610 L778 610 L778 756 ZM807 581 L468 581 L468 785 L807 785 L807 581 ZM700 343 L886 343 L886 497 L700 497 L700 343 ZM671 526 L915 526 L915 314 L671 314 L671 526 ZM568 497 L387 497 L387 343 L568 343 L568 497 ZM597 314 L358 314 L358 526 L597 526 L597 314 ZM117 705 L117 199 L260 199 L260 705 L117 705 ZM117 170 L117 95 L88 95 L88 734 L289 734 L289 170 L117 170 ZM688 192 Q796 56 956 -7 Q949 -12 933 -31 Q762 47 654 192 L648 192 L648 -72 L619 -72 L619 192 L616 192 Q505 41 300 -40 Q291 -26 278 -16 Q466 49 581 192 L335 192 L335 221 L619 221 L619 307 L648 307 L648 221 L944 221 L944 192 L688 192 Z" /><glyph glyph-name="" unicode="&#x56db;" d="M868 76 L868 710 L614 710 L614 347 Q614 306 644 306 L774 306 Q808 306 827 309 L831 281 Q821 279 775 279 L644 279 Q609 279 597 293 Q585 308 585 348 L585 710 L403 710 Q397 466 360 365 Q313 239 178 181 Q172 191 158 203 Q288 257 333 378 Q368 474 373 710 L129 710 L129 76 L868 76 ZM897 739 L897 -29 L868 -29 L868 47 L129 47 L129 -37 L100 -37 L100 739 L897 739 Z" /><glyph glyph-name="" unicode="&#x56de;" d="M654 530 L344 530 L344 244 L654 244 L654 530 ZM683 559 L683 215 L315 215 L315 559 L683 559 ZM878 14 L878 754 L123 754 L123 14 L878 14 ZM907 783 L907 -69 L878 -69 L878 -15 L123 -15 L123 -69 L94 -69 L94 783 L907 783 Z" /><glyph glyph-name="" unicode="&#x56e0;" d="M508 479 Q505 459 497 421 Q697 234 798 82 L774 64 Q668 223 490 392 Q428 154 227 59 Q217 72 204 82 Q429 180 478 479 L193 479 L193 508 L483 508 Q494 582 499 704 L528 704 Q523 596 512 508 L806 508 L806 479 L508 479 ZM878 14 L878 754 L123 754 L123 14 L878 14 ZM907 783 L907 -69 L878 -69 L878 -15 L123 -15 L123 -69 L94 -69 L94 783 L907 783 Z" /><glyph glyph-name="" unicode="&#x56e2;" d="M794 522 L605 522 L605 140 Q605 107 579 100 Q560 94 457 94 Q454 106 445 122 Q538 120 558 122 Q576 122 576 139 L576 477 Q448 306 232 177 Q221 190 210 197 Q446 333 569 522 L215 522 L215 551 L576 551 L576 698 L605 698 L605 551 L794 551 L794 522 ZM875 6 L875 752 L125 752 L125 6 L875 6 ZM904 781 L904 -71 L875 -71 L875 -23 L125 -23 L125 -71 L96 -71 L96 781 L904 781 Z" /><glyph glyph-name="" unicode="&#x56fa;" d="M684 354 L330 354 L330 152 L684 152 L684 354 ZM516 532 L516 383 L713 383 L713 123 L301 123 L301 383 L487 383 L487 532 L217 532 L217 561 L487 561 L487 695 L516 695 L516 561 L800 561 L800 532 L516 532 ZM871 7 L871 750 L132 750 L132 7 L871 7 ZM900 779 L900 -73 L871 -73 L871 -22 L132 -22 L132 -73 L103 -73 L103 779 L900 779 Z" /><glyph glyph-name="" unicode="&#x56fd;" d="M796 164 L796 135 L217 135 L217 164 L481 164 L481 384 L266 384 L266 413 L481 413 L481 604 L236 604 L236 633 L770 633 L770 604 L510 604 L510 413 L743 413 L743 384 L510 384 L510 164 L796 164 ZM625 341 Q703 277 745 218 L722 201 Q683 260 603 327 L625 341 ZM877 7 L877 750 L124 750 L124 7 L877 7 ZM906 779 L906 -73 L877 -73 L877 -22 L124 -22 L124 -73 L95 -73 L95 779 L906 779 Z" /><glyph glyph-name="" unicode="&#x5706;" d="M688 657 L305 657 L305 552 L688 552 L688 657 ZM717 523 L276 523 L276 686 L717 686 L717 523 ZM274 172 L245 172 L245 444 L751 444 L751 172 L722 172 L722 415 L274 415 L274 172 ZM517 314 Q517 232 467 177 Q391 94 190 42 Q185 56 173 68 Q368 112 441 189 Q488 239 488 314 L488 377 L517 377 L517 314 ZM530 205 Q690 128 794 61 L777 37 Q669 109 512 185 L530 205 ZM877 4 L877 754 L121 754 L121 4 L877 4 ZM906 783 L906 -69 L877 -69 L877 -25 L121 -25 L121 -69 L92 -69 L92 783 L906 783 Z" /><glyph glyph-name="" unicode="&#x5728;" d="M369 630 Q312 508 245 419 L245 -66 L216 -66 L216 380 Q149 301 73 243 Q63 256 53 264 Q227 394 337 630 L70 630 L70 659 L350 659 Q385 735 412 830 L442 822 Q418 741 382 659 L930 659 L930 630 L369 630 ZM933 -19 L933 -48 L323 -48 L323 -19 L611 -19 L611 320 L364 320 L364 349 L611 349 L611 569 L640 569 L640 349 L894 349 L894 320 L640 320 L640 -19 L933 -19 Z" /><glyph glyph-name="" unicode="&#x5730;" d="M220 206 L287 235 Q329 252 355 264 L361 237 Q159 149 58 107 L46 136 Q116 162 191 195 L191 552 L50 552 L50 581 L191 581 L191 821 L220 821 L220 581 L354 581 L354 552 L220 552 L220 206 ZM843 -17 Q888 -17 903 15 Q917 44 922 143 Q936 132 951 129 Q945 24 927 -8 Q905 -45 839 -45 L559 -45 Q487 -45 463 -26 Q437 -7 437 52 L437 425 L332 381 L320 408 L437 457 L437 741 L466 741 L466 469 L653 547 L653 831 L682 831 L682 560 L868 637 L887 656 L908 647 L906 639 Q906 285 893 238 Q884 191 837 189 Q812 188 752 188 Q748 207 742 218 Q773 216 828 216 Q858 216 866 249 Q877 288 877 608 L682 527 L682 143 L653 143 L653 516 L466 437 L466 50 Q466 11 483 -3 Q501 -17 554 -17 L843 -17 Z" /><glyph glyph-name="" unicode="&#x573a;" d="M348 221 L353 193 L56 77 L45 107 L196 163 L196 552 L60 552 L60 581 L196 581 L196 821 L225 821 L225 581 L347 581 L347 552 L225 552 L225 174 L348 221 ZM922 497 L920 476 Q892 17 842 -39 Q821 -61 787 -61 Q750 -63 690 -58 Q690 -42 682 -29 Q726 -33 783 -33 Q806 -34 816 -21 Q862 25 891 468 L790 468 Q675 100 391 -76 Q384 -67 366 -54 Q646 105 760 468 L649 468 Q579 276 405 154 Q399 164 381 175 Q545 281 617 468 L484 468 Q412 468 400 459 Q396 475 386 489 Q414 492 482 537 Q616 623 753 752 L375 752 L375 781 L783 781 L791 785 L819 767 Q603 583 462 497 L922 497 Z" /><glyph glyph-name="" unicode="&#x5740;" d="M395 252 Q129 137 57 107 L45 136 Q111 161 206 202 L206 552 L55 552 L55 581 L206 581 L206 819 L235 819 L235 581 L382 581 L382 552 L235 552 L235 214 L311 247 Q358 267 389 279 L395 252 ZM952 -6 L952 -35 L312 -35 L312 -6 L452 -6 L452 613 L481 613 L481 -6 L674 -6 L674 824 L703 824 L703 470 L942 470 L942 441 L703 441 L703 -6 L952 -6 Z" /><glyph glyph-name="" unicode="&#x5747;" d="M223 174 Q250 186 302 211 L383 249 L390 222 L58 63 L45 92 Q119 125 194 160 L194 552 L49 552 L49 581 L194 581 L194 821 L223 821 L223 581 L358 581 L358 552 L223 552 L223 174 ZM796 269 Q622 171 425 67 L409 98 Q521 152 788 295 L796 269 ZM687 309 Q616 384 488 485 L508 503 Q634 407 708 331 L687 309 ZM917 638 Q897 12 848 -44 Q825 -71 779 -72 Q714 -74 613 -66 Q609 -44 604 -35 Q680 -42 775 -42 Q807 -43 820 -28 Q869 21 887 631 L523 631 Q460 523 389 450 Q375 464 364 471 Q506 606 583 831 L611 824 Q586 748 540 660 L917 660 L917 638 Z" /><glyph glyph-name="" unicode="&#x5750;" d="M912 344 Q841 443 715 567 Q653 442 554 361 Q550 367 532 385 Q699 511 757 778 L786 773 Q766 677 727 592 Q861 465 934 363 L912 344 ZM410 391 Q334 481 240 572 Q176 426 70 335 Q66 340 47 357 Q214 492 274 779 L305 774 Q284 681 252 598 Q366 489 432 410 L410 391 ZM942 0 L942 -29 L60 -29 L60 0 L484 0 L484 243 L130 243 L130 272 L484 272 L484 816 L513 816 L513 272 L880 272 L880 243 L513 243 L513 0 L942 0 Z" /><glyph glyph-name="" unicode="&#x5761;" d="M357 235 Q235 182 57 107 L45 136 L194 196 L194 552 L55 552 L55 581 L194 581 L194 821 L223 821 L223 581 L342 581 L342 552 L223 552 L223 209 L286 236 Q329 253 351 263 L357 235 ZM506 402 Q562 239 675 124 Q799 242 849 402 L506 402 ZM436 641 L436 431 L646 431 L646 641 L436 641 ZM888 423 Q832 233 696 103 Q805 2 950 -41 Q938 -53 930 -66 Q788 -21 675 84 Q560 -18 411 -70 Q401 -53 392 -45 Q538 3 655 104 Q535 226 476 402 L436 402 Q434 97 277 -58 Q268 -45 254 -37 Q407 111 407 417 L407 670 L646 670 L646 830 L675 830 L675 670 L919 670 L925 672 L945 663 Q902 529 881 477 L853 485 Q879 540 906 641 L675 641 L675 431 L862 431 L869 433 L888 423 Z" /><glyph glyph-name="" unicode="&#x578b;" d="M878 363 Q878 327 849 319 Q826 313 707 313 Q704 328 694 344 Q804 341 829 344 Q849 345 849 363 L849 830 L878 830 L878 363 ZM688 443 L659 443 L659 774 L688 774 L688 443 ZM249 586 L413 586 L413 756 L249 756 L249 586 ZM247 557 Q230 388 104 297 Q94 311 83 319 Q203 403 218 557 L79 557 L79 586 L220 586 L220 756 L111 756 L111 785 L557 785 L557 756 L442 756 L442 586 L577 586 L577 557 L442 557 L442 321 L413 321 L413 557 L247 557 ZM952 -4 L952 -33 L48 -33 L48 -4 L497 -4 L497 170 L155 170 L155 199 L497 199 L497 343 L526 343 L526 199 L844 199 L844 170 L526 170 L526 -4 L952 -4 Z" /><glyph glyph-name="" unicode="&#x57ab;" d="M474 609 L577 547 Q591 612 597 688 L446 688 L446 717 L599 717 Q601 753 603 831 L632 831 Q630 752 627 717 L832 717 Q830 493 841 418 Q856 325 906 325 Q923 325 930 346 Q937 367 939 428 Q952 418 967 413 Q963 344 949 319 Q936 295 905 295 Q836 295 816 397 Q801 470 802 688 L625 688 Q619 602 602 530 Q706 460 760 416 L742 392 Q691 437 594 503 Q549 364 413 302 Q399 319 393 323 Q527 381 569 520 Q514 556 457 591 L474 609 ZM236 498 L63 462 L52 493 Q120 505 236 530 L236 677 L65 677 L65 706 L236 706 L236 830 L266 830 L266 706 L410 706 L410 677 L266 677 L266 536 L412 566 L414 536 L266 504 L266 323 Q266 291 242 284 Q223 278 124 278 Q122 285 113 306 Q199 304 219 306 Q236 306 236 322 L236 498 ZM515 0 L941 0 L941 -29 L64 -29 L64 0 L485 0 L485 170 L158 170 L158 199 L485 199 L485 315 L515 315 L515 199 L850 199 L850 170 L515 170 L515 0 Z" /><glyph glyph-name="" unicode="&#x57ce;" d="M893 684 Q840 738 750 795 L770 814 Q857 763 912 706 L893 684 ZM338 184 L65 77 L55 108 L186 155 L186 552 L63 552 L63 581 L186 581 L186 821 L215 821 L215 581 L328 581 L328 552 L215 552 L215 167 L333 212 L338 184 ZM913 504 Q863 309 767 163 Q814 -31 889 -31 Q923 -31 930 149 Q942 139 957 135 Q952 22 938 -17 Q924 -61 886 -61 Q797 -61 745 133 Q664 19 549 -61 Q539 -49 525 -39 Q647 39 737 170 Q698 342 687 633 L411 633 L411 470 L616 470 Q616 456 615 451 Q611 146 592 118 Q577 100 545 99 Q486 99 449 102 Q447 120 439 131 Q483 127 539 127 Q561 127 565 136 Q582 157 586 441 L411 441 L411 372 Q411 73 291 -73 Q283 -62 267 -53 Q382 84 382 372 L382 662 L686 662 Q684 717 682 831 L712 831 Q712 770 714 662 L945 662 L945 633 L715 633 Q725 373 758 205 Q836 332 884 510 L913 504 Z" /><glyph glyph-name="" unicode="&#x57df;" d="M901 696 Q851 753 767 808 L787 826 Q868 775 922 717 L901 696 ZM325 198 Q276 177 184 135 Q95 94 57 78 L46 107 L172 160 L172 552 L50 552 L50 581 L172 581 L172 821 L201 821 L201 581 L307 581 L307 552 L201 552 L201 173 Q295 215 319 225 L325 198 ZM657 154 Q464 93 301 44 L290 74 Q356 92 653 181 L657 154 ZM569 491 L385 491 L385 275 L569 275 L569 491 ZM598 520 L598 246 L356 246 L356 520 L598 520 ZM915 512 Q856 313 755 167 Q800 -40 874 -40 Q907 -40 914 123 Q929 112 941 109 Q936 6 923 -30 Q908 -70 872 -70 Q780 -70 733 136 Q645 19 530 -59 Q520 -49 506 -37 Q631 43 725 174 Q691 340 681 643 L325 643 L325 672 L680 672 L677 830 L707 830 Q707 772 709 672 L938 672 L938 643 L710 643 Q717 383 747 208 Q834 340 886 519 L915 512 Z" /><glyph glyph-name="" unicode="&#x5851;" d="M618 753 L618 627 L869 627 L869 753 L618 753 ZM869 472 L869 598 L618 598 L618 587 Q618 522 608 472 L869 472 ZM603 443 Q576 331 500 264 Q493 273 476 280 Q589 383 589 587 L589 782 L897 782 L897 305 Q897 273 873 265 Q853 260 749 260 Q746 273 737 287 Q830 285 851 287 Q869 288 869 304 L869 443 L603 443 ZM217 689 Q196 743 146 807 L172 819 Q223 754 242 704 L217 689 ZM278 652 L52 652 L52 681 L337 681 Q384 747 419 820 L448 807 Q413 742 372 681 L529 681 L529 652 L307 652 L307 530 Q307 486 297 445 L453 445 L453 598 L482 598 L482 386 L453 386 L453 416 L288 416 Q244 303 96 236 Q91 246 78 259 Q213 319 256 416 L104 416 L104 599 L132 599 L132 445 L267 445 Q278 485 278 530 L278 652 ZM953 -14 L953 -43 L49 -43 L49 -14 L484 -14 L484 137 L156 137 L156 166 L484 166 L484 250 L514 250 L514 166 L844 166 L844 137 L514 137 L514 -14 L953 -14 Z" /><glyph glyph-name="" unicode="&#x5883;" d="M889 714 L399 714 L399 743 L634 743 Q618 789 597 828 L623 834 Q652 783 665 743 L889 743 L889 714 ZM526 574 Q515 621 486 688 L514 695 Q548 614 555 584 L526 574 ZM916 532 L368 532 L368 561 L703 561 Q735 624 757 691 L788 679 Q754 601 734 561 L916 561 L916 532 ZM337 187 Q165 120 57 77 L46 108 Q85 120 183 158 L183 552 L60 552 L60 581 L183 581 L183 821 L212 821 L212 581 L321 581 L321 552 L212 552 L212 169 L331 214 L337 187 ZM453 221 L828 221 L828 313 L453 313 L453 221 ZM453 342 L828 342 L828 431 L453 431 L453 342 ZM837 -32 Q874 -32 886 -28 Q903 -23 909 -4 Q912 13 914 91 Q926 80 942 77 Q940 -3 933 -24 Q926 -44 901 -51 Q880 -57 840 -57 L768 -57 Q727 -57 708 -47 Q688 -38 688 17 L688 192 L579 192 Q568 71 516 14 Q462 -46 332 -75 Q327 -61 313 -49 Q439 -24 490 31 Q539 82 549 192 L424 192 L424 460 L857 460 L857 192 L717 192 L717 7 Q717 -23 730 -28 Q742 -32 768 -32 L837 -32 Z" /><glyph glyph-name="" unicode="&#x589e;" d="M530 702 Q503 756 457 812 L482 824 Q532 767 556 716 L530 702 ZM333 213 L338 184 L65 77 L55 108 Q149 142 186 156 L186 552 L63 552 L63 581 L186 581 L186 821 L215 821 L215 581 L328 581 L328 552 L215 552 L215 168 L333 213 ZM463 257 L463 144 L807 144 L807 257 L463 257 ZM807 11 L807 115 L463 115 L463 11 L807 11 ZM434 286 L836 286 L836 -66 L807 -66 L807 -18 L463 -18 L463 -66 L434 -66 L434 286 ZM485 612 Q543 537 566 468 L540 456 Q520 521 460 603 L485 612 ZM689 461 Q747 533 787 613 L815 600 Q755 500 712 450 L689 461 ZM860 655 L651 655 L651 397 L860 397 L860 655 ZM406 397 L622 397 L622 655 L406 655 L406 397 ZM889 684 L889 368 L377 368 L377 684 L695 684 Q751 751 790 832 L820 816 Q758 720 729 684 L889 684 Z" /><glyph glyph-name="" unicode="&#x2f20;&#x58eb;" d="M513 464 L513 24 L888 24 L888 -5 L117 -5 L117 24 L484 24 L484 464 L60 464 L60 493 L484 493 L484 825 L513 825 L513 493 L942 493 L942 464 L513 464 Z" /><glyph glyph-name="" unicode="&#x58ee;" d="M200 501 Q141 584 55 680 L77 696 Q167 599 222 521 L200 501 ZM270 829 L299 829 L299 -70 L270 -70 L270 345 Q121 196 60 139 L36 162 Q134 248 270 386 L270 829 ZM661 463 L661 3 L923 3 L923 -26 L371 -26 L371 3 L632 3 L632 463 L342 463 L342 492 L632 492 L632 830 L661 830 L661 492 L951 492 L951 463 L661 463 Z" /><glyph glyph-name="" unicode="&#x5904;" d="M671 103 L641 103 L641 826 L671 826 L671 557 L692 568 Q833 428 919 307 L894 291 Q810 415 671 554 L671 103 ZM237 642 L207 547 Q244 352 323 226 Q423 399 457 642 L237 642 ZM947 1 Q936 -14 934 -29 L802 -29 Q473 -29 324 173 Q224 17 69 -68 Q54 -51 45 -45 Q205 41 307 199 Q231 314 189 502 Q146 397 91 326 Q76 339 67 343 Q198 511 245 824 L275 812 Q266 749 245 671 L466 671 L472 673 L491 665 Q454 385 341 199 Q485 1 803 1 L947 1 Z" /><glyph glyph-name="" unicode="&#x5907;" d="M221 330 L221 183 L486 183 L486 330 L221 330 ZM783 330 L515 330 L515 183 L783 183 L783 330 ZM783 -5 L783 154 L515 154 L515 -5 L783 -5 ZM486 -5 L486 154 L221 154 L221 -5 L486 -5 ZM192 359 L812 359 L812 -67 L783 -67 L783 -34 L221 -34 L221 -71 L192 -71 L192 359 ZM316 693 Q383 604 500 536 Q650 616 729 709 L329 709 L316 693 ZM781 725 Q699 614 531 520 Q706 426 958 392 Q945 379 939 365 Q686 402 501 503 Q296 398 59 349 Q55 364 43 380 Q267 417 470 521 Q360 587 295 672 Q221 596 117 537 Q108 549 94 558 Q292 662 377 830 L410 824 Q388 783 354 738 L755 738 L761 740 L781 725 Z" /><glyph glyph-name="" unicode="&#x5916;" d="M483 672 L502 664 Q421 138 75 -65 Q66 -51 52 -42 Q246 68 357 284 Q285 360 163 431 L181 449 Q289 390 369 312 Q438 458 467 641 L236 641 Q171 467 82 362 Q69 373 56 381 Q193 532 262 831 L291 825 Q269 733 247 670 L476 670 L483 672 ZM673 525 Q853 411 951 302 L931 279 Q836 384 662 500 L662 -69 L633 -69 L633 831 L662 831 L662 515 L673 525 Z" /><glyph glyph-name="" unicode="&#x591a;" d="M768 725 Q680 575 479 458 Q306 358 110 312 Q104 329 93 342 Q289 382 466 485 Q405 539 317 585 L338 605 Q438 554 494 501 Q646 595 721 708 L406 708 Q297 606 156 538 Q147 551 134 558 Q362 665 475 831 L511 824 Q475 776 436 737 L743 737 L750 739 L768 725 ZM933 389 Q837 190 592 68 Q390 -33 112 -72 Q108 -55 98 -43 Q402 -5 613 111 Q558 172 469 238 L494 252 Q590 181 641 127 Q812 230 889 372 L570 372 Q430 243 240 164 Q232 176 218 186 Q505 301 637 492 L672 485 Q653 456 601 401 L908 401 L914 403 L933 389 Z" /><glyph glyph-name="" unicode="&#x591c;" d="M935 677 L66 677 L66 706 L518 706 Q495 759 448 825 L474 833 Q521 774 545 717 L520 706 L935 706 L935 677 ZM338 659 Q296 560 237 470 L237 -69 L208 -69 L208 427 Q139 329 60 258 Q47 272 36 279 Q208 423 310 667 L338 659 ZM697 300 Q648 366 560 437 L583 454 Q669 388 720 321 L697 300 ZM534 508 Q492 442 469 412 Q530 268 644 153 Q801 298 863 508 L534 508 ZM900 529 Q834 292 663 134 Q796 6 963 -48 Q951 -57 942 -73 Q778 -15 643 115 Q506 -2 311 -69 Q306 -56 292 -46 Q489 20 622 135 Q514 248 450 386 Q385 306 324 256 Q312 271 303 277 Q491 431 580 666 L609 657 Q586 600 551 537 L877 537 L884 539 L900 529 Z" /><glyph glyph-name="" unicode="&#x591f;" d="M668 712 Q597 620 505 560 Q497 572 482 579 Q634 674 706 830 L738 825 Q715 778 689 741 L882 741 L888 743 L908 733 Q814 477 518 374 Q510 389 499 399 Q609 433 705 508 Q658 552 591 592 L613 609 Q682 571 727 526 Q822 605 866 712 L668 712 ZM153 494 L153 219 L300 219 L300 494 L153 494 ZM153 190 L153 109 L124 109 L124 523 L329 523 L329 190 L153 190 ZM448 676 Q435 40 397 -10 Q378 -35 339 -36 Q288 -38 223 -32 Q221 -14 214 -3 Q268 -7 335 -7 Q360 -8 371 8 Q406 52 419 670 L170 670 Q124 568 70 504 Q72 502 44 522 Q142 635 194 822 L224 816 Q207 759 183 699 L448 699 L448 676 ZM959 352 Q861 27 476 -68 Q471 -54 459 -42 Q641 -3 765 103 Q706 167 628 215 L651 233 Q733 182 787 123 Q878 211 918 330 L706 330 Q623 229 504 160 Q494 172 481 180 Q670 286 752 453 L786 447 Q759 398 729 359 L926 359 L926 360 L933 360 L940 362 L959 352 Z" /><glyph glyph-name="" unicode="&#x2f24;&#x5927;" d="M534 496 Q654 86 947 -43 Q940 -49 925 -69 Q625 75 504 496 L494 496 Q414 79 72 -70 Q61 -56 49 -48 Q382 93 465 496 L68 496 L68 525 L469 525 Q491 650 491 829 L520 829 Q518 640 499 525 L936 525 L936 496 L534 496 Z" /><glyph glyph-name="" unicode="&#x5929;" d="M528 400 Q638 50 953 -49 Q939 -61 933 -73 Q614 36 499 400 L496 400 Q439 96 74 -72 Q62 -55 55 -49 Q409 113 466 400 L69 400 L69 429 L471 429 Q481 494 481 579 L481 713 L103 713 L103 742 L892 742 L892 713 L510 713 L510 579 Q510 496 501 429 L938 429 L938 400 L528 400 Z" /><glyph glyph-name="" unicode="&#x5931;" d="M535 340 Q637 29 960 -47 Q951 -55 940 -72 Q609 16 508 340 L494 340 Q433 62 72 -75 Q65 -59 55 -50 Q404 83 463 340 L60 340 L60 369 L469 369 Q481 431 481 527 L481 609 L222 609 Q170 499 107 425 Q93 434 78 440 Q199 573 268 813 L298 808 Q268 711 236 638 L481 638 L481 831 L510 831 L510 638 L860 638 L860 609 L510 609 L510 527 Q510 433 499 369 L942 369 L942 340 L535 340 Z" /><glyph glyph-name="" unicode="&#x5939;" d="M532 314 Q644 38 941 -41 Q932 -48 922 -65 Q618 24 504 314 L483 314 Q447 169 356 79 Q256 -20 72 -70 Q65 -57 53 -48 Q380 41 454 314 L68 314 L68 343 L461 343 Q485 452 488 643 L92 643 L92 672 L488 672 Q489 722 489 829 L518 829 Q518 722 517 672 L904 672 L904 643 L517 643 Q514 459 490 343 L933 343 L933 314 L532 314 ZM215 598 Q298 484 323 391 L296 377 Q269 473 189 587 L215 598 ZM622 385 Q700 482 759 600 L787 585 Q708 448 644 372 L622 385 Z" /><glyph glyph-name="" unicode="&#x5956;" d="M924 734 Q819 438 394 361 Q388 377 376 387 Q559 416 677 483 Q618 555 526 625 L550 640 Q644 569 703 498 Q827 577 883 714 L569 714 Q507 641 424 595 Q413 611 405 617 Q558 702 609 832 L641 824 Q624 785 593 743 L899 743 L906 745 L924 734 ZM198 597 Q172 671 96 763 L123 774 Q197 688 226 612 L198 597 ZM306 535 Q154 461 77 426 L61 451 Q180 505 306 565 L306 830 L334 830 L334 358 L306 358 L306 535 ZM536 237 Q624 11 948 -37 Q937 -47 929 -64 Q594 -6 505 237 L491 237 Q406 -9 65 -74 Q58 -56 49 -48 Q377 13 460 237 L68 237 L68 266 L469 266 Q478 295 490 359 L521 359 Q512 314 501 266 L928 266 L928 237 L536 237 Z" /><glyph glyph-name="" unicode="&#x5957;" d="M422 686 Q361 612 285 552 L732 552 Q643 617 586 686 L422 686 ZM301 523 L301 436 L742 436 L742 407 L301 407 L301 319 L742 319 L742 290 L301 290 L301 198 L938 198 L938 169 L388 169 Q303 66 220 1 L746 34 Q702 78 652 123 L675 138 Q797 30 867 -51 L844 -70 Q790 -10 770 9 Q193 -28 165 -39 Q158 -11 154 -4 Q178 -3 209 27 Q281 85 347 169 L64 169 L64 198 L272 198 L272 542 Q173 470 71 428 Q62 441 51 450 Q251 532 383 686 L76 686 L76 715 L407 715 Q455 777 476 831 L511 825 Q484 768 444 715 L927 715 L927 686 L622 686 Q756 534 953 460 Q940 451 931 436 Q839 474 735 549 L735 523 L301 523 Z" /><glyph glyph-name="" unicode="&#x597d;" d="M194 589 Q163 444 120 293 Q191 252 267 194 Q349 351 374 589 L194 589 ZM407 614 Q381 342 292 174 Q375 108 416 56 L393 33 Q356 80 276 147 Q195 5 57 -69 Q52 -58 36 -45 Q168 21 252 166 Q173 229 85 280 Q122 391 166 589 L49 589 L49 618 L172 618 Q195 733 209 831 L238 829 Q223 725 200 618 L381 618 L388 620 L407 614 ZM951 364 L708 364 L708 -22 Q708 -58 677 -66 Q649 -72 538 -71 Q537 -68 523 -43 Q634 -45 658 -43 Q679 -42 679 -23 L679 364 L426 364 L426 393 L679 393 L679 529 Q784 612 854 714 L476 714 L476 743 L876 743 L882 746 L906 730 Q831 614 708 515 L708 393 L951 393 L951 364 Z" /><glyph glyph-name="" unicode="&#x5982;" d="M232 589 Q196 429 153 292 Q242 239 312 185 Q403 341 429 589 L232 589 ZM463 614 Q437 337 339 165 Q420 101 463 46 L441 23 Q400 73 322 138 Q234 0 82 -71 Q71 -53 60 -45 Q207 18 297 158 Q205 229 116 280 Q159 404 202 589 L54 589 L54 618 L209 618 Q239 760 249 832 L279 830 Q261 715 239 618 L437 618 L444 620 L463 614 ZM883 58 L883 688 L568 688 L568 58 L883 58 ZM912 717 L912 -33 L883 -33 L883 29 L568 29 L568 -47 L539 -47 L539 717 L912 717 Z" /><glyph glyph-name="" unicode="&#x59a8;" d="M678 672 Q663 732 627 824 L654 829 Q690 743 705 681 L678 672 ZM192 589 Q159 424 120 290 Q181 249 246 199 Q314 358 333 589 L192 589 ZM364 615 Q344 348 270 179 Q336 124 374 80 L354 55 Q325 92 257 151 Q186 5 67 -69 Q60 -56 46 -45 Q162 21 233 171 Q148 240 82 281 Q122 407 160 589 L61 589 L61 618 L166 618 Q188 726 201 829 L233 826 Q215 702 198 618 L341 618 L346 620 L364 615 ZM611 471 Q611 440 610 423 L881 423 L881 403 Q863 -4 826 -44 Q808 -65 768 -65 Q707 -67 626 -60 Q624 -42 616 -32 Q694 -38 761 -38 Q791 -38 800 -27 Q834 7 851 394 L609 394 Q592 96 385 -71 Q374 -60 361 -52 Q582 121 582 471 L582 617 L419 617 L419 646 L949 646 L949 617 L611 617 L611 471 Z" /><glyph glyph-name="" unicode="&#x59cb;" d="M194 589 Q161 433 118 293 Q198 245 262 196 Q334 352 354 589 L194 589 ZM385 615 Q363 344 285 177 Q363 115 411 56 L391 32 Q352 83 271 149 Q200 6 72 -69 Q64 -53 51 -45 Q173 21 248 168 Q165 234 84 280 Q126 404 167 589 L49 589 L49 618 L173 618 Q197 735 210 828 L238 826 Q224 727 200 618 L362 618 L367 620 L385 615 ZM505 293 L505 5 L864 5 L864 293 L505 293 ZM476 322 L893 322 L893 -68 L864 -68 L864 -24 L505 -24 L505 -72 L476 -72 L476 322 ZM782 681 Q900 530 954 403 L928 392 Q911 432 892 466 Q448 437 426 428 Q424 441 415 460 Q433 462 480 527 Q583 659 661 833 L691 821 Q576 596 472 468 L877 494 Q823 584 758 671 L782 681 Z" /><glyph glyph-name="" unicode="&#x2f26;&#x5b50;" d="M947 345 L516 345 L516 -15 Q516 -58 478 -66 Q451 -72 290 -72 Q285 -58 276 -41 Q397 -45 461 -42 Q487 -39 487 -16 L487 345 L56 345 L56 374 L487 374 L487 526 Q662 605 795 723 L157 723 L157 752 L827 752 L834 754 L855 738 Q725 613 516 509 L516 374 L947 374 L947 345 Z" /><glyph glyph-name="" unicode="&#x5b54;" d="M534 401 L312 342 L312 -23 Q312 -60 284 -68 Q255 -74 149 -73 Q145 -59 136 -43 Q168 -44 263 -44 Q283 -43 283 -24 L283 333 L53 271 L43 301 L283 364 L283 562 Q402 638 480 735 L62 735 L62 764 L503 764 L509 766 L531 752 Q447 639 312 550 L312 372 L530 431 L534 401 ZM872 -37 Q906 -37 917 1 Q926 34 930 154 Q942 145 958 141 Q953 16 940 -20 Q923 -63 871 -63 L709 -63 Q656 -63 639 -47 Q621 -30 621 23 L621 802 L650 802 L650 21 Q650 -15 661 -26 Q672 -37 707 -37 L872 -37 Z" /><glyph glyph-name="" unicode="&#x5b58;" d="M376 669 Q317 531 237 422 L237 -69 L208 -69 L208 384 Q144 305 63 242 Q55 254 43 264 Q230 405 345 669 L70 669 L70 698 L357 698 Q378 749 402 829 L432 821 Q417 770 389 698 L930 698 L930 669 L376 669 ZM953 227 L654 227 L654 -19 Q654 -56 622 -64 Q601 -69 453 -69 Q450 -58 439 -41 Q572 -44 602 -41 Q625 -40 625 -20 L625 227 L321 227 L321 256 L625 256 L625 352 Q741 409 825 493 L414 493 L414 522 L853 522 L859 524 L880 510 Q798 415 654 339 L654 256 L953 256 L953 227 Z" /><glyph glyph-name="" unicode="&#x5b66;" d="M523 662 Q501 737 439 828 L464 837 Q527 747 549 674 L523 662 ZM269 661 Q236 730 167 808 L191 820 Q262 742 292 677 L269 661 ZM123 479 L94 479 L94 656 L699 656 Q768 735 818 825 L845 809 Q790 723 732 656 L916 656 L916 479 L887 479 L887 627 L123 627 L123 479 ZM940 236 L513 236 L513 -20 Q513 -58 478 -66 Q452 -72 303 -72 Q301 -67 287 -43 Q428 -46 459 -43 Q484 -41 484 -21 L484 236 L66 236 L66 265 L484 265 L484 346 Q620 394 719 467 L222 467 L222 496 L753 496 L760 498 L781 483 Q683 395 513 331 L513 265 L940 265 L940 236 Z" /><glyph glyph-name="" unicode="&#x5b89;" d="M137 526 L108 526 L108 707 L495 707 Q466 772 438 823 L467 830 Q511 748 528 707 L890 707 L890 526 L861 526 L861 678 L137 678 L137 526 ZM363 408 Q305 315 257 251 Q378 213 525 154 Q635 258 685 408 L363 408 ZM717 408 Q665 247 554 142 Q766 55 887 -26 L862 -54 Q742 27 527 118 Q385 -1 126 -64 Q118 -50 103 -39 Q355 15 498 131 Q353 191 212 235 Q273 311 332 408 L79 408 L79 437 L350 437 Q414 543 444 615 L471 609 Q435 530 380 437 L926 437 L926 408 L717 408 Z" /><glyph glyph-name="" unicode="&#x5b8c;" d="M123 510 L94 510 L94 703 L509 703 Q480 764 438 828 L465 837 Q514 768 541 703 L905 703 L905 510 L876 510 L876 674 L123 674 L123 510 ZM217 505 L217 534 L786 534 L786 505 L217 505 ZM865 -24 Q898 -24 907 1 Q917 26 919 120 Q934 112 948 107 Q944 7 930 -22 Q915 -53 866 -53 L685 -53 Q632 -53 615 -42 Q597 -30 597 8 L597 317 L381 317 Q368 140 307 58 Q239 -33 71 -73 Q68 -61 54 -50 Q217 -13 282 74 Q339 150 352 317 L61 317 L61 346 L938 346 L938 317 L626 317 L626 8 Q626 -12 637 -18 Q647 -24 683 -24 L865 -24 Z" /><glyph glyph-name="" unicode="&#x5b8f;" d="M519 713 Q498 766 457 829 L484 836 Q524 782 547 724 L519 713 ZM115 539 L86 539 L86 707 L918 707 L918 539 L889 539 L889 678 L115 678 L115 539 ZM694 204 Q815 64 886 -54 L863 -72 Q856 -59 806 17 Q336 -35 312 -46 Q308 -29 301 -14 Q318 -11 365 54 Q465 183 547 364 L576 350 Q466 133 358 -3 L787 42 Q724 131 671 191 L694 204 ZM935 471 L935 442 L385 442 Q269 154 76 -11 Q67 0 51 10 Q241 163 355 442 L66 442 L66 471 L367 471 Q392 538 419 626 L447 619 Q421 530 397 471 L935 471 Z" /><glyph glyph-name="" unicode="&#x5b9a;" d="M503 713 Q488 756 444 825 L471 833 Q512 775 532 724 L503 713 ZM123 525 L94 525 L94 710 L906 710 L906 525 L877 525 L877 681 L123 681 L123 525 ZM953 -24 Q941 -41 939 -53 L723 -53 Q531 -53 427 -7 Q300 48 236 190 Q184 24 71 -75 Q63 -65 47 -55 Q204 73 247 375 L276 371 Q268 305 249 233 Q313 56 484 4 L484 491 L199 491 L199 520 L813 520 L813 491 L513 491 L513 283 L836 283 L836 254 L513 254 L513 -4 Q597 -24 724 -24 L953 -24 Z" /><glyph glyph-name="" unicode="&#x5b9c;" d="M514 711 Q500 754 455 824 L482 832 Q523 776 541 722 L514 711 ZM125 518 L96 518 L96 702 L907 702 L907 518 L878 518 L878 673 L125 673 L125 518 ZM284 -14 L714 -14 L714 146 L284 146 L284 -14 ZM284 505 L284 357 L714 357 L714 505 L284 505 ZM714 328 L284 328 L284 175 L714 175 L714 328 ZM941 -14 L941 -43 L59 -43 L59 -14 L255 -14 L255 534 L743 534 L743 -14 L941 -14 Z" /><glyph glyph-name="" unicode="&#x5b9e;" d="M133 519 L104 519 L104 696 L518 696 Q489 763 448 821 L476 830 Q527 755 549 700 L539 696 L897 696 L897 519 L868 519 L868 667 L133 667 L133 519 ZM399 447 Q344 511 249 567 L269 586 Q367 528 419 468 L399 447 ZM170 427 Q276 368 333 305 L314 281 Q249 351 151 407 L170 427 ZM562 169 Q799 65 923 -41 L903 -62 Q776 45 545 148 L562 169 ZM931 237 L931 208 L497 208 Q414 1 104 -64 Q100 -54 86 -38 Q383 22 465 208 L75 208 L75 237 L477 237 Q516 349 523 609 L553 609 Q544 350 508 237 L931 237 Z" /><glyph glyph-name="" unicode="&#x5ba2;" d="M114 575 L85 575 L85 731 L512 731 Q491 776 454 827 L480 836 Q521 784 546 731 L913 731 L913 575 L884 575 L884 702 L114 702 L114 575 ZM277 204 L277 -3 L732 -3 L732 204 L277 204 ZM248 233 L761 233 L761 -68 L732 -68 L732 -32 L277 -32 L277 -68 L248 -68 L248 233 ZM323 552 Q388 461 503 389 Q632 466 703 553 L323 552 ZM753 569 Q680 464 530 373 Q715 268 954 231 Q942 219 936 205 Q689 246 504 357 Q304 243 61 189 Q59 200 45 216 Q279 265 476 374 Q366 445 302 531 Q220 455 113 398 Q101 412 91 417 Q282 515 380 665 L413 659 Q385 618 352 582 L727 582 L734 584 L753 569 Z" /><glyph glyph-name="" unicode="&#x5ba4;" d="M109 573 L80 573 L80 733 L503 733 Q481 783 450 828 L477 837 Q513 787 536 733 L923 733 L923 573 L894 573 L894 704 L109 704 L109 573 ZM818 307 Q797 335 757 375 Q213 332 189 323 Q182 351 179 357 Q203 360 245 394 Q323 448 422 559 L173 559 L173 588 L839 588 L839 559 L466 559 Q353 438 249 363 L731 401 Q661 465 621 495 L644 511 Q772 412 841 326 L818 307 ZM943 -12 L943 -41 L60 -41 L60 -12 L485 -12 L485 170 L152 170 L152 199 L485 199 L485 334 L514 334 L514 199 L845 199 L845 170 L514 170 L514 -12 L943 -12 Z" /><glyph glyph-name="" unicode="&#x5bb6;" d="M127 546 L98 546 L98 731 L491 731 Q461 793 438 824 L466 833 Q505 776 524 731 L909 731 L909 546 L880 546 L880 702 L127 702 L127 546 ZM830 455 Q763 397 650 322 Q737 76 952 -6 Q938 -18 932 -30 Q718 60 627 306 L562 266 Q591 166 576 74 Q563 -15 518 -44 Q483 -68 430 -68 Q391 -68 341 -65 Q341 -53 333 -37 Q393 -42 424 -42 Q472 -42 498 -25 Q533 -3 547 65 Q561 136 544 219 Q360 60 93 -17 Q88 -4 76 10 Q363 81 537 248 Q522 308 497 352 Q341 235 113 162 Q108 175 96 189 Q330 252 484 375 Q455 424 416 461 Q288 386 113 329 Q105 346 93 354 Q344 430 478 535 L202 535 L202 564 L798 564 L798 535 L519 535 Q482 502 437 475 Q515 401 554 289 Q702 380 805 473 L830 455 Z" /><glyph glyph-name="" unicode="&#x5bb9;" d="M123 578 L94 578 L94 726 L510 726 Q482 784 454 824 L481 833 Q518 781 542 726 L906 726 L906 578 L877 578 L877 697 L123 697 L123 578 ZM630 623 Q807 517 905 418 L886 395 Q779 504 612 605 L630 623 ZM374 614 Q270 489 110 394 Q103 404 86 417 Q250 507 345 623 L374 614 ZM766 254 Q606 349 500 477 Q403 357 246 254 L766 254 ZM739 -3 L739 225 L259 225 L259 -3 L739 -3 ZM537 526 Q527 511 518 499 Q659 321 949 199 Q936 189 927 173 Q836 214 768 253 L768 -65 L739 -65 L739 -32 L259 -32 L259 -72 L230 -72 L230 243 Q149 194 69 160 Q53 179 46 184 Q349 305 511 540 L537 526 Z" /><glyph glyph-name="" unicode="&#x5bbd;" d="M112 581 L83 581 L83 733 L510 733 Q484 787 455 829 L483 838 Q517 788 542 733 L919 733 L919 581 L890 581 L890 704 L112 704 L112 581 ZM746 92 L746 377 L251 377 L251 92 L222 92 L222 406 L775 406 L775 92 L746 92 ZM832 544 L651 544 L651 452 L622 452 L622 544 L377 544 L377 452 L347 452 L347 544 L170 544 L170 573 L347 573 L347 661 L377 661 L377 573 L622 573 L622 661 L651 661 L651 573 L832 573 L832 544 ZM471 335 L500 335 L500 257 Q500 149 436 81 Q338 -23 70 -88 Q65 -76 54 -63 Q315 -3 410 96 Q471 158 471 257 L471 335 ZM852 -27 Q896 -27 908 3 Q920 33 924 149 Q936 140 953 134 Q948 14 932 -20 Q913 -56 853 -56 L638 -56 Q577 -56 557 -45 Q536 -34 536 3 L536 185 L565 185 L565 3 Q565 -15 578 -21 Q592 -27 636 -27 L852 -27 Z" /><glyph glyph-name="" unicode="&#x5bc6;" d="M115 552 L86 552 L86 733 L495 733 Q485 785 466 833 L494 837 Q515 784 526 733 L918 733 L918 552 L889 552 L889 704 L115 704 L115 552 ZM390 663 Q504 603 562 542 L542 520 Q480 587 371 644 L390 663 ZM223 533 Q152 397 80 340 L56 355 Q139 418 198 545 L223 533 ZM422 293 Q369 293 348 300 Q324 308 318 330 Q201 281 70 243 Q60 261 48 270 Q199 310 315 359 L315 569 L344 569 L344 373 Q585 481 706 630 L734 616 Q600 454 346 342 Q351 322 419 322 L659 322 Q699 322 710 344 Q722 367 725 451 Q740 441 754 438 Q749 347 733 321 Q716 293 660 293 L422 293 ZM806 192 L835 192 L835 -73 L806 -73 L806 -18 L173 -18 L173 192 L202 192 L202 11 L484 11 L484 250 L513 250 L513 11 L806 11 L806 192 ZM763 542 Q884 443 942 352 L918 334 Q859 428 740 526 L763 542 Z" /><glyph glyph-name="" unicode="&#x2f28;&#x5bf8;" d="M216 446 Q358 304 412 184 L388 167 Q331 291 193 431 L216 446 ZM942 576 L698 576 L698 -4 Q698 -59 650 -66 Q617 -72 435 -72 Q431 -58 420 -38 Q563 -41 638 -38 Q669 -37 669 -5 L669 576 L59 576 L59 605 L669 605 L669 830 L698 830 L698 605 L942 605 L942 576 Z" /><glyph glyph-name="" unicode="&#x5bf9;" d="M422 702 Q385 478 296 304 Q366 191 413 92 L385 74 Q349 154 279 273 Q188 102 60 10 Q51 26 37 35 Q163 119 262 303 Q168 457 79 579 L103 593 Q193 475 277 336 Q356 497 387 678 L62 678 L62 707 L396 707 L402 709 L422 702 ZM950 567 L818 567 L818 -16 Q818 -55 784 -64 Q760 -70 632 -69 L619 -41 Q719 -44 764 -41 Q789 -40 789 -16 L789 567 L478 567 L478 596 L789 596 L789 828 L818 828 L818 596 L950 596 L950 567 ZM644 180 Q615 290 524 427 L551 437 Q643 304 672 192 L644 180 Z" /><glyph glyph-name="" unicode="&#x5bfc;" d="M178 748 L178 602 L795 602 L795 748 L178 748 ZM321 398 Q218 398 185 414 Q149 430 149 483 L149 777 L824 777 L824 573 L178 573 L178 482 Q178 450 203 439 Q230 427 313 427 L771 427 Q834 427 853 448 Q871 469 876 541 Q893 531 907 528 Q900 448 876 424 Q850 398 769 398 L321 398 ZM256 224 Q365 119 412 29 L387 12 Q341 105 233 210 L256 224 ZM941 242 L708 242 L708 -14 Q708 -51 676 -58 Q651 -64 498 -64 Q496 -57 485 -37 Q604 -40 654 -37 Q679 -36 679 -15 L679 242 L67 242 L67 271 L679 271 L679 369 L708 369 L708 271 L941 271 L941 242 Z" /><glyph glyph-name="" unicode="&#x5bff;" d="M359 211 Q459 125 515 50 L491 31 Q431 110 335 195 L359 211 ZM744 286 L916 286 L916 257 L744 257 L744 -17 Q744 -54 712 -62 Q687 -68 550 -68 Q545 -53 536 -38 Q640 -42 693 -39 Q715 -38 715 -18 L715 257 L320 257 L320 286 L715 286 L715 401 L744 401 L744 286 ZM942 443 L942 414 L382 414 Q284 176 78 44 Q72 54 56 67 Q253 187 351 414 L59 414 L59 443 L363 443 Q383 495 402 561 L159 561 L159 590 L411 590 Q427 662 435 701 L122 701 L122 730 L441 730 Q451 783 458 831 L488 827 Q482 785 471 730 L890 730 L890 701 L465 701 Q449 621 440 590 L848 590 L848 561 L432 561 Q409 483 394 443 L942 443 Z" /><glyph glyph-name="" unicode="&#x5c01;" d="M495 449 L49 449 L49 478 L264 478 L264 657 L84 657 L84 686 L264 686 L264 831 L293 831 L293 686 L473 686 L473 657 L293 657 L293 478 L495 478 L495 449 ZM512 94 L514 65 L52 -26 L44 5 Q117 18 264 47 L264 249 L75 249 L75 278 L264 278 L264 424 L293 424 L293 278 L481 278 L481 249 L293 249 L293 51 L512 94 ZM952 555 L843 555 L843 -14 Q843 -53 809 -62 Q787 -68 657 -68 Q651 -51 644 -39 Q745 -42 788 -39 Q814 -38 814 -14 L814 555 L506 555 L506 584 L814 584 L814 821 L843 821 L843 584 L952 584 L952 555 ZM683 195 Q644 300 574 431 L601 439 Q668 314 712 208 L683 195 Z" /><glyph glyph-name="" unicode="&#x5c04;" d="M165 285 L417 285 L417 402 L165 402 L165 285 ZM165 688 L165 577 L417 577 L417 688 L165 688 ZM417 548 L165 548 L165 431 L417 431 L417 548 ZM446 -19 Q446 -58 417 -65 Q395 -71 278 -71 Q270 -51 265 -41 Q354 -44 396 -41 Q417 -40 417 -20 L417 256 L410 256 Q293 99 70 -17 Q50 3 46 6 Q252 101 375 256 L64 256 L64 285 L136 285 L136 717 L241 717 Q267 781 281 831 L311 821 L270 717 L446 717 L446 -19 ZM951 555 L830 555 L830 -19 Q830 -57 798 -66 Q777 -72 657 -72 Q653 -57 644 -43 Q737 -46 777 -43 Q801 -42 801 -20 L801 555 L491 555 L491 584 L801 584 L801 830 L830 830 L830 584 L951 584 L951 555 ZM678 192 Q640 307 551 423 L576 437 Q668 317 706 206 L678 192 Z" /><glyph glyph-name="" unicode="&#x5c06;" d="M586 718 Q494 640 381 589 Q386 583 362 607 Q562 697 650 829 L679 818 Q658 787 618 747 L882 747 L888 749 L907 737 Q781 478 384 388 Q378 405 368 413 Q514 445 634 508 Q592 570 518 628 L541 643 Q621 580 659 523 Q800 606 864 718 L586 718 ZM205 503 Q159 591 60 680 L83 696 Q187 603 229 522 L205 503 ZM256 829 L285 829 L285 -70 L256 -70 L256 325 Q127 194 72 140 L48 162 Q128 234 256 364 L256 829 ZM461 247 Q563 154 607 66 L582 48 Q539 136 436 232 L461 247 ZM940 308 L807 308 L807 -20 Q807 -58 776 -66 Q757 -71 625 -71 Q623 -63 612 -41 Q722 -44 757 -42 Q778 -41 778 -21 L778 308 L348 308 L348 337 L778 337 L778 488 L807 488 L807 337 L940 337 L940 308 Z" /><glyph glyph-name="" unicode="&#x2f29;&#x5c0f;" d="M520 816 L520 -12 Q520 -58 481 -66 Q454 -72 308 -72 Q299 -49 294 -40 Q408 -43 464 -40 Q490 -39 490 -13 L490 816 L520 816 ZM759 580 Q921 336 965 140 L936 127 Q891 327 732 569 L759 580 ZM259 571 Q196 288 67 141 Q54 152 42 158 Q171 304 228 576 L259 571 Z" /><glyph glyph-name="" unicode="&#x5c11;" d="M268 653 Q188 465 91 341 Q80 350 64 356 Q162 473 240 660 L268 653 ZM752 659 Q892 468 942 366 L916 353 Q849 483 727 649 L752 659 ZM814 298 Q619 9 59 -71 Q48 -47 44 -42 Q599 33 788 312 L814 298 ZM499 831 L499 222 L470 222 L470 831 L499 831 Z" /><glyph glyph-name="" unicode="&#x5c14;" d="M250 617 Q180 495 96 408 Q80 419 69 425 Q226 578 319 830 L348 823 Q310 726 267 646 L910 646 L917 648 L936 638 Q867 488 811 419 L785 428 Q841 493 895 617 L250 617 ZM330 405 Q241 208 101 78 Q94 85 75 97 Q217 219 302 413 L330 405 ZM490 571 L519 571 L519 -19 Q519 -58 486 -67 Q466 -72 323 -72 Q321 -62 311 -43 Q418 -46 466 -43 Q490 -42 490 -20 L490 571 ZM690 407 Q842 228 911 93 L886 78 Q810 225 666 394 L690 407 Z" /><glyph glyph-name="" unicode="&#x5c1d;" d="M813 796 Q753 704 694 642 L673 656 Q736 724 787 811 L813 796 ZM303 646 Q262 719 197 792 L222 804 Q294 727 331 661 L303 646 ZM129 442 L100 442 L100 631 L484 631 L484 831 L515 831 L515 631 L907 631 L907 442 L878 442 L878 602 L129 602 L129 442 ZM200 452 L200 481 L796 481 L796 452 L200 452 ZM427 278 Q299 97 190 -4 L790 36 Q716 128 630 204 L655 218 Q819 75 893 -56 L866 -73 Q851 -43 813 7 Q168 -37 138 -46 Q131 -20 127 -12 Q147 -8 196 42 Q290 133 387 278 L74 278 L74 307 L921 307 L921 278 L427 278 Z" /><glyph glyph-name="" unicode="&#x5c31;" d="M873 617 Q843 685 774 758 L797 771 Q867 699 898 634 L873 617 ZM515 668 L61 668 L61 697 L303 697 Q283 755 246 823 L273 831 Q314 762 334 697 L515 697 L515 668 ZM200 260 Q162 124 99 39 Q93 43 71 54 Q134 132 171 265 L200 260 ZM155 373 L438 373 L438 530 L155 530 L155 373 ZM313 344 L313 -26 Q313 -52 293 -59 Q272 -65 198 -64 Q197 -60 187 -39 Q255 -41 270 -39 Q284 -39 284 -26 L284 344 L126 344 L126 559 L467 559 L467 344 L313 344 ZM452 91 Q431 176 378 265 L403 276 Q458 186 479 102 L452 91 ZM693 537 Q659 94 465 -69 Q462 -68 453 -62 L440 -55 Q629 101 664 537 L523 537 L523 566 L666 566 Q673 673 673 828 L703 828 Q701 656 695 566 L943 566 L943 537 L693 537 ZM865 -16 Q897 -16 907 -11 Q921 -4 925 16 Q929 34 931 122 Q943 111 956 110 Q954 22 948 -2 Q942 -26 922 -34 Q906 -42 867 -42 L803 -42 Q767 -42 749 -32 Q730 -21 730 44 L730 428 L759 428 L759 33 Q759 -6 771 -11 Q782 -16 804 -16 L865 -16 Z" /><glyph glyph-name="" unicode="&#x5c3a;" d="M225 501 Q225 460 224 438 L816 438 L816 737 L225 737 L225 501 ZM561 409 Q657 48 946 -48 Q930 -62 924 -73 Q629 36 532 409 L223 409 Q207 96 67 -73 Q58 -60 44 -52 Q196 129 196 502 L196 766 L845 766 L845 409 L561 409 Z" /><glyph glyph-name="" unicode="&#x5c3c;" d="M221 746 L221 562 L822 562 L822 746 L221 746 ZM221 533 L221 515 Q221 124 95 -72 Q86 -63 70 -56 Q192 132 192 516 L192 775 L851 775 L851 533 L221 533 ZM786 6 Q838 6 854 36 Q869 65 874 168 Q888 157 904 154 Q897 45 877 13 Q854 -23 784 -23 L483 -23 Q407 -23 382 -8 Q355 8 355 58 L355 479 L384 479 L384 220 Q664 321 814 399 L844 376 Q646 285 384 192 L384 58 Q384 27 402 17 Q420 6 478 6 L786 6 Z" /><glyph glyph-name="" unicode="&#x5c3e;" d="M181 748 L181 591 L841 591 L841 748 L181 748 ZM181 562 L181 487 Q181 114 66 -70 Q57 -61 41 -54 Q152 122 152 487 L152 777 L870 777 L870 562 L181 562 ZM841 -30 Q878 -30 889 -6 Q900 17 904 99 Q914 92 933 86 Q928 -3 913 -30 Q895 -59 840 -59 L601 -59 Q538 -59 517 -45 Q495 -31 495 14 L495 144 L201 96 L196 124 L495 172 L495 298 L244 259 L239 287 L495 327 L495 448 Q380 428 255 410 Q252 422 245 435 Q594 482 744 539 L775 518 Q689 487 524 454 L524 332 L835 381 L840 353 L524 303 L524 177 L911 240 L916 212 L524 148 L524 14 Q524 -13 538 -21 Q552 -30 598 -30 L841 -30 Z" /><glyph glyph-name="" unicode="&#x5c4f;" d="M181 748 L181 609 L841 609 L841 748 L181 748 ZM181 580 L181 487 Q181 114 66 -70 Q57 -61 41 -54 Q152 122 152 487 L152 777 L870 777 L870 580 L181 580 ZM423 430 Q388 488 348 541 L373 551 Q428 476 446 444 L423 430 ZM695 206 L695 377 L447 377 L447 272 Q447 239 444 206 L695 206 ZM937 177 L724 177 L724 -73 L695 -73 L695 177 L440 177 Q412 15 216 -73 Q208 -59 197 -51 Q377 29 410 177 L204 177 L204 206 L415 206 Q418 241 418 272 L418 377 L234 377 L234 406 L673 406 Q728 481 764 561 L793 547 Q746 464 705 406 L909 406 L909 377 L724 377 L724 206 L937 206 L937 177 Z" /><glyph glyph-name="" unicode="&#x5c55;" d="M181 748 L181 609 L847 609 L847 748 L181 748 ZM181 580 L181 486 Q181 114 66 -70 Q57 -61 41 -54 Q152 123 152 486 L152 777 L876 777 L876 580 L181 580 ZM431 275 L684 275 L684 416 L431 416 L431 275 ZM872 204 Q803 147 685 81 Q795 -13 952 -48 Q939 -61 933 -73 Q638 0 533 246 L360 246 L360 -9 L623 56 Q623 38 626 29 Q319 -54 300 -67 Q295 -52 283 -36 Q329 -15 329 25 L329 246 L193 246 L193 275 L402 275 L402 416 L227 416 L227 445 L402 445 L402 549 L431 549 L431 445 L684 445 L684 549 L713 549 L713 445 L907 445 L907 416 L713 416 L713 275 L944 275 L944 246 L562 246 Q599 164 665 99 Q771 158 849 221 L872 204 Z" /><glyph glyph-name="" unicode="&#x5c5e;" d="M181 755 L181 632 L841 632 L841 755 L181 755 ZM181 603 L181 493 Q181 121 66 -63 Q59 -55 41 -48 Q152 130 152 493 L152 784 L870 784 L870 603 L181 603 ZM546 309 L546 405 L312 405 L312 309 L546 309 ZM575 405 L575 309 L816 309 L816 405 L575 405 ZM887 -28 Q887 -56 863 -64 Q843 -70 731 -70 Q729 -60 719 -43 Q813 -46 841 -44 Q858 -43 858 -28 L858 172 L575 172 L575 73 L719 79 Q689 113 664 136 L686 148 Q765 71 813 9 L791 -6 L743 52 Q448 38 331 34 L329 65 L428 68 Q499 70 546 72 L546 172 L270 172 L270 -73 L241 -73 L241 201 L546 201 L546 280 L283 280 L283 434 L546 434 L546 508 Q399 498 264 497 Q263 509 255 524 Q605 530 795 561 L819 536 Q721 519 575 510 L575 434 L845 434 L845 280 L575 280 L575 201 L887 201 L887 -28 Z" /><glyph glyph-name="" unicode="&#x5c61;" d="M181 750 L181 620 L841 620 L841 750 L181 750 ZM181 591 L181 489 Q181 115 66 -68 Q59 -60 41 -53 Q152 124 152 489 L152 779 L870 779 L870 591 L181 591 ZM696 479 Q747 527 779 568 L806 554 Q767 506 717 467 L696 479 ZM339 559 Q401 497 422 469 L399 454 Q364 500 316 547 L339 559 ZM536 413 Q418 298 219 236 Q209 253 200 260 Q380 310 499 413 L224 413 L224 442 L545 442 L545 572 L574 572 L574 442 L917 442 L917 413 L621 413 Q736 309 934 265 Q925 257 914 240 Q696 298 585 413 L574 413 L574 267 L545 267 L545 413 L536 413 ZM446 170 Q406 118 379 87 Q475 71 595 44 Q681 94 718 170 L446 170 ZM513 272 Q499 246 467 199 L931 199 L931 170 L753 170 Q717 88 635 36 Q811 -6 914 -46 L885 -69 Q789 -32 599 15 Q469 -51 223 -73 Q218 -57 207 -45 Q433 -30 555 25 Q407 56 327 70 Q361 104 411 170 L211 170 L211 199 L432 199 Q465 248 483 281 L513 272 Z" /><glyph glyph-name="" unicode="&#x2f2d;&#x5c71;" d="M875 629 L875 -63 L846 -63 L846 13 L123 13 L123 630 L153 630 L153 42 L485 42 L485 815 L514 815 L514 42 L846 42 L846 629 L875 629 Z" /><glyph glyph-name="" unicode="&#x5c81;" d="M865 566 L423 566 L440 561 Q409 501 360 441 L803 441 L809 443 L828 430 Q682 40 124 -70 Q114 -53 105 -45 Q360 3 524 106 Q441 206 327 288 L352 303 Q477 210 550 123 Q715 237 786 412 L334 412 Q246 316 139 256 Q131 268 120 279 Q324 389 408 566 L154 566 L154 784 L183 784 L183 595 L485 595 L485 837 L514 837 L514 595 L836 595 L836 784 L865 784 L865 566 Z" /><glyph glyph-name="" unicode="&#x5ddd;" d="M197 771 L197 437 Q197 85 55 -78 Q45 -66 33 -59 Q168 98 168 437 L168 771 L197 771 ZM526 732 L526 8 L497 8 L497 732 L526 732 ZM893 776 L893 -71 L864 -71 L864 776 L893 776 Z" /><glyph glyph-name="" unicode="&#x5dde;" d="M276 813 L276 511 Q276 324 246 208 Q204 46 91 -68 Q85 -59 69 -48 Q247 130 247 510 L247 813 L276 813 ZM568 791 L568 1 L539 1 L539 791 L568 791 ZM876 817 L876 -56 L847 -56 L847 817 L876 817 ZM175 572 Q125 396 65 317 L40 331 Q105 412 151 581 L175 572 ZM371 566 Q434 430 451 324 L420 315 Q402 431 342 560 L371 566 ZM656 578 Q749 441 780 335 L751 322 Q714 439 629 568 L656 578 Z" /><glyph glyph-name="" unicode="&#x2f2f;&#x5de5;" d="M942 43 L942 14 L60 14 L60 43 L485 43 L485 679 L109 679 L109 708 L898 708 L898 679 L514 679 L514 43 L942 43 Z" /><glyph glyph-name="" unicode="&#x5de6;" d="M373 608 Q268 197 60 -1 Q46 16 39 20 Q244 215 343 608 L76 608 L76 637 L350 637 Q373 736 389 830 L419 825 Q400 715 380 637 L918 637 L918 608 L373 608 ZM938 -5 L938 -34 L219 -34 L219 -5 L569 -5 L569 349 L317 349 L317 378 L886 378 L886 349 L598 349 L598 -5 L938 -5 Z" /><glyph glyph-name="" unicode="&#x5e02;" d="M511 678 Q486 746 432 826 L458 835 Q516 752 539 689 L511 678 ZM512 644 L512 483 L840 483 L840 117 Q840 79 808 71 Q782 65 634 65 Q633 72 621 95 Q749 92 788 94 Q811 96 811 116 L811 454 L512 454 L512 -72 L483 -72 L483 454 L198 454 L198 58 L169 58 L169 483 L483 483 L483 644 L59 644 L59 673 L942 673 L942 644 L512 644 Z" /><glyph glyph-name="" unicode="&#x5e03;" d="M381 636 Q325 521 249 421 L528 421 L528 576 L557 576 L557 421 L871 421 L871 87 Q871 53 841 45 Q816 38 670 40 Q667 50 657 66 Q770 63 819 66 Q842 67 842 87 L842 392 L557 392 L557 -73 L528 -73 L528 392 L260 392 L260 26 L231 26 L231 399 Q157 309 65 243 Q51 260 45 264 Q232 397 348 636 L68 636 L68 665 L362 665 Q395 736 424 830 L454 822 Q434 755 394 665 L933 665 L933 636 L381 636 Z" /><glyph glyph-name="" unicode="&#x5e08;" d="M145 235 L117 235 L117 717 L145 717 L145 235 ZM271 831 L300 831 L300 428 Q300 255 273 155 Q237 20 138 -71 Q128 -57 116 -51 Q210 37 245 167 Q271 264 271 428 L271 831 ZM666 743 L666 586 L888 586 L888 127 Q888 96 865 90 Q847 84 756 84 Q754 92 743 112 Q824 110 843 112 Q859 112 859 127 L859 557 L666 557 L666 -70 L637 -70 L637 557 L459 557 L459 71 L430 71 L430 586 L637 586 L637 743 L385 743 L385 772 L941 772 L941 743 L666 743 Z" /><glyph glyph-name="" unicode="&#x5e0c;" d="M386 465 Q338 384 278 317 L524 317 L524 432 L553 432 L553 317 L857 317 L857 49 Q857 17 829 9 Q806 3 675 3 Q673 12 663 30 Q781 28 807 30 Q828 31 828 49 L828 288 L553 288 L553 -71 L524 -71 L524 288 L270 288 L270 -5 L241 -5 L241 278 Q162 199 66 142 Q59 153 46 165 Q236 274 352 465 L63 465 L63 494 L368 494 Q405 560 426 619 Q291 574 139 538 Q132 550 117 565 Q322 605 501 674 Q324 740 177 782 L196 803 Q374 752 539 690 Q695 754 789 830 L813 814 Q715 737 575 677 Q738 614 842 561 L822 535 Q716 591 538 661 Q480 637 426 619 L456 611 Q434 551 402 494 L936 494 L936 465 L386 465 Z" /><glyph glyph-name="" unicode="&#x5e26;" d="M90 486 L911 486 L911 301 L882 301 L882 457 L512 457 L512 316 L807 316 L807 68 Q807 36 781 29 Q760 23 644 23 Q641 36 631 51 Q720 48 760 51 Q778 52 778 68 L778 287 L512 287 L512 -70 L483 -70 L483 287 L232 287 L232 22 L203 22 L203 316 L483 316 L483 457 L119 457 L119 301 L90 301 L90 486 ZM946 694 L946 665 L773 665 L773 541 L744 541 L744 665 L512 665 L512 547 L483 547 L483 665 L261 665 L261 545 L232 545 L232 665 L56 665 L56 694 L232 694 L232 822 L261 822 L261 694 L483 694 L483 824 L512 824 L512 694 L744 694 L744 822 L773 822 L773 694 L946 694 Z" /><glyph glyph-name="" unicode="&#x5e2d;" d="M730 518 L407 518 L407 380 L730 380 L730 518 ZM759 547 L935 547 L935 518 L759 518 L759 351 L586 351 L586 247 L874 247 L874 19 Q874 -13 848 -20 Q829 -25 701 -25 L690 2 Q801 -1 826 2 Q845 2 845 19 L845 218 L586 218 L586 -74 L557 -74 L557 218 L307 218 L307 -35 L278 -35 L278 247 L557 247 L557 351 L378 351 L378 518 L202 518 L202 547 L378 547 L378 652 L407 652 L407 547 L730 547 L730 652 L759 652 L759 547 ZM945 722 L945 693 L160 693 L160 427 Q160 91 67 -77 Q57 -65 43 -59 Q131 99 131 427 L131 722 L542 722 Q520 771 484 824 L512 833 Q557 764 575 722 L945 722 Z" /><glyph glyph-name="" unicode="&#x5e38;" d="M817 806 Q761 723 714 673 L693 686 Q750 752 790 822 L817 806 ZM279 675 Q247 737 186 805 L212 818 Q276 747 307 690 L279 675 ZM277 371 L737 371 L737 505 L277 505 L277 371 ZM844 22 Q844 -11 817 -18 Q797 -23 661 -23 Q660 -17 649 4 Q760 1 795 3 Q815 6 815 21 L815 207 L528 207 L528 -72 L499 -72 L499 207 L195 207 L195 -25 L166 -25 L166 236 L499 236 L499 342 L248 342 L248 534 L766 534 L766 342 L528 342 L528 236 L844 236 L844 22 ZM908 657 L908 469 L879 469 L879 628 L130 628 L130 469 L101 469 L101 657 L499 657 L499 830 L528 830 L528 657 L908 657 Z" /><glyph glyph-name="" unicode="&#x5e45;" d="M383 181 Q383 155 366 147 Q352 141 294 141 Q291 154 280 170 Q312 169 344 169 Q354 170 354 181 L354 606 L244 606 L244 -71 L215 -71 L215 606 L112 606 L112 134 L83 134 L83 635 L215 635 L215 829 L244 829 L244 635 L383 635 L383 181 ZM466 301 L466 161 L659 161 L659 301 L466 301 ZM898 301 L688 301 L688 161 L898 161 L898 301 ZM898 -5 L898 132 L688 132 L688 -5 L898 -5 ZM659 -5 L659 132 L466 132 L466 -5 L659 -5 ZM437 330 L927 330 L927 -67 L898 -67 L898 -34 L466 -34 L466 -71 L437 -71 L437 330 ZM852 618 L513 618 L513 461 L852 461 L852 618 ZM881 647 L881 432 L484 432 L484 647 L881 647 ZM949 770 L949 741 L424 741 L424 770 L949 770 Z" /><glyph glyph-name="" unicode="&#x5e55;" d="M314 725 L65 725 L65 754 L314 754 L314 829 L343 829 L343 754 L652 754 L652 829 L681 829 L681 754 L934 754 L934 725 L681 725 L681 662 L652 662 L652 725 L343 725 L343 662 L314 662 L314 725 ZM767 184 Q693 231 647 278 L347 278 Q288 222 227 184 L483 184 L483 256 L512 256 L512 184 L767 184 ZM222 406 L796 406 L796 495 L222 495 L222 406 ZM222 524 L796 524 L796 610 L222 610 L222 524 ZM684 278 Q792 176 957 126 Q944 115 936 102 Q861 129 796 168 L796 5 Q796 -23 774 -30 Q758 -35 652 -35 Q651 -29 640 -9 Q725 -12 751 -10 Q767 -9 767 5 L767 155 L512 155 L512 -69 L483 -69 L483 155 L243 155 L243 -42 L214 -42 L214 175 Q150 135 70 100 Q64 112 50 122 Q200 184 306 278 L57 278 L57 307 L337 307 Q369 339 397 377 L193 377 L193 639 L825 639 L825 377 L436 377 Q418 353 378 307 L944 307 L944 278 L684 278 Z" /><glyph glyph-name="" unicode="&#x2f32;&#x5e72;" d="M942 391 L512 391 L512 -70 L483 -70 L483 391 L60 391 L60 420 L483 420 L483 721 L111 721 L111 750 L896 750 L896 721 L512 721 L512 420 L942 420 L942 391 Z" /><glyph glyph-name="" unicode="&#x5e73;" d="M942 303 L512 303 L512 -70 L483 -70 L483 303 L60 303 L60 332 L483 332 L483 728 L111 728 L111 757 L887 757 L887 728 L512 728 L512 332 L942 332 L942 303 ZM215 663 Q297 523 325 414 L299 403 Q267 517 190 654 L215 663 ZM650 406 Q720 514 781 670 L811 658 Q733 483 675 395 L650 406 Z" /><glyph glyph-name="" unicode="&#x5e74;&#xf98e;" d="M533 205 L533 453 L256 453 L256 205 L533 205 ZM947 176 L562 176 L562 -72 L533 -72 L533 176 L55 176 L55 205 L227 205 L227 482 L533 482 L533 669 L259 669 Q178 534 91 456 Q71 470 63 473 Q220 608 306 833 L336 825 Q316 776 276 698 L908 698 L908 669 L562 669 L562 482 L886 482 L886 453 L562 453 L562 205 L947 205 L947 176 Z" /><glyph glyph-name="" unicode="&#x5e76;" d="M347 634 Q313 720 231 815 L256 827 Q340 731 372 648 L347 634 ZM672 329 L672 588 L334 588 L334 369 Q334 343 333 329 L672 329 ZM942 300 L701 300 L701 -70 L672 -70 L672 300 L332 300 Q323 179 276 98 Q215 -5 79 -75 Q73 -65 58 -54 Q285 62 303 300 L59 300 L59 329 L304 329 Q305 343 305 369 L305 588 L100 588 L100 617 L627 617 Q683 709 732 830 L762 818 Q708 700 658 617 L908 617 L908 588 L701 588 L701 329 L942 329 L942 300 Z" /><glyph glyph-name="" unicode="&#x5e94;" d="M549 699 Q526 754 481 822 L507 833 Q555 762 577 712 L549 699 ZM163 659 L163 412 Q163 88 70 -77 Q61 -67 46 -60 Q134 97 134 412 L134 688 L932 688 L932 659 L163 659 ZM590 197 Q570 327 505 539 L531 550 Q598 343 618 207 L590 197 ZM381 147 Q350 283 269 490 L294 502 Q377 297 408 160 L381 147 ZM948 13 L948 -16 L202 -16 L202 13 L626 13 Q779 271 844 558 L873 543 Q792 252 656 13 L948 13 Z" /><glyph glyph-name="" unicode="&#x5ea6;" d="M171 688 L171 441 Q171 100 74 -73 Q65 -63 50 -56 Q142 109 142 441 L142 717 L544 717 Q524 763 485 824 L512 833 Q556 770 578 717 L941 717 L941 688 L171 688 ZM416 521 L416 376 L720 376 L720 521 L416 521 ZM387 347 L387 521 L200 521 L200 550 L387 550 L387 658 L416 658 L416 550 L720 550 L720 658 L749 658 L749 550 L928 550 L928 521 L749 521 L749 347 L387 347 ZM839 247 Q769 124 605 44 Q754 -23 952 -45 Q941 -56 934 -72 Q725 -43 574 29 Q415 -39 188 -66 Q185 -55 174 -39 Q384 -17 542 46 Q412 115 346 215 L371 227 Q434 131 573 58 Q726 129 793 229 L220 229 L220 258 L814 258 L821 260 L839 247 Z" /><glyph glyph-name="" unicode="&#x5ea7;" d="M567 -13 L941 -13 L941 -42 L170 -42 L170 -13 L538 -13 L538 186 L237 186 L237 215 L538 215 L538 632 L567 632 L567 215 L873 215 L873 186 L567 186 L567 -13 ZM386 605 Q372 532 349 473 Q445 390 495 323 L471 305 Q428 363 338 448 Q291 338 212 269 Q200 281 187 289 Q316 393 357 609 L386 605 ZM787 605 Q775 536 751 477 Q867 383 938 298 L915 280 Q856 354 739 451 Q694 354 615 290 L591 309 Q723 408 758 609 L787 605 ZM941 709 L941 680 L152 680 L152 427 Q152 96 63 -72 Q50 -62 39 -55 Q123 104 123 427 L123 709 L570 709 Q541 765 500 821 L523 832 Q573 767 602 709 L941 709 Z" /><glyph glyph-name="" unicode="&#x5eb7;" d="M559 323 L814 323 L814 432 L559 432 L559 323 ZM559 461 L814 461 L814 564 L559 564 L559 461 ZM881 245 Q810 185 694 123 Q808 38 961 4 Q948 -6 941 -20 Q681 43 559 224 L559 -14 Q559 -55 525 -64 Q501 -70 368 -70 Q362 -53 354 -39 Q458 -42 506 -39 Q530 -38 530 -15 L530 133 Q339 50 190 -10 L174 16 Q285 57 530 160 L530 294 L236 294 L236 323 L530 323 L530 432 L188 432 L188 461 L530 461 L530 564 L242 564 L242 593 L530 593 L530 703 L156 703 L156 431 Q156 94 67 -75 Q55 -63 43 -58 Q127 102 127 431 L127 732 L541 732 Q507 791 479 827 L504 839 Q546 788 576 732 L941 732 L941 703 L559 703 L559 593 L843 593 L843 461 L951 461 L951 432 L843 432 L843 294 L559 294 L559 274 Q599 200 673 140 Q778 197 858 263 L881 245 ZM259 265 Q354 205 412 149 L391 128 Q332 185 238 248 L259 265 Z" /><glyph glyph-name="" unicode="&#x5ef6;" d="M665 731 Q543 709 419 693 Q415 707 408 717 Q761 764 890 822 L921 800 Q842 767 694 737 L694 487 L935 487 L935 458 L694 458 L694 157 L942 157 L942 128 L448 128 L448 547 L476 547 L476 157 L665 157 L665 731 ZM956 -13 Q944 -28 941 -42 L692 -42 Q369 -42 233 92 Q167 -12 68 -76 Q61 -64 45 -53 Q146 8 212 115 Q144 192 102 325 L127 338 Q163 213 227 141 Q295 264 323 440 L99 440 Q180 559 273 729 L62 729 L62 758 L322 758 Q221 578 153 469 L332 469 L339 470 L357 463 Q326 254 248 117 Q379 -13 692 -13 L956 -13 Z" /><glyph glyph-name="" unicode="&#x5efa;" d="M644 705 L644 602 L830 602 L830 705 L644 705 ZM830 573 L644 573 L644 466 L830 466 L830 573 ZM615 705 L400 705 L400 734 L615 734 L615 823 L644 823 L644 734 L859 734 L859 602 L942 602 L942 573 L859 573 L859 437 L644 437 L644 332 L886 332 L886 303 L644 303 L644 190 L930 190 L930 161 L644 161 L644 29 L615 29 L615 161 L339 161 L339 190 L615 190 L615 303 L384 303 L384 332 L615 332 L615 437 L392 437 L392 466 L615 466 L615 573 L325 573 L325 602 L615 602 L615 705 ZM953 -12 Q941 -27 938 -41 L673 -41 Q342 -41 211 109 Q155 3 73 -61 Q63 -48 50 -38 Q131 25 191 134 Q134 209 100 326 L125 339 Q157 232 204 164 Q262 283 286 455 L121 455 Q187 555 279 731 L71 731 L71 760 L328 760 Q232 582 172 484 L296 484 L302 485 L320 478 Q294 277 225 137 Q353 -12 673 -12 L953 -12 Z" /><glyph glyph-name="" unicode="&#x5f00;" d="M672 401 L672 728 L342 728 L342 458 Q342 420 341 401 L672 401 ZM942 372 L701 372 L701 -72 L672 -72 L672 372 L340 372 Q322 75 88 -74 Q77 -59 66 -52 Q293 90 311 372 L59 372 L59 401 L312 401 Q313 420 313 458 L313 728 L100 728 L100 757 L908 757 L908 728 L701 728 L701 401 L942 401 L942 372 Z" /><glyph glyph-name="" unicode="&#x5f0f;" d="M863 662 Q809 725 704 798 L726 816 Q823 752 885 685 L863 662 ZM328 50 Q576 110 570 109 L574 82 Q282 7 80 -40 L68 -12 L172 13 Q250 32 299 43 L299 384 L91 384 L91 413 L542 413 L542 384 L328 384 L328 50 ZM626 598 Q646 303 713 130 Q780 -44 876 -44 Q900 -44 912 2 Q924 46 929 154 Q939 145 956 141 Q950 17 934 -26 Q917 -74 874 -74 Q762 -74 689 115 Q620 292 597 598 L59 598 L59 627 L595 627 Q589 707 587 826 L617 826 Q617 737 624 627 L942 627 L942 598 L626 598 Z" /><glyph glyph-name="" unicode="&#x5f15;" d="M533 328 Q532 314 531 309 Q507 -2 464 -45 Q444 -64 403 -64 Q335 -66 243 -58 Q241 -43 234 -30 Q305 -37 396 -37 Q429 -37 439 -27 Q478 5 501 299 L102 299 Q128 391 154 550 L503 550 L503 757 L105 757 L105 786 L532 786 L532 521 L179 521 Q157 406 139 328 L533 328 ZM839 825 L839 -71 L810 -71 L810 825 L839 825 Z" /><glyph glyph-name="" unicode="&#x5f20;" d="M894 772 Q792 590 609 469 Q598 480 584 487 Q768 599 865 780 L894 772 ZM354 331 Q354 317 353 312 Q336 -8 302 -43 Q287 -61 248 -62 Q200 -64 125 -58 Q123 -41 115 -29 Q172 -34 242 -34 Q268 -35 278 -25 Q307 7 323 301 L108 301 Q123 400 133 556 L319 556 L319 751 L109 751 L109 780 L348 780 L348 527 L160 527 Q152 428 142 331 L354 331 ZM689 392 Q767 76 957 -34 Q945 -43 936 -57 Q739 65 661 392 L533 392 L533 -17 L717 53 L720 29 Q493 -66 480 -79 Q477 -66 464 -49 Q504 -35 504 7 L504 392 L370 392 L370 422 L504 422 L504 808 L533 808 L533 422 L952 422 L952 392 L689 392 Z" /><glyph glyph-name="" unicode="&#x5f3a;" d="M64 776 L358 776 L358 521 L123 521 Q104 370 96 323 L345 323 Q344 309 343 304 Q324 -4 285 -44 Q268 -62 233 -62 Q190 -64 123 -58 Q121 -39 114 -30 Q177 -35 227 -35 Q253 -35 262 -25 Q294 6 314 294 L83 294 L83 295 L61 295 Q82 403 97 550 L329 550 L329 747 L64 747 L64 776 ZM642 219 L642 406 L456 406 L456 219 L642 219 ZM672 406 L672 219 L863 219 L863 406 L672 406 ZM477 578 L837 578 L837 747 L477 747 L477 578 ZM926 -78 Q911 -42 886 -4 Q482 -37 386 -44 L379 -13 L642 5 L642 190 L427 190 L427 435 L642 435 L642 549 L448 549 L448 776 L866 776 L866 549 L672 549 L672 435 L892 435 L892 190 L672 190 L672 8 Q761 12 869 22 Q832 78 783 134 L808 148 Q913 31 951 -62 L926 -78 Z" /><glyph glyph-name="" unicode="&#x5f53;" d="M860 775 Q784 628 710 528 L688 542 Q765 646 834 789 L860 775 ZM278 538 Q235 648 137 770 L163 782 Q260 663 306 552 L278 538 ZM513 469 L851 469 L851 -73 L822 -73 L822 -26 L124 -26 L124 3 L822 3 L822 213 L173 213 L173 242 L822 242 L822 440 L141 440 L141 469 L484 469 L484 831 L513 831 L513 469 Z" /><glyph glyph-name="" unicode="&#x5f62;" d="M934 525 Q807 374 614 279 L603 289 Q596 297 591 300 Q786 395 907 537 L934 525 ZM897 799 Q784 665 608 573 L585 594 Q761 683 870 811 L897 799 ZM435 434 L435 736 L226 736 L226 434 L435 434 ZM464 405 L464 -70 L435 -70 L435 405 L226 405 Q219 87 77 -74 Q71 -64 54 -56 Q191 101 197 405 L50 405 L50 434 L197 434 L197 736 L65 736 L65 765 L569 765 L569 736 L464 736 L464 434 L585 434 L585 405 L464 405 ZM962 250 Q826 38 562 -71 Q548 -55 539 -48 Q803 56 935 262 L962 250 Z" /><glyph glyph-name="" unicode="&#x5f69;" d="M935 525 Q819 385 636 290 Q622 306 614 312 Q797 403 908 537 L935 525 ZM900 799 Q795 673 632 581 Q617 596 609 602 Q774 689 872 811 L900 799 ZM560 790 Q413 741 79 717 Q78 725 69 743 Q414 771 537 815 L560 790 ZM422 493 Q483 590 524 694 L553 681 Q489 548 444 480 L422 493 ZM350 511 Q333 589 283 679 L308 687 Q362 594 378 521 L350 511 ZM197 481 Q173 558 107 645 L132 656 Q197 570 225 493 L197 481 ZM349 328 Q481 224 546 138 L522 118 Q458 204 349 293 L349 -71 L320 -71 L320 306 Q215 122 58 15 Q53 26 39 40 Q208 146 309 343 L61 343 L61 372 L320 372 L320 494 L349 494 L349 372 L577 372 L577 343 L349 343 L349 328 ZM959 238 Q832 35 579 -71 Q568 -55 558 -48 Q810 51 932 250 L959 238 Z" /><glyph glyph-name="" unicode="&#x5f71;" d="M893 795 Q789 661 629 565 Q612 582 605 586 Q767 679 865 807 L893 795 ZM934 527 Q819 381 626 284 Q615 297 604 305 Q797 399 907 539 L934 527 ZM515 765 L155 765 L155 682 L515 682 L515 765 ZM515 653 L155 653 L155 567 L515 567 L515 653 ZM544 538 L126 538 L126 794 L544 794 L544 538 ZM579 426 L72 426 L72 455 L318 455 Q308 476 283 517 L308 527 Q329 497 349 455 L579 455 L579 426 ZM202 134 Q162 41 93 -23 Q76 -10 67 -5 Q136 56 173 141 L202 134 ZM156 212 L507 212 L507 328 L156 328 L156 212 ZM346 183 L346 -19 Q346 -47 324 -55 Q306 -61 214 -61 Q211 -48 201 -33 Q283 -35 302 -33 Q317 -33 317 -20 L317 183 L127 183 L127 357 L536 357 L536 183 L346 183 ZM456 144 Q525 68 557 10 L533 -6 Q495 62 432 130 L456 144 ZM956 229 Q829 36 587 -67 Q573 -50 565 -46 Q808 56 930 241 L956 229 Z" /><glyph glyph-name="" unicode="&#x5f90;" d="M296 819 Q205 685 61 589 Q51 602 41 610 Q195 714 266 830 L296 819 ZM324 628 Q285 562 226 492 L226 -76 L197 -76 L197 458 Q123 377 49 316 Q40 327 25 338 Q191 461 296 638 L324 628 ZM476 218 Q420 87 335 -8 Q319 5 309 11 Q396 99 447 226 L476 218 ZM643 300 L643 -22 Q643 -58 613 -66 Q591 -72 469 -72 Q466 -59 456 -42 Q562 -45 593 -43 Q614 -42 614 -23 L614 300 L325 300 L325 329 L614 329 L614 491 L446 491 L446 520 L835 520 L835 491 L643 491 L643 329 L935 329 L935 300 L643 300 ZM788 230 Q890 118 941 12 L914 -5 Q869 97 765 215 L788 230 ZM656 821 L635 786 Q741 631 953 507 Q941 500 932 484 Q733 607 621 764 Q499 584 319 484 Q308 499 300 506 Q516 621 632 832 L656 821 Z" /><glyph glyph-name="" unicode="&#x5fae;" d="M605 526 L308 526 L308 751 L337 751 L337 555 L448 555 L448 830 L477 830 L477 555 L576 555 L576 751 L605 751 L605 526 ZM611 401 L279 401 L279 430 L611 430 L611 401 ZM241 820 Q169 697 58 601 Q54 607 38 623 Q154 722 212 830 L241 820 ZM267 631 Q232 561 191 501 L191 -68 L162 -68 L162 457 Q98 368 46 318 Q29 335 22 340 Q152 464 238 640 L267 631 ZM658 171 Q663 159 672 147 Q546 53 534 37 Q528 53 518 67 Q543 81 543 123 L543 282 L360 282 L360 192 Q360 24 269 -72 Q261 -57 248 -50 Q331 37 331 193 L331 311 L572 311 L572 110 L658 171 ZM718 586 L707 534 Q734 332 786 195 Q856 340 886 586 L718 586 ZM915 586 Q880 313 799 160 Q863 11 952 -44 Q941 -54 930 -68 Q842 -9 783 129 Q712 9 595 -72 Q587 -60 573 -48 Q695 30 769 162 Q717 296 691 472 Q675 414 648 358 Q639 367 621 375 Q691 514 722 830 L752 826 Q737 688 724 615 L951 615 L951 586 L915 586 Z" /><glyph glyph-name="" unicode="&#x2f3c;&#x5fc3;" d="M375 775 Q548 647 640 540 L620 521 Q515 641 355 758 L375 775 ZM812 487 Q920 270 953 106 L926 97 Q888 267 786 479 L812 487 ZM184 460 Q147 231 80 88 L53 101 Q118 230 157 467 L184 460 ZM325 557 L325 31 Q325 -2 341 -13 Q357 -25 405 -25 L648 -25 Q701 -25 718 19 Q733 58 739 204 Q751 195 768 189 Q762 40 742 -4 Q719 -54 646 -54 L408 -54 Q342 -54 320 -37 Q296 -20 296 33 L296 557 L325 557 Z" /><glyph glyph-name="" unicode="&#x5fd7;" d="M62 -13 Q128 68 174 239 L201 230 Q147 49 89 -27 L62 -13 ZM662 -28 Q706 -28 719 -4 Q732 21 736 110 Q742 105 765 97 Q760 1 742 -27 Q723 -57 663 -57 L397 -57 Q328 -57 306 -45 Q282 -32 282 8 L282 251 L311 251 L311 8 Q311 -14 326 -20 Q343 -28 394 -28 L662 -28 ZM614 150 Q534 237 388 323 L409 342 Q554 258 636 171 L614 150 ZM789 250 Q887 100 932 -20 L902 -33 Q860 90 761 240 L789 250 ZM942 665 L942 636 L513 636 L513 421 L883 421 L883 392 L124 392 L124 421 L484 421 L484 636 L61 636 L61 665 L484 665 L484 831 L513 831 L513 665 L942 665 Z" /><glyph glyph-name="" unicode="&#x5fd8;" d="M59 16 Q112 80 176 237 L200 226 Q128 60 85 4 L59 16 ZM212 397 L212 680 L76 680 L76 709 L511 709 Q493 761 455 821 L482 831 Q524 767 543 709 L918 709 L918 680 L239 680 L239 426 L872 426 L872 397 L212 397 ZM450 337 Q557 240 609 157 L583 140 Q533 223 426 323 L450 337 ZM674 -15 Q717 -15 729 7 Q742 29 745 110 Q760 100 775 97 Q770 9 752 -17 Q734 -44 674 -44 L405 -44 Q335 -44 313 -32 Q289 -20 289 20 L289 240 L318 240 L318 19 Q318 -2 333 -8 Q349 -15 401 -15 L674 -15 ZM819 249 Q909 122 944 11 L914 0 Q882 111 792 239 L819 249 Z" /><glyph glyph-name="" unicode="&#x5fe7;" d="M860 629 Q798 711 716 782 L737 796 Q829 716 881 647 L860 629 ZM40 390 Q81 483 95 643 L122 638 Q109 477 69 381 L40 390 ZM195 831 L224 831 L224 -69 L195 -69 L195 831 ZM324 479 Q301 571 254 662 L280 673 Q334 567 350 494 L324 479 ZM859 -19 Q884 -19 891 9 Q898 36 900 135 Q918 123 929 121 Q926 17 914 -14 Q901 -48 860 -48 L733 -48 Q691 -48 677 -36 Q663 -24 663 13 L663 443 L692 443 L692 12 Q692 -7 700 -13 Q708 -19 733 -19 L859 -19 ZM948 585 L948 556 L585 556 Q549 105 321 -48 Q311 -38 299 -33 Q524 115 556 556 L369 556 L369 585 L558 585 Q564 681 564 821 L594 821 Q592 663 587 585 L948 585 Z" /><glyph glyph-name="" unicode="&#x5feb;" d="M40 389 Q81 482 95 643 L122 638 Q109 476 69 381 L40 389 ZM189 831 L218 831 L218 -69 L189 -69 L189 831 ZM326 485 Q302 567 249 662 L274 674 Q331 572 351 500 L326 485 ZM628 518 Q628 421 620 357 L828 357 L828 633 L628 633 L628 518 ZM967 328 L644 328 Q738 34 963 -47 Q949 -57 940 -74 Q709 21 616 328 Q574 63 318 -74 Q313 -65 298 -50 Q546 77 587 328 L319 328 L319 357 L591 357 Q599 413 599 517 L599 633 L381 633 L381 662 L599 662 L599 831 L628 831 L628 662 L857 662 L857 357 L967 357 L967 328 Z" /><glyph glyph-name="" unicode="&#x6001;" d="M69 -11 Q128 63 178 230 L204 220 Q152 49 97 -26 L69 -11 ZM666 -18 Q709 -18 721 3 Q733 24 737 101 Q747 94 766 88 Q761 4 744 -21 Q725 -47 667 -47 L394 -47 Q323 -47 301 -36 Q277 -23 277 17 L277 237 L306 237 L306 16 Q306 -5 321 -11 Q338 -18 390 -18 L666 -18 ZM410 445 Q517 380 568 317 L546 298 Q492 363 388 427 L410 445 ZM438 288 Q550 197 617 114 L593 96 Q529 177 415 273 L438 288 ZM787 250 Q884 98 914 -11 L884 -23 Q850 101 758 241 L787 250 ZM938 648 L531 648 Q636 374 938 301 Q926 289 917 273 Q605 359 500 648 L486 648 Q401 361 72 276 Q63 292 55 303 Q373 382 455 648 L65 648 L65 677 L464 677 Q480 742 490 828 L521 828 Q509 738 494 677 L938 677 L938 648 Z" /><glyph glyph-name="" unicode="&#x600e;" d="M274 678 Q201 539 102 444 Q92 454 76 464 Q229 596 307 832 L336 826 Q322 781 289 707 L919 707 L919 678 L473 678 L473 558 L874 558 L874 529 L473 529 L473 405 L895 405 L895 376 L473 376 L473 272 L444 272 L444 678 L274 678 ZM421 261 Q533 184 615 112 L593 91 Q522 157 398 244 L421 261 ZM78 -20 Q127 53 178 206 L203 197 Q136 19 104 -32 L78 -20 ZM663 -30 Q706 -30 719 -8 Q731 13 735 95 Q746 86 764 82 Q759 -6 742 -32 Q723 -59 664 -59 L397 -59 Q328 -59 306 -48 Q282 -36 282 4 L282 209 L311 209 L311 3 Q311 -17 326 -23 Q342 -30 393 -30 L663 -30 ZM788 224 Q885 73 930 -19 L901 -32 Q844 88 760 214 L788 224 Z" /><glyph glyph-name="" unicode="&#x601d;" d="M808 755 L513 755 L513 586 L808 586 L808 755 ZM808 557 L513 557 L513 386 L808 386 L808 557 ZM183 386 L484 386 L484 557 L183 557 L183 386 ZM183 586 L484 586 L484 755 L183 755 L183 586 ZM837 357 L154 357 L154 784 L837 784 L837 357 ZM601 143 Q517 221 379 294 L399 312 Q536 243 621 164 L601 143 ZM61 -13 Q128 67 174 233 L200 224 Q146 47 87 -26 L61 -13 ZM638 -19 Q680 -19 692 6 Q704 31 708 126 Q720 117 737 113 Q732 13 715 -17 Q697 -48 639 -48 L401 -48 Q337 -48 316 -36 Q293 -24 293 15 L293 248 L322 248 L322 14 Q322 -6 336 -12 Q351 -19 398 -19 L638 -19 ZM780 249 Q891 109 933 -1 L905 -15 Q859 106 754 238 L780 249 Z" /><glyph glyph-name="" unicode="&#x6027;" d="M40 390 Q81 481 95 642 L122 637 Q109 477 69 381 L40 390 ZM195 830 L224 830 L224 -68 L195 -68 L195 830 ZM339 485 Q315 567 262 662 L287 674 Q344 572 364 501 L339 485 ZM934 -2 L934 -31 L329 -31 L329 -2 L635 -2 L635 298 L404 298 L404 327 L635 327 L635 579 L454 579 Q415 474 369 404 Q360 410 342 419 Q433 550 482 783 L511 778 Q495 698 463 608 L635 608 L635 828 L665 828 L665 608 L916 608 L916 579 L665 579 L665 327 L893 327 L893 298 L665 298 L665 -2 L934 -2 Z" /><glyph glyph-name="" unicode="&#x603b;" d="M391 637 Q356 720 280 811 L305 823 Q383 731 416 651 L391 637 ZM55 4 Q121 77 161 213 L188 207 Q143 61 81 -11 L55 4 ZM770 590 L233 590 L233 362 L770 362 L770 590 ZM799 333 L204 333 L204 619 L577 619 Q657 720 708 826 L737 814 Q673 701 613 619 L799 619 L799 333 ZM426 305 Q554 216 621 132 L598 111 Q531 199 405 287 L426 305 ZM664 -32 Q703 -32 714 -12 Q725 8 729 83 Q744 74 756 71 Q751 -9 736 -33 Q719 -58 665 -58 L409 -58 Q340 -58 319 -47 Q296 -35 296 3 L296 231 L325 231 L325 3 Q325 -18 340 -25 Q356 -32 406 -32 L664 -32 ZM796 227 Q903 107 940 14 L918 -4 Q874 97 774 213 L796 227 Z" /><glyph glyph-name="" unicode="&#x606f;" d="M61 -13 Q108 45 170 184 L193 173 Q123 22 86 -26 L61 -13 ZM766 704 L235 704 L235 590 L766 590 L766 704 ZM766 561 L235 561 L235 446 L766 446 L766 561 ZM766 417 L235 417 L235 301 L766 301 L766 417 ZM795 272 L206 272 L206 733 L442 733 Q476 791 492 840 L521 828 Q501 784 472 733 L795 733 L795 272 ZM447 257 Q546 176 597 101 L573 84 Q519 163 424 243 L447 257 ZM657 -23 Q701 -23 714 -1 Q726 20 729 101 Q742 92 759 89 Q754 1 737 -25 Q718 -52 658 -52 L388 -52 Q318 -52 296 -41 Q272 -29 272 9 L272 197 L301 197 L301 9 Q301 -10 316 -16 Q333 -23 384 -23 L657 -23 ZM810 197 Q893 102 931 10 L903 -2 Q868 86 784 186 L810 197 Z" /><glyph glyph-name="" unicode="&#x6076;" d="M69 -11 Q127 64 178 230 L202 221 Q148 48 95 -24 L69 -11 ZM662 -18 Q705 -18 717 3 Q729 24 733 101 Q743 94 762 88 Q757 4 740 -21 Q721 -47 663 -47 L391 -47 Q319 -47 297 -36 Q273 -23 273 17 L273 237 L302 237 L302 16 Q302 -5 318 -11 Q334 -18 387 -18 L662 -18 ZM574 95 Q523 191 407 291 L432 306 Q547 207 600 111 L574 95 ZM787 257 Q883 106 914 -4 L884 -16 Q851 105 758 248 L787 257 ZM410 372 L587 372 L587 751 L410 751 L410 372 ZM937 372 L937 343 L64 343 L64 372 L381 372 L381 751 L113 751 L113 780 L898 780 L898 751 L617 751 L617 372 L937 372 ZM190 662 Q265 564 296 466 L269 454 Q239 551 165 652 L190 662 ZM689 465 Q753 549 809 668 L837 653 Q773 532 712 453 L689 465 Z" /><glyph glyph-name="" unicode="&#x608d;" d="M853 750 L444 750 L444 629 L853 629 L853 750 ZM853 600 L444 600 L444 477 L853 477 L853 600 ZM882 448 L415 448 L415 779 L882 779 L882 448 ZM53 390 Q94 483 108 643 L135 638 Q122 477 82 381 L53 390 ZM192 831 L221 831 L221 -68 L192 -68 L192 831 ZM342 485 Q317 570 265 662 L290 674 Q349 569 368 501 L342 485 ZM951 153 L662 153 L662 -71 L633 -71 L633 153 L337 153 L337 182 L633 182 L633 326 L386 326 L386 355 L903 355 L903 326 L662 326 L662 182 L951 182 L951 153 Z" /><glyph glyph-name="" unicode="&#x60a3;" d="M484 329 L484 457 L158 457 L158 329 L484 329 ZM513 457 L513 329 L844 329 L844 457 L513 457 ZM484 592 L484 714 L197 714 L197 592 L484 592 ZM513 714 L513 592 L810 592 L810 714 L513 714 ZM484 300 L129 300 L129 486 L484 486 L484 563 L168 563 L168 743 L484 743 L484 830 L513 830 L513 743 L839 743 L839 563 L513 563 L513 486 L873 486 L873 300 L513 300 L513 209 L484 209 L484 300 ZM415 223 Q553 177 626 109 L606 84 Q534 151 395 201 L415 223 ZM63 -14 Q144 48 205 183 L231 171 Q163 30 90 -31 L63 -14 ZM642 -27 Q682 -27 693 -5 Q705 18 708 104 Q719 96 736 92 Q731 0 715 -27 Q698 -55 643 -55 L405 -55 Q340 -55 319 -44 Q297 -33 297 3 L297 177 L326 177 L326 3 Q326 -15 340 -21 Q355 -27 402 -27 L642 -27 ZM771 191 Q888 92 936 -1 L909 -18 Q863 74 747 176 L771 191 Z" /><glyph glyph-name="" unicode="&#x60f3;" d="M861 746 L546 746 L546 618 L861 618 L861 746 ZM861 589 L546 589 L546 459 L861 459 L861 589 ZM861 430 L546 430 L546 299 L861 299 L861 430 ZM890 270 L517 270 L517 775 L890 775 L890 270 ZM445 260 Q535 173 586 108 L564 93 Q500 171 423 248 L445 260 ZM62 -7 Q120 60 164 196 L189 186 Q136 38 86 -22 L62 -7 ZM448 411 Q393 463 292 540 L292 262 L263 262 L263 600 Q182 421 63 329 Q57 337 42 352 Q171 440 255 645 L62 645 L62 674 L263 674 L263 827 L292 827 L292 674 L468 674 L468 645 L292 645 L292 569 Q378 509 467 437 L448 411 ZM643 -19 Q681 -19 692 1 Q703 21 706 99 Q717 90 735 86 Q730 2 715 -22 Q698 -48 645 -48 L409 -48 Q345 -48 325 -38 Q304 -27 304 10 L304 193 L333 193 L333 10 Q333 -8 346 -13 Q360 -19 406 -19 L643 -19 ZM816 219 Q886 110 931 17 L904 5 Q859 101 790 210 L816 219 Z" /><glyph glyph-name="" unicode="&#x610f;" d="M880 709 L120 709 L120 738 L518 738 Q494 783 462 824 L488 835 Q528 787 554 738 L880 738 L880 709 ZM334 579 Q319 637 281 695 L308 705 Q349 645 363 590 L334 579 ZM82 -29 Q144 24 199 148 L223 137 Q167 11 108 -44 L82 -29 ZM777 456 L228 456 L228 361 L777 361 L777 456 ZM777 332 L228 332 L228 236 L777 236 L777 332 ZM806 207 L199 207 L199 485 L806 485 L806 207 ZM441 198 Q542 137 597 75 L576 56 Q524 117 420 182 L441 198 ZM623 -34 Q659 -34 669 -14 Q679 6 682 86 Q692 79 711 73 Q707 -12 692 -37 Q676 -63 625 -63 L409 -63 Q349 -63 330 -53 Q310 -42 310 -6 L310 147 L339 147 L339 -7 Q339 -24 351 -29 Q364 -34 407 -34 L623 -34 ZM777 160 Q870 73 919 -8 L894 -24 Q848 59 753 147 L777 160 ZM929 578 L929 549 L77 549 L77 578 L625 578 Q662 637 693 708 L721 697 Q677 608 659 578 L929 578 Z" /><glyph glyph-name="" unicode="&#x611f;" d="M830 734 Q773 779 682 808 L699 830 Q795 801 847 759 L830 734 ZM60 -29 Q107 20 170 146 L194 134 Q116 -6 86 -42 L60 -29 ZM546 575 L228 575 L228 604 L546 604 L546 575 ZM491 467 L278 467 L278 331 L491 331 L491 467 ZM520 302 L249 302 L249 496 L520 496 L520 302 ZM442 220 Q533 137 582 61 L556 44 Q509 121 417 206 L442 220 ZM657 -37 Q701 -37 714 -15 Q726 6 729 88 Q741 79 759 75 Q754 -13 737 -39 Q718 -66 658 -66 L388 -66 Q318 -66 296 -55 Q272 -43 272 -5 L272 183 L301 183 L301 -5 Q301 -24 316 -30 Q333 -37 384 -37 L657 -37 ZM802 171 Q881 78 917 -11 L889 -24 Q856 62 776 160 L802 171 ZM619 691 Q645 525 707 401 Q785 496 833 620 L861 614 Q813 484 722 374 Q799 239 874 239 Q908 240 914 372 Q924 363 941 359 Q936 274 922 243 Q907 210 873 210 Q786 210 702 352 Q638 279 548 219 Q538 229 522 239 Q611 292 689 378 Q618 510 590 691 L172 691 L172 572 Q172 334 81 199 Q70 214 59 219 Q143 344 143 572 L143 720 L586 720 Q579 768 576 831 L606 831 Q607 789 615 720 L943 720 L943 691 L619 691 Z" /><glyph glyph-name="" unicode="&#x613f;" d="M164 751 L164 499 Q164 119 73 -72 Q64 -62 49 -55 Q135 129 135 499 L135 780 L907 780 L907 751 L164 751 ZM815 633 L298 633 L298 552 L815 552 L815 633 ZM815 523 L298 523 L298 441 L815 441 L815 523 ZM844 412 L563 412 L563 263 Q563 235 541 228 Q523 223 426 223 Q425 229 414 249 Q500 247 519 249 Q534 249 534 262 L534 412 L269 412 L269 662 L505 662 Q529 729 532 739 L561 731 L547 695 Q539 673 534 662 L844 662 L844 412 ZM507 190 Q579 123 623 65 L600 49 Q562 105 484 177 L507 190 ZM408 369 Q318 293 221 236 Q210 250 197 258 Q298 309 381 379 L408 369 ZM878 232 Q788 295 674 357 L691 376 Q817 310 894 255 L878 232 ZM172 -22 Q218 40 252 160 L277 150 Q229 9 197 -36 L172 -22 ZM674 -27 Q710 -27 720 -8 Q730 12 733 88 Q748 78 762 75 Q758 -7 743 -31 Q727 -56 676 -56 L455 -56 Q394 -56 375 -46 Q354 -35 354 0 L354 161 L383 161 L383 0 Q383 -17 395 -22 Q408 -27 452 -27 L674 -27 ZM788 172 Q875 69 922 -7 L897 -22 Q844 65 763 161 L788 172 Z" /><glyph glyph-name="" unicode="&#x6210;" d="M873 668 Q797 733 676 792 L693 812 Q818 751 890 691 L873 668 ZM874 499 Q810 306 692 161 Q764 -33 868 -33 Q893 -33 905 11 Q917 54 922 161 Q934 151 949 147 Q943 26 927 -16 Q910 -63 866 -63 Q747 -63 671 136 Q570 19 424 -64 Q414 -52 401 -41 Q554 39 660 168 Q602 338 582 611 L177 611 L177 456 L442 456 L442 437 Q434 123 411 94 Q395 76 360 75 Q312 73 236 79 Q234 97 226 108 Q282 103 353 103 Q378 103 385 112 Q406 135 413 427 L177 427 L177 370 Q177 75 72 -73 Q62 -61 48 -54 Q148 86 148 371 L148 640 L580 640 Q575 722 573 828 L603 828 Q603 730 609 640 L942 640 L942 611 L611 611 Q629 357 682 194 Q785 328 844 507 L874 499 Z" /><glyph glyph-name="" unicode="&#x6211;" d="M875 610 Q816 692 703 788 L728 804 Q839 709 900 631 L875 610 ZM877 423 Q809 290 691 169 Q764 -44 871 -44 Q916 -44 924 149 Q938 139 952 136 Q946 16 930 -27 Q912 -74 869 -74 Q746 -74 669 146 Q553 35 430 -28 Q419 -15 407 -6 Q544 63 658 179 Q618 313 597 494 L330 494 L330 285 L532 335 L535 308 L330 255 L330 -18 Q330 -59 296 -68 Q266 -74 141 -73 Q139 -66 129 -43 Q229 -46 277 -43 Q301 -42 301 -19 L301 249 Q154 211 65 189 L51 218 Q161 243 301 278 L301 494 L62 494 L62 523 L301 523 L301 731 Q179 703 90 690 Q88 696 79 714 Q356 763 476 812 L501 789 Q438 763 330 738 L330 523 L594 523 Q580 682 579 822 L609 822 Q610 666 623 523 L940 523 L940 494 L627 494 Q645 328 682 202 Q784 312 849 435 L877 423 Z" /><glyph glyph-name="" unicode="&#x6216;" d="M876 684 Q806 749 684 802 L700 822 Q820 771 893 708 L876 684 ZM514 107 Q266 53 81 12 L75 42 Q278 85 512 136 L514 107 ZM438 484 L178 484 L178 250 L438 250 L438 484 ZM467 513 L467 221 L149 221 L149 513 L467 513 ZM875 525 Q805 317 687 174 Q757 -41 870 -41 Q896 -41 908 3 Q920 45 925 153 Q935 144 952 140 Q946 18 930 -24 Q912 -71 868 -71 Q741 -71 664 148 Q553 20 395 -63 Q391 -57 373 -39 Q537 43 654 180 Q600 351 583 628 L81 628 L81 657 L582 657 Q578 739 576 829 L607 829 Q607 749 612 657 L925 657 L925 628 L612 628 Q627 375 676 207 Q784 342 846 533 L875 525 Z" /><glyph glyph-name="" unicode="&#x6218;" d="M877 620 Q841 691 765 773 L787 786 Q865 703 901 637 L877 620 ZM454 342 L121 342 L121 32 L454 32 L454 342 ZM286 371 L483 371 L483 -47 L454 -47 L454 3 L121 3 L121 -52 L92 -52 L92 371 L257 371 L257 830 L286 830 L286 615 L511 615 L511 586 L286 586 L286 371 ZM926 455 Q870 292 758 151 Q809 -35 883 -39 Q919 -39 935 132 Q943 126 960 119 Q940 -74 884 -72 Q791 -69 734 123 Q639 12 531 -45 Q525 -36 509 -22 Q624 36 725 157 Q691 289 672 493 L511 468 L506 496 L668 520 Q654 686 649 827 L678 827 Q682 680 697 525 L941 562 L946 535 L699 497 Q718 304 749 186 Q849 315 902 469 L926 455 Z" /><glyph glyph-name="" unicode="&#x2f3e;&#x6237;" d="M523 672 Q502 743 461 827 L488 835 Q535 740 552 682 L523 672 ZM795 397 L795 642 L223 642 L223 462 Q223 420 222 397 L795 397 ZM824 290 L795 290 L795 368 L220 368 Q202 82 66 -75 Q56 -63 42 -57 Q194 116 194 462 L194 671 L824 671 L824 290 Z" /><glyph glyph-name="" unicode="&#x6240;" d="M140 551 L140 351 L393 351 L393 551 L140 551 ZM140 580 L422 580 L422 322 L139 322 Q133 66 65 -69 Q54 -55 41 -50 Q111 91 111 387 L111 723 Q365 755 454 807 L476 784 Q382 730 140 699 L140 580 ZM946 459 L804 459 L804 -71 L775 -71 L775 459 L566 459 L566 366 Q566 69 449 -72 Q442 -61 426 -52 Q537 80 537 366 L537 721 Q803 765 899 818 L923 795 Q819 739 566 699 L566 488 L946 488 L946 459 Z" /><glyph glyph-name="" unicode="&#x2f3f;&#x624b;" d="M944 279 L515 279 L515 -5 Q515 -50 474 -59 Q445 -66 279 -64 Q273 -47 266 -35 Q395 -38 456 -35 Q486 -34 486 -6 L486 279 L58 279 L58 308 L486 308 L486 515 L122 515 L122 544 L486 544 L486 736 Q316 717 137 709 Q136 719 129 735 Q640 763 812 826 L836 803 Q733 766 515 740 L515 544 L890 544 L890 515 L515 515 L515 308 L944 308 L944 279 Z" /><glyph glyph-name="" unicode="&#x6253;" d="M421 369 L252 313 L252 -10 Q252 -44 225 -52 Q205 -58 104 -58 Q101 -46 92 -30 Q184 -32 204 -30 Q224 -30 224 -10 L224 303 Q191 293 136 275 L58 250 L46 280 Q88 292 224 334 L224 587 L53 587 L53 616 L224 616 L224 829 L252 829 L252 616 L416 616 L416 587 L252 587 L252 344 L417 396 L421 369 ZM954 708 L757 708 L757 -7 Q757 -52 720 -60 Q693 -66 538 -66 Q532 -46 524 -34 Q665 -37 702 -34 Q728 -33 728 -8 L728 708 L411 708 L411 737 L954 737 L954 708 Z" /><glyph glyph-name="" unicode="&#x6258;" d="M377 356 L230 307 L230 -14 Q230 -49 202 -57 Q183 -63 81 -63 Q78 -50 69 -34 Q97 -35 181 -35 Q201 -34 201 -15 L201 298 Q86 260 54 250 L41 280 L201 328 L201 587 L53 587 L53 616 L201 616 L201 830 L230 830 L230 616 L372 616 L372 587 L230 587 L230 338 L373 384 L377 356 ZM873 -15 Q902 -15 911 17 Q919 47 922 149 Q937 137 951 134 Q947 26 934 -6 Q919 -44 872 -44 L712 -44 Q663 -44 647 -29 Q630 -14 630 32 L630 376 L402 342 L397 369 L630 405 L630 710 Q555 692 418 666 Q415 676 407 690 Q719 748 841 810 L869 788 Q802 756 659 717 L659 409 L937 451 L942 423 L659 380 L659 31 Q659 3 669 -6 Q679 -15 711 -15 L873 -15 Z" /><glyph glyph-name="" unicode="&#x6263;" d="M389 352 L316 327 Q267 311 243 302 L243 -23 Q243 -57 216 -66 Q192 -72 101 -71 L89 -43 Q175 -45 195 -43 Q214 -43 214 -24 L214 292 L54 238 L41 269 L120 294 Q184 315 214 324 L214 603 L51 603 L51 632 L214 632 L214 829 L243 829 L243 632 L387 632 L387 603 L243 603 L243 334 L384 380 L389 352 ZM843 91 L843 714 L476 714 L476 91 L843 91 ZM872 743 L872 -34 L843 -34 L843 62 L476 62 L476 -42 L447 -42 L447 743 L872 743 Z" /><glyph glyph-name="" unicode="&#x626d;" d="M225 616 L356 616 L356 587 L225 587 L225 338 L348 382 L353 352 L225 305 L225 -24 Q225 -57 198 -66 Q175 -72 84 -71 Q81 -62 73 -43 Q158 -45 177 -43 Q196 -43 196 -24 L196 295 L55 244 L42 274 Q98 293 196 328 L196 587 L55 587 L55 616 L196 616 L196 830 L225 830 L225 616 ZM590 383 Q556 99 537 -12 L785 -12 Q806 164 822 383 L590 383 ZM630 744 L593 412 L824 412 Q839 587 847 744 L630 744 ZM950 -12 L950 -41 L358 -41 L358 -12 L505 -12 Q527 120 559 383 L404 383 L404 412 L563 412 Q577 536 598 744 L403 744 L403 773 L858 773 L858 772 L879 772 Q849 298 817 -12 L950 -12 Z" /><glyph glyph-name="" unicode="&#x6276;" d="M231 304 L231 -15 Q231 -49 205 -57 Q187 -63 94 -63 Q91 -50 82 -34 Q107 -35 184 -35 Q202 -34 202 -16 L202 294 Q136 271 69 250 L56 280 L202 324 L202 587 L68 587 L68 616 L202 616 L202 830 L231 830 L231 616 L355 616 L355 587 L231 587 L231 334 L359 374 L362 346 L231 304 ZM682 332 Q760 50 957 -48 Q950 -54 935 -73 Q736 36 655 322 Q601 70 354 -73 Q348 -64 333 -51 Q577 90 626 332 L402 332 L402 361 L632 361 Q644 434 644 543 L644 592 L443 592 L443 621 L644 621 L644 830 L673 830 L673 621 L902 621 L902 592 L673 592 L673 543 Q673 433 661 361 L936 361 L936 332 L682 332 Z" /><glyph glyph-name="" unicode="&#x6280;" d="M230 305 L230 -22 Q230 -57 202 -66 Q178 -72 81 -71 Q77 -58 69 -43 Q161 -45 181 -43 Q201 -43 201 -23 L201 296 L59 249 L46 280 Q94 293 201 327 L201 587 L58 587 L58 616 L201 616 L201 830 L230 830 L230 616 L354 616 L354 587 L230 587 L230 337 L360 378 L364 350 L230 305 ZM463 418 Q522 249 641 132 Q780 254 840 418 L463 418 ZM879 438 Q818 249 661 111 Q783 -2 947 -46 Q936 -56 925 -72 Q762 -22 639 92 Q503 -18 330 -72 Q326 -64 313 -45 Q482 2 618 113 Q496 236 432 418 L393 418 L393 447 L627 447 L627 629 L370 629 L370 658 L627 658 L627 830 L656 830 L656 658 L913 658 L913 629 L656 629 L656 447 L854 447 L861 449 L879 438 Z" /><glyph glyph-name="" unicode="&#x628a;" d="M358 350 L225 305 L225 -25 Q225 -57 200 -66 Q178 -72 98 -71 Q93 -55 86 -43 Q162 -45 179 -43 Q196 -43 196 -26 L196 295 L62 250 L48 280 L196 327 L196 585 L63 585 L63 614 L196 614 L196 830 L225 830 L225 614 L341 614 L341 585 L225 585 L225 337 L353 379 L358 350 ZM440 744 L440 373 L638 373 L638 744 L440 744 ZM867 744 L667 744 L667 373 L867 373 L867 744 ZM847 -14 Q895 -14 911 18 Q925 47 931 146 Q946 136 960 133 Q953 29 934 -3 Q911 -40 842 -40 L539 -40 Q465 -40 439 -21 Q412 -2 412 57 L412 773 L896 773 L896 275 L867 275 L867 345 L440 345 L440 56 Q440 15 458 1 Q477 -14 533 -14 L847 -14 Z" /><glyph glyph-name="" unicode="&#x6298;" d="M250 312 L250 -15 Q250 -49 223 -57 Q204 -63 108 -63 Q107 -58 96 -34 Q122 -35 202 -35 Q221 -34 221 -16 L221 302 L64 249 L50 280 Q85 290 221 335 L221 585 L61 585 L61 614 L221 614 L221 830 L250 830 L250 614 L397 614 L397 585 L250 585 L250 344 L398 393 L403 364 L250 312 ZM951 469 L759 469 L759 -62 L730 -62 L730 469 L489 469 L489 414 Q489 94 366 -64 Q355 -51 343 -45 Q460 102 460 414 L460 745 Q766 780 891 820 L911 794 Q774 752 489 721 L489 498 L951 498 L951 469 Z" /><glyph glyph-name="" unicode="&#x629b;" d="M764 602 Q748 216 650 66 Q639 75 623 81 Q719 219 735 602 L639 602 L639 631 L736 631 Q740 719 740 830 L769 830 Q767 698 765 631 L903 631 L903 610 Q890 140 862 100 Q848 81 817 79 Q800 78 754 80 Q754 97 746 110 Q775 107 813 107 Q830 107 836 120 Q862 155 873 602 L764 602 ZM310 370 L194 324 L194 -28 Q194 -57 172 -66 Q156 -71 85 -71 Q80 -55 73 -43 L151 -43 Q165 -43 165 -28 L165 312 Q148 305 110 291 Q76 278 60 271 L47 301 Q119 327 165 346 L165 587 L59 587 L59 616 L165 616 L165 830 L194 830 L194 616 L289 616 L289 587 L194 587 L194 357 L304 400 L310 370 ZM864 -25 Q896 -25 906 1 Q915 25 919 110 Q931 99 948 96 Q943 4 930 -23 Q914 -54 863 -54 L660 -54 Q604 -54 585 -40 Q565 -25 565 20 L565 542 L455 542 Q442 82 294 -73 Q283 -63 268 -57 Q413 89 426 542 L320 542 L320 571 L427 571 Q429 653 429 830 L458 830 Q458 653 456 571 L594 571 L594 19 Q594 -7 606 -16 Q618 -25 657 -25 L864 -25 Z" /><glyph glyph-name="" unicode="&#x62a4;" d="M704 671 Q667 741 596 814 L620 827 Q702 743 731 685 L704 671 ZM240 303 L240 -24 Q240 -56 212 -64 Q192 -69 90 -69 Q86 -56 78 -43 Q171 -45 191 -43 Q211 -43 211 -24 L211 293 L66 244 L52 275 Q109 291 211 326 L211 587 L66 587 L66 616 L211 616 L211 829 L240 829 L240 616 L371 616 L371 587 L240 587 L240 336 L368 378 L373 347 L240 303 ZM883 394 L883 626 L492 626 L492 394 L883 394 ZM912 292 L883 292 L883 365 L492 365 Q490 70 356 -73 Q348 -60 333 -53 Q463 86 463 376 L463 655 L912 655 L912 292 Z" /><glyph glyph-name="" unicode="&#x62a5;" d="M380 357 Q358 350 312 334 L244 311 L244 -19 Q244 -57 212 -66 Q190 -72 71 -72 Q67 -57 58 -43 Q151 -46 191 -43 Q215 -42 215 -20 L215 301 L54 249 L42 280 Q143 310 215 333 L215 587 L56 587 L56 616 L215 616 L215 829 L244 829 L244 616 L374 616 L374 587 L244 587 L244 343 Q322 367 376 385 L380 357 ZM548 432 Q612 268 721 141 Q828 277 874 432 L548 432 ZM912 454 Q862 270 741 119 Q841 8 951 -42 Q939 -53 929 -67 Q822 -13 722 96 Q627 -12 519 -71 Q516 -67 498 -52 Q611 9 703 118 Q585 256 520 432 L466 432 L466 -71 L437 -71 L437 797 L873 797 Q873 785 872 779 Q863 589 838 566 Q821 550 782 549 Q718 547 614 554 Q612 571 603 583 Q678 576 772 576 Q806 576 815 583 Q834 602 843 768 L466 768 L466 461 L886 461 L893 463 L912 454 Z" /><glyph glyph-name="" unicode="&#x62c5;" d="M828 722 L460 722 L460 475 L828 475 L828 722 ZM828 446 L460 446 L460 195 L828 195 L828 446 ZM857 166 L431 166 L431 751 L857 751 L857 166 ZM242 312 L242 -14 Q242 -49 214 -57 Q195 -63 93 -63 Q90 -50 81 -34 Q109 -35 193 -35 Q213 -34 213 -15 L213 302 L54 250 L41 280 Q71 288 213 332 L213 587 L53 587 L53 616 L213 616 L213 829 L242 829 L242 616 L381 616 L381 587 L242 587 L242 342 Q265 350 307 363 Q356 378 373 384 L378 357 L242 312 ZM941 5 L941 -24 L349 -24 L349 5 L941 5 Z" /><glyph glyph-name="" unicode="&#x62c6;" d="M226 305 L226 -24 Q226 -57 199 -66 Q176 -72 85 -71 Q82 -62 74 -43 Q159 -45 178 -43 Q197 -43 197 -24 L197 294 L56 243 L43 274 Q152 311 197 328 L197 587 L56 587 L56 616 L197 616 L197 830 L226 830 L226 616 L357 616 L357 587 L226 587 L226 338 L349 382 L354 351 L226 305 ZM729 471 L729 249 Q856 175 916 126 L900 101 Q838 152 729 217 L729 -71 L700 -71 L700 234 Q614 284 529 324 L546 344 Q606 318 700 266 L700 471 L480 471 L480 420 Q480 97 362 -65 Q356 -56 338 -46 Q451 105 451 420 L451 728 Q735 775 859 826 L887 803 Q748 751 480 706 L480 500 L940 500 L940 471 L729 471 Z" /><glyph glyph-name="" unicode="&#x62e5;" d="M219 306 L219 -24 Q219 -57 192 -66 Q169 -72 78 -71 Q75 -62 67 -43 Q152 -45 171 -43 Q190 -43 190 -24 L190 295 L48 244 L35 274 L190 328 L190 587 L48 587 L48 616 L190 616 L190 830 L219 830 L219 616 L348 616 L348 587 L219 587 L219 339 L340 382 L345 352 L219 306 ZM886 289 L886 492 L672 492 L672 289 L886 289 ZM643 289 L643 492 L433 492 L433 395 Q433 345 430 289 L643 289 ZM433 729 L433 521 L643 521 L643 729 L433 729 ZM886 729 L672 729 L672 521 L886 521 L886 729 ZM916 -16 Q916 -54 886 -63 Q864 -69 750 -69 Q741 -46 737 -38 Q840 -40 865 -38 Q886 -37 886 -17 L886 260 L672 260 L672 -58 L643 -58 L643 260 L427 260 Q409 50 310 -69 Q302 -58 288 -48 Q404 92 404 395 L404 758 L916 758 L916 -16 Z" /><glyph glyph-name="" unicode="&#x62ec;" d="M367 353 Q318 336 222 305 L222 -18 Q222 -53 194 -62 Q175 -67 73 -67 Q69 -52 61 -39 Q153 -41 173 -39 Q193 -38 193 -19 L193 295 Q153 281 54 250 L41 280 L193 326 L193 587 L53 587 L53 616 L193 616 L193 830 L222 830 L222 616 L354 616 L354 587 L222 587 L222 336 L362 380 L367 353 ZM856 261 L449 261 L449 3 L856 3 L856 261 ZM665 495 L665 290 L885 290 L885 -67 L856 -67 L856 -26 L449 -26 L449 -71 L420 -71 L420 290 L636 290 L636 495 L385 495 L385 524 L636 524 L636 733 Q515 712 407 699 Q404 711 396 724 Q738 769 874 821 L900 797 Q810 764 665 739 L665 524 L950 524 L950 495 L665 495 Z" /><glyph glyph-name="" unicode="&#x62ff;" d="M514 113 L934 113 L934 84 L514 84 L514 -25 Q514 -58 486 -66 Q461 -73 330 -71 Q327 -60 319 -45 Q419 -48 464 -45 Q485 -44 485 -26 L485 84 L69 84 L69 113 L485 113 L485 197 L116 197 L116 226 L485 226 L485 303 Q306 292 143 289 Q142 301 134 316 Q593 326 806 365 L836 341 Q715 318 514 305 L514 226 L884 226 L884 197 L514 197 L514 113 ZM233 434 L764 434 L764 529 L233 529 L233 434 ZM204 558 L793 558 L793 405 L204 405 L204 558 ZM728 658 L728 629 L276 629 L276 658 L728 658 ZM544 840 Q541 836 521 816 Q687 681 958 623 Q943 608 935 594 Q665 661 499 795 Q354 672 63 589 Q48 607 40 613 Q392 709 510 852 L544 840 Z" /><glyph glyph-name="" unicode="&#x6307;" d="M383 360 L235 310 L235 -23 Q235 -57 208 -66 Q184 -72 93 -71 L81 -43 Q167 -45 187 -43 Q206 -43 206 -24 L206 300 L55 250 L41 280 L206 333 L206 585 L51 585 L51 614 L206 614 L206 830 L235 830 L235 614 L369 614 L369 585 L235 585 L235 341 Q254 347 306 365 L378 390 L383 360 ZM479 319 L479 182 L876 182 L876 319 L479 319 ZM876 8 L876 153 L479 153 L479 8 L876 8 ZM450 348 L905 348 L905 -66 L876 -66 L876 -21 L479 -21 L479 -70 L450 -70 L450 348 ZM839 488 Q884 488 897 513 Q909 536 914 625 Q926 616 943 612 Q938 517 920 489 Q901 459 839 459 L565 459 Q495 459 472 471 Q448 485 448 528 L448 824 L477 824 L477 656 Q740 706 853 754 L880 731 Q747 678 477 630 L477 527 Q477 503 493 496 Q509 488 562 488 L839 488 Z" /><glyph glyph-name="" unicode="&#x6311;" d="M930 702 Q858 570 791 481 L767 495 Q840 590 901 717 L930 702 ZM455 476 Q434 585 352 697 L376 709 Q458 601 484 488 L455 476 ZM221 309 L221 -24 Q221 -57 194 -66 Q171 -72 80 -71 Q77 -62 69 -43 Q154 -45 173 -43 Q192 -43 192 -24 L192 299 L46 244 L34 274 Q113 302 192 332 L192 587 L47 587 L47 616 L192 616 L192 830 L221 830 L221 616 L336 616 L336 587 L221 587 L221 343 L327 382 L332 352 L221 309 ZM528 827 L557 827 L557 382 Q557 212 515 121 Q460 3 309 -70 Q301 -57 290 -47 Q420 14 474 109 Q519 187 526 316 Q401 226 324 174 L305 199 Q356 231 528 349 L528 827 ZM890 -28 Q911 -28 918 4 Q925 33 927 129 Q939 118 956 113 Q953 10 942 -20 Q929 -57 889 -57 L767 -57 Q726 -57 712 -43 Q698 -29 698 15 L698 827 L727 827 L727 378 L738 389 Q872 280 949 198 L927 173 Q841 267 727 360 L727 14 Q727 -12 735 -20 Q742 -28 766 -28 L890 -28 Z" /><glyph glyph-name="" unicode="&#x6321;" d="M895 755 Q840 578 805 504 L779 514 Q826 619 863 766 L895 755 ZM498 514 Q474 622 424 748 L452 756 Q510 609 526 523 L498 514 ZM367 359 L233 310 L233 -24 Q233 -57 206 -66 Q183 -72 92 -71 Q89 -62 81 -43 Q166 -45 185 -43 Q204 -43 204 -24 L204 300 L48 243 L35 274 Q87 290 204 333 L204 587 L48 587 L48 616 L204 616 L204 830 L233 830 L233 616 L366 616 L366 587 L233 587 L233 344 L361 390 L367 359 ZM897 461 L897 -67 L868 -67 L868 16 L368 16 L368 45 L868 45 L868 228 L401 228 L401 257 L868 257 L868 432 L392 432 L392 461 L643 461 L643 828 L672 828 L672 461 L897 461 Z" /><glyph glyph-name="" unicode="&#x6325;" d="M386 600 L357 600 L357 769 L914 769 L914 600 L885 600 L885 740 L386 740 L386 600 ZM320 339 L208 299 L208 -25 Q208 -57 183 -66 Q161 -72 80 -71 Q70 -48 67 -43 Q144 -45 162 -43 Q179 -43 179 -26 L179 288 L56 245 L45 274 Q111 296 179 320 L179 587 L57 587 L57 616 L179 616 L179 830 L208 830 L208 616 L314 616 L314 587 L208 587 L208 330 L315 368 L320 339 ZM948 112 L674 112 L674 -66 L645 -66 L645 112 L331 112 L331 141 L645 141 L645 292 L496 292 Q430 292 415 279 Q409 303 405 310 Q418 313 450 378 Q479 436 515 536 L397 536 L397 565 L525 565 Q546 624 559 680 L590 671 L557 565 L874 565 L874 536 L546 536 Q498 406 453 321 L645 321 L645 472 L674 472 L674 321 L880 321 L880 292 L674 292 L674 141 L948 141 L948 112 Z" /><glyph glyph-name="" unicode="&#x632f;" d="M221 303 L221 -27 Q221 -57 198 -66 Q182 -71 105 -71 Q100 -55 93 -43 Q160 -45 177 -43 Q192 -43 192 -27 L192 293 Q144 276 60 248 L49 277 L192 323 L192 587 L64 587 L64 616 L192 616 L192 830 L221 830 L221 616 L338 616 L338 587 L221 587 L221 333 L343 374 L347 345 L221 303 ZM917 331 Q861 268 769 203 Q840 43 954 -20 Q941 -31 933 -44 Q749 68 680 401 L580 401 L580 -14 L748 61 Q750 46 754 36 Q556 -58 543 -71 Q538 -62 525 -43 Q551 -23 551 21 L551 401 L451 401 Q443 91 359 -70 Q355 -65 334 -53 Q423 120 423 473 L423 770 L920 770 L920 741 L452 741 L452 430 L939 430 L939 401 L706 401 Q725 308 759 226 Q839 288 896 349 L917 331 ZM507 578 L507 607 L899 607 L899 578 L507 578 Z" /><glyph glyph-name="" unicode="&#x635f;" d="M816 762 L470 762 L470 596 L816 596 L816 762 ZM845 567 L441 567 L441 791 L845 791 L845 567 ZM443 118 L414 118 L414 474 L879 474 L879 118 L850 118 L850 445 L443 445 L443 118 ZM221 305 L221 -24 Q221 -57 194 -66 Q171 -72 80 -71 Q77 -62 69 -43 Q154 -45 173 -43 Q192 -43 192 -24 L192 294 Q102 261 46 242 L34 270 L192 325 L192 587 L47 587 L47 616 L192 616 L192 830 L221 830 L221 616 L348 616 L348 587 L221 587 L221 335 L351 382 L356 354 L221 305 ZM630 364 L659 364 L659 267 Q659 167 613 101 Q543 1 356 -62 Q344 -44 337 -38 Q519 20 586 114 Q630 175 630 267 L630 364 ZM701 107 Q846 24 949 -50 L929 -74 Q828 1 683 88 L701 107 Z" /><glyph glyph-name="" unicode="&#x636e;" d="M221 306 L221 -24 Q221 -57 194 -66 Q171 -72 80 -71 Q77 -62 69 -43 Q154 -45 173 -43 Q192 -43 192 -24 L192 295 L50 244 L37 274 L192 328 L192 587 L47 587 L47 616 L192 616 L192 830 L221 830 L221 616 L348 616 L348 587 L221 587 L221 339 L343 382 L348 352 L221 306 ZM681 423 L681 556 L438 556 L438 485 Q438 445 437 423 L681 423 ZM438 754 L438 585 L883 585 L883 754 L438 754 ZM885 213 L512 213 L512 9 L885 9 L885 213 ZM710 394 L710 242 L914 242 L914 -67 L885 -67 L885 -20 L512 -20 L512 -73 L483 -73 L483 242 L681 242 L681 394 L436 394 Q424 90 315 -68 Q307 -58 290 -52 Q409 123 409 485 L409 783 L912 783 L912 556 L710 556 L710 423 L953 423 L953 394 L710 394 Z" /><glyph glyph-name="" unicode="&#x63a2;" d="M395 610 L366 610 L366 766 L912 766 L912 612 L883 612 L883 737 L395 737 L395 610 ZM706 653 Q833 547 900 451 L878 431 Q808 532 684 637 L706 653 ZM585 642 Q512 520 385 428 Q370 443 359 449 Q488 534 555 650 L585 642 ZM216 317 L216 -21 Q216 -53 192 -61 Q174 -67 90 -67 Q86 -52 78 -39 L170 -39 Q187 -38 187 -22 L187 305 L62 252 L48 282 Q84 295 187 338 L187 587 L55 587 L55 616 L187 616 L187 830 L216 830 L216 616 L329 616 L329 587 L216 587 L216 350 L322 395 L329 365 L216 317 ZM684 311 Q785 106 958 17 Q946 8 936 -8 Q753 96 653 311 L650 311 L650 -67 L621 -67 L621 311 L619 311 Q523 93 323 -7 Q314 9 301 19 Q490 102 588 311 L348 311 L348 340 L621 340 L621 459 L650 459 L650 340 L931 340 L931 311 L684 311 Z" /><glyph glyph-name="" unicode="&#x63a5;" d="M915 680 L384 680 L384 709 L635 709 Q618 750 573 817 L599 824 Q646 762 668 709 L915 709 L915 680 ZM551 495 Q520 563 463 636 L484 648 Q546 574 573 511 L551 495 ZM945 443 L344 443 L344 472 L685 472 Q746 551 790 649 L822 641 Q760 527 720 472 L945 472 L945 443 ZM210 302 L210 -25 Q210 -57 185 -66 Q163 -72 83 -71 Q78 -55 71 -43 Q147 -45 164 -43 Q181 -43 181 -26 L181 292 L48 244 L35 274 Q102 296 181 324 L181 587 L47 587 L47 616 L181 616 L181 830 L210 830 L210 616 L330 616 L330 587 L210 587 L210 335 L315 373 L321 343 L210 302 ZM540 283 Q510 231 458 159 Q548 134 666 86 Q756 161 789 283 L540 283 ZM822 283 Q789 152 698 72 Q839 12 924 -50 L898 -74 Q818 -14 671 50 Q553 -37 337 -68 Q329 -51 320 -40 Q529 -11 638 64 Q523 112 414 144 Q465 209 509 283 L332 283 L332 312 L527 312 Q568 383 587 429 L615 423 Q590 369 558 312 L955 312 L955 283 L822 283 Z" /><glyph glyph-name="" unicode="&#x63a7;" d="M403 537 L374 537 L374 701 L662 701 Q647 746 611 819 L637 827 Q681 739 694 701 L950 701 L950 553 L921 553 L921 672 L403 672 L403 537 ZM739 594 Q856 482 925 400 L901 381 Q831 469 716 580 L739 594 ZM610 586 Q527 464 407 369 Q400 377 382 389 Q500 475 581 595 L610 586 ZM335 341 L218 298 L218 -22 Q218 -55 191 -64 Q168 -70 77 -69 Q74 -60 66 -41 Q151 -43 170 -41 Q189 -41 189 -22 L189 287 L50 237 L39 269 Q71 279 189 320 L189 589 L49 589 L49 618 L189 618 L189 831 L218 831 L218 618 L341 618 L341 589 L218 589 L218 331 L330 371 L335 341 ZM956 -7 L956 -36 L338 -36 L338 -7 L638 -7 L638 294 L424 294 L424 323 L888 323 L888 294 L668 294 L668 -7 L956 -7 Z" /><glyph glyph-name="" unicode="&#x63d0;" d="M836 766 L439 766 L439 657 L836 657 L836 766 ZM836 628 L439 628 L439 517 L836 517 L836 628 ZM864 488 L411 488 L411 795 L864 795 L864 488 ZM217 306 L217 -24 Q217 -57 190 -66 Q167 -72 76 -71 Q73 -62 65 -43 Q150 -45 169 -43 Q188 -43 188 -24 L188 295 Q85 257 48 244 L35 274 Q51 279 105 298 Q155 316 188 327 L188 587 L48 587 L48 616 L188 616 L188 829 L217 829 L217 616 L339 616 L339 587 L217 587 L217 338 L330 378 L335 349 L217 306 ZM959 -25 Q948 -42 947 -53 L772 -53 Q639 -53 568 -17 Q483 27 439 142 Q397 7 303 -73 Q295 -63 279 -53 Q414 51 440 296 L470 293 Q462 225 450 181 Q496 29 624 -8 L624 361 L369 361 L369 390 L924 390 L924 361 L651 361 L651 213 L879 213 L879 184 L651 184 L651 -15 Q704 -25 772 -25 L959 -25 Z" /><glyph glyph-name="" unicode="&#x63e1;" d="M207 305 L207 -24 Q207 -57 180 -66 Q157 -72 66 -71 Q63 -62 55 -43 Q140 -45 159 -43 Q178 -43 178 -24 L178 294 L47 246 L35 274 Q101 296 178 324 L178 587 L48 587 L48 616 L178 616 L178 829 L207 829 L207 616 L331 616 L331 587 L207 587 L207 334 L326 377 L331 349 L207 305 ZM396 758 L396 623 L866 623 L866 758 L396 758 ZM951 -15 L951 -44 L364 -44 L364 -15 L655 -15 L655 132 L428 132 L428 161 L655 161 L655 288 Q472 274 450 266 L450 269 Q449 268 449 266 Q446 284 439 297 Q457 300 484 330 Q537 383 592 473 L396 473 L396 453 Q396 101 274 -70 Q264 -58 250 -51 Q367 111 367 453 L367 787 L897 787 L897 594 L396 594 L396 502 L889 502 L889 473 L628 473 Q558 367 494 303 L829 327 Q776 385 735 420 L757 433 Q856 350 899 276 L878 260 Q866 280 848 302 L684 290 L684 161 L906 161 L906 132 L684 132 L684 -15 L951 -15 Z" /><glyph glyph-name="" unicode="&#x642d;" d="M496 682 L332 682 L332 711 L496 711 L496 831 L525 831 L525 711 L758 711 L758 831 L787 831 L787 711 L950 711 L950 682 L787 682 L787 575 L758 575 L758 682 L525 682 L525 575 L496 575 L496 682 ZM228 331 L228 -24 Q228 -57 201 -66 Q178 -72 87 -71 Q84 -62 76 -43 Q161 -45 180 -43 Q199 -43 199 -24 L199 318 L69 255 L55 284 Q84 297 199 351 L199 587 L54 587 L54 616 L199 616 L199 830 L228 830 L228 616 L332 616 L332 587 L228 587 L228 365 L334 416 L342 386 L228 331 ZM463 216 L463 -3 L829 -3 L829 216 L463 216 ZM434 245 L858 245 L858 -73 L829 -73 L829 -32 L463 -32 L463 -73 L434 -73 L434 245 ZM795 382 L795 353 L490 353 L490 382 L795 382 ZM663 594 L642 567 Q772 425 957 341 Q943 327 934 315 Q769 394 623 543 Q507 408 343 316 Q336 323 317 335 Q528 451 628 603 L663 594 Z" /><glyph glyph-name="" unicode="&#x643a;" d="M669 717 Q649 759 598 819 L622 831 Q667 782 694 733 L669 717 ZM441 679 L441 595 L644 595 L644 679 L441 679 ZM644 566 L441 566 L441 482 L644 482 L644 566 ZM644 453 L441 453 L441 366 L644 366 L644 453 ZM414 634 Q381 583 337 539 Q330 546 311 558 Q423 659 475 830 L505 824 Q489 774 458 708 L915 708 L915 679 L673 679 L673 595 L887 595 L887 566 L673 566 L673 482 L887 482 L887 453 L673 453 L673 366 L924 366 L924 337 L441 337 L441 301 L414 301 L414 634 ZM209 312 L209 -21 Q209 -53 185 -61 Q167 -67 83 -67 Q79 -52 71 -39 L163 -39 Q180 -38 180 -22 L180 299 L65 251 L52 281 Q102 300 180 333 L180 587 L54 587 L54 616 L180 616 L180 830 L209 830 L209 616 L314 616 L314 587 L209 587 L209 345 L309 387 L315 357 L209 312 ZM931 169 L929 151 Q911 -25 877 -54 Q862 -68 827 -69 Q770 -69 710 -64 Q708 -48 700 -36 Q765 -42 822 -42 Q848 -42 856 -34 Q880 -14 898 140 L709 140 L709 141 L685 141 Q700 178 717 234 L540 234 Q521 14 329 -74 Q315 -57 305 -51 Q489 21 509 234 L352 234 L352 263 L755 263 Q735 199 724 169 L931 169 Z" /><glyph glyph-name="" unicode="&#x6446;" d="M897 755 L752 755 L752 556 L897 556 L897 755 ZM723 755 L581 755 L581 556 L723 556 L723 755 ZM552 755 L416 755 L416 556 L552 556 L552 755 ZM926 527 L387 527 L387 784 L926 784 L926 527 ZM221 317 L221 -19 Q221 -53 194 -61 Q176 -67 80 -67 Q77 -55 69 -39 Q154 -41 173 -39 Q192 -38 192 -20 L192 306 L52 255 L39 285 Q55 290 109 309 Q159 327 192 338 L192 588 L54 588 L54 617 L192 617 L192 830 L221 830 L221 617 L342 617 L342 588 L221 588 L221 349 L345 393 L350 363 L221 317 ZM603 191 Q513 52 453 -10 L853 27 L781 138 L807 149 Q889 28 933 -54 L907 -68 Q880 -18 869 -1 Q420 -43 393 -53 Q390 -36 383 -22 Q404 -19 439 19 Q511 95 568 191 L348 191 L348 220 L633 220 L633 365 L401 365 L401 394 L633 394 L633 500 L662 500 L662 394 L916 394 L916 365 L662 365 L662 220 L949 220 L949 191 L603 191 Z" /></font>
</defs>
</svg>
